<?xml version="1.0" encoding="UTF-8" standalone="no"?>
<!DOCTYPE svg PUBLIC "-//W3C//DTD SVG 1.1//EN"
 "http://www.w3.org/Graphics/SVG/1.1/DTD/svg11.dtd">
<!-- Generated by graphviz version 2.38.0 (20140413.2041)
 -->
<!-- Title: ClassDiagram Pages: 1 -->
<svg width="1034pt" height="1028pt"
 viewBox="0.00 0.00 1034.00 1028.00" xmlns="http://www.w3.org/2000/svg" xmlns:xlink="http://www.w3.org/1999/xlink">
<g id="graph0" class="graph" transform="scale(1 1) rotate(0) translate(4 1024)">
<title>ClassDiagram</title>
<polygon fill="white" stroke="none" points="-4,4 -4,-1024 1030,-1024 1030,4 -4,4"/>
<!-- Basil -->
<g id="node1" class="node"><title>Basil</title>
<polygon fill="none" stroke="black" points="0,-848 0,-917 156,-917 156,-848 0,-848"/>
<text text-anchor="middle" x="78" y="-906.6" font-family="Consolas" font-size="8.00">Basil</text>
<polyline fill="none" stroke="black" points="0,-900 156,-900 "/>
<text text-anchor="start" x="8" y="-889.6" font-family="Consolas" font-size="8.00">&#45; Name : override string</text>
<text text-anchor="start" x="8" y="-880.6" font-family="Consolas" font-size="8.00">&#45; Description : override string</text>
<text text-anchor="start" x="8" y="-871.6" font-family="Consolas" font-size="8.00">&#45; CostPrice : override double</text>
<polyline fill="none" stroke="black" points="0,-865 156,-865 "/>
<text text-anchor="middle" x="78" y="-854.6" font-family="Consolas" font-size="8.00"> </text>
</g>
<!-- Ingredient -->
<g id="node6" class="node"><title>Ingredient</title>
<polygon fill="none" stroke="black" points="435,-709.5 435,-805.5 591,-805.5 591,-709.5 435,-709.5"/>
<text text-anchor="middle" x="513" y="-795.1" font-family="Consolas" font-size="8.00">Ingredient</text>
<polyline fill="none" stroke="black" points="435,-788.5 591,-788.5 "/>
<text text-anchor="start" x="443" y="-778.1" font-family="Consolas" font-size="8.00">&#45; Name : abstract string</text>
<text text-anchor="start" x="443" y="-769.1" font-family="Consolas" font-size="8.00">&#45; CostPrice : abstract double</text>
<text text-anchor="start" x="443" y="-760.1" font-family="Consolas" font-size="8.00">&#45; Price : double</text>
<text text-anchor="start" x="443" y="-751.1" font-family="Consolas" font-size="8.00">&#45; Description : abstract string</text>
<text text-anchor="start" x="443" y="-742.1" font-family="Consolas" font-size="8.00">&#45; Baked : bool</text>
<polyline fill="none" stroke="black" points="435,-735.5 591,-735.5 "/>
<text text-anchor="start" x="443" y="-725.1" font-family="Consolas" font-size="8.00">&#45; Bake() : void</text>
<text text-anchor="start" x="443" y="-716.1" font-family="Consolas" font-size="8.00">+ ToString() : override string</text>
</g>
<!-- Basil&#45;&gt;Ingredient -->
<g id="edge1" class="edge"><title>Basil&#45;&gt;Ingredient</title>
<path fill="none" stroke="black" d="M151.685,-847.82C156.159,-846.11 160.621,-844.487 165,-843 251.727,-813.544 353.882,-790.007 424.988,-775.331"/>
<polygon fill="none" stroke="black" points="425.716,-778.754 434.81,-773.319 424.311,-771.897 425.716,-778.754"/>
</g>
<!-- Cheese -->
<g id="node2" class="node"><title>Cheese</title>
<polygon fill="none" stroke="black" points="174,-848 174,-917 330,-917 330,-848 174,-848"/>
<text text-anchor="middle" x="252" y="-906.6" font-family="Consolas" font-size="8.00">Cheese</text>
<polyline fill="none" stroke="black" points="174,-900 330,-900 "/>
<text text-anchor="start" x="182" y="-889.6" font-family="Consolas" font-size="8.00">&#45; Name : override string</text>
<text text-anchor="start" x="182" y="-880.6" font-family="Consolas" font-size="8.00">&#45; Description : override string</text>
<text text-anchor="start" x="182" y="-871.6" font-family="Consolas" font-size="8.00">&#45; CostPrice : override double</text>
<polyline fill="none" stroke="black" points="174,-865 330,-865 "/>
<text text-anchor="middle" x="252" y="-854.6" font-family="Consolas" font-size="8.00"> </text>
</g>
<!-- Cheese&#45;&gt;Ingredient -->
<g id="edge2" class="edge"><title>Cheese&#45;&gt;Ingredient</title>
<path fill="none" stroke="black" d="M323.319,-847.89C354.913,-833.001 392.377,-815.345 425.631,-799.674"/>
<polygon fill="none" stroke="black" points="427.337,-802.739 434.89,-795.31 424.352,-796.407 427.337,-802.739"/>
</g>
<!-- CustomPizaDecorator -->
<g id="node3" class="node"><title>CustomPizaDecorator</title>
<polygon fill="none" stroke="black" points="339,-585.5 339,-663.5 477,-663.5 477,-585.5 339,-585.5"/>
<text text-anchor="middle" x="408" y="-653.1" font-family="Consolas" font-size="8.00">CustomPizaDecorator</text>
<polyline fill="none" stroke="black" points="339,-646.5 477,-646.5 "/>
<text text-anchor="start" x="347" y="-636.1" font-family="Consolas" font-size="8.00">&#45; _calculatedPrice : double</text>
<text text-anchor="start" x="347" y="-627.1" font-family="Consolas" font-size="8.00">&#45; Price : override double</text>
<polyline fill="none" stroke="black" points="339,-620.5 477,-620.5 "/>
<text text-anchor="start" x="347" y="-610.1" font-family="Consolas" font-size="8.00">+ CustomPizaDecorator() : </text>
<text text-anchor="start" x="347" y="-601.1" font-family="Consolas" font-size="8.00">+ Prepare() : override void</text>
<text text-anchor="start" x="347" y="-592.1" font-family="Consolas" font-size="8.00">+ AddIngredient() : void</text>
</g>
<!-- CustomPizzaFactory -->
<g id="node4" class="node"><title>CustomPizzaFactory</title>
<polygon fill="none" stroke="black" points="455.5,-479.5 455.5,-530.5 580.5,-530.5 580.5,-479.5 455.5,-479.5"/>
<text text-anchor="middle" x="518" y="-520.1" font-family="Consolas" font-size="8.00">CustomPizzaFactory</text>
<polyline fill="none" stroke="black" points="455.5,-513.5 580.5,-513.5 "/>
<text text-anchor="middle" x="518" y="-503.1" font-family="Consolas" font-size="8.00"> </text>
<polyline fill="none" stroke="black" points="455.5,-496.5 580.5,-496.5 "/>
<text text-anchor="start" x="463.5" y="-486.1" font-family="Consolas" font-size="8.00">+ PreparePizza() : Pizza</text>
</g>
<!-- CustomPizaDecorator&#45;&gt;CustomPizzaFactory -->
<g id="edge6" class="edge"><title>CustomPizaDecorator&#45;&gt;CustomPizzaFactory</title>
<path fill="none" stroke="black" d="M419.162,-585.22C423.138,-575.661 428.336,-565.895 435,-558 441.816,-549.925 450.213,-542.707 459.022,-536.405"/>
<polygon fill="black" stroke="black" points="461.226,-539.14 467.557,-530.645 457.31,-533.338 461.226,-539.14"/>
<text text-anchor="middle" x="467" y="-560.6" font-family="Consolas" font-size="8.00">DecoratedPizza</text>
</g>
<!-- PizzaDecorator -->
<g id="node9" class="node"><title>PizzaDecorator</title>
<polygon fill="none" stroke="black" points="575.5,-0.5 575.5,-51.5 686.5,-51.5 686.5,-0.5 575.5,-0.5"/>
<text text-anchor="middle" x="631" y="-41.1" font-family="Consolas" font-size="8.00">PizzaDecorator</text>
<polyline fill="none" stroke="black" points="575.5,-34.5 686.5,-34.5 "/>
<text text-anchor="middle" x="631" y="-24.1" font-family="Consolas" font-size="8.00"> </text>
<polyline fill="none" stroke="black" points="575.5,-17.5 686.5,-17.5 "/>
<text text-anchor="start" x="583.5" y="-7.1" font-family="Consolas" font-size="8.00">+ PizzaDecorator() : </text>
</g>
<!-- CustomPizaDecorator&#45;&gt;PizzaDecorator -->
<g id="edge4" class="edge"><title>CustomPizaDecorator&#45;&gt;PizzaDecorator</title>
<path fill="none" stroke="black" d="M404.582,-585.434C402.805,-562.451 401,-532.566 401,-506 401,-506 401,-506 401,-158 401,-81.9457 497.131,-49.4765 565.096,-36.0248"/>
<polygon fill="none" stroke="black" points="566.143,-39.3892 575.323,-34.1002 564.849,-32.51 566.143,-39.3892"/>
</g>
<!-- IPizzaFactory -->
<g id="node7" class="node"><title>IPizzaFactory</title>
<polygon fill="none" stroke="black" points="642.5,-373.5 642.5,-424.5 767.5,-424.5 767.5,-373.5 642.5,-373.5"/>
<text text-anchor="middle" x="705" y="-414.1" font-family="Consolas" font-size="8.00">IPizzaFactory</text>
<polyline fill="none" stroke="black" points="642.5,-407.5 767.5,-407.5 "/>
<text text-anchor="middle" x="705" y="-397.1" font-family="Consolas" font-size="8.00"> </text>
<polyline fill="none" stroke="black" points="642.5,-390.5 767.5,-390.5 "/>
<text text-anchor="start" x="650.5" y="-380.1" font-family="Consolas" font-size="8.00">+ PreparePizza() : Pizza</text>
</g>
<!-- CustomPizzaFactory&#45;&gt;IPizzaFactory -->
<g id="edge8" class="edge"><title>CustomPizzaFactory&#45;&gt;IPizzaFactory</title>
<path fill="none" stroke="black" stroke-dasharray="5,2" d="M543.501,-479.446C557.098,-467.305 574.583,-453.124 592,-443 604.681,-435.63 618.858,-429.079 632.769,-423.45"/>
<polygon fill="none" stroke="black" points="634.303,-426.609 642.337,-419.702 631.749,-420.091 634.303,-426.609"/>
</g>
<!-- Dough -->
<g id="node5" class="node"><title>Dough</title>
<polygon fill="none" stroke="black" points="348,-843.5 348,-921.5 504,-921.5 504,-843.5 348,-843.5"/>
<text text-anchor="middle" x="426" y="-911.1" font-family="Consolas" font-size="8.00">Dough</text>
<polyline fill="none" stroke="black" points="348,-904.5 504,-904.5 "/>
<text text-anchor="start" x="356" y="-894.1" font-family="Consolas" font-size="8.00">&#45; Name : override string</text>
<text text-anchor="start" x="356" y="-885.1" font-family="Consolas" font-size="8.00">&#45; Description : override string</text>
<text text-anchor="start" x="356" y="-876.1" font-family="Consolas" font-size="8.00">&#45; Price : override double</text>
<text text-anchor="start" x="356" y="-867.1" font-family="Consolas" font-size="8.00">&#45; CostPrice : override double</text>
<polyline fill="none" stroke="black" points="348,-860.5 504,-860.5 "/>
<text text-anchor="middle" x="426" y="-850.1" font-family="Consolas" font-size="8.00"> </text>
</g>
<!-- Dough&#45;&gt;Ingredient -->
<g id="edge9" class="edge"><title>Dough&#45;&gt;Ingredient</title>
<path fill="none" stroke="black" d="M453.05,-843.256C459.597,-834 466.727,-823.92 473.711,-814.047"/>
<polygon fill="none" stroke="black" points="476.61,-816.009 479.527,-805.824 470.895,-811.967 476.61,-816.009"/>
</g>
<!-- Ingredient&#45;&gt;CustomPizaDecorator -->
<g id="edge3" class="edge"><title>Ingredient&#45;&gt;CustomPizaDecorator</title>
<path fill="none" stroke="black" d="M437.067,-709.219C431.409,-703.599 426.259,-697.518 422,-691 418.948,-686.329 416.548,-681.108 414.663,-675.707"/>
<polygon fill="none" stroke="black" points="414.548,-675.293 409.076,-670.597 411.307,-663.739 416.779,-668.436 414.548,-675.293"/>
<text text-anchor="middle" x="460.5" y="-684.6" font-family="Consolas" font-size="8.00">_extraIngredients</text>
</g>
<!-- Ingredient&#45;&gt;CustomPizzaFactory -->
<g id="edge7" class="edge"><title>Ingredient&#45;&gt;CustomPizzaFactory</title>
<path fill="none" stroke="black" d="M513.94,-709.383C514.903,-661.14 516.38,-587.147 517.262,-542.967"/>
<polygon fill="none" stroke="black" points="517.265,-542.806 513.386,-536.728 517.505,-530.809 521.384,-536.887 517.265,-542.806"/>
<text text-anchor="middle" x="552.5" y="-622.6" font-family="Consolas" font-size="8.00">ExtraIngredients</text>
</g>
<!-- Pizza -->
<g id="node8" class="node"><title>Pizza</title>
<polygon fill="none" stroke="black" points="556,-97.5 556,-220.5 708,-220.5 708,-97.5 556,-97.5"/>
<text text-anchor="middle" x="632" y="-210.1" font-family="Consolas" font-size="8.00">Pizza</text>
<polyline fill="none" stroke="black" points="556,-203.5 708,-203.5 "/>
<text text-anchor="start" x="564" y="-193.1" font-family="Consolas" font-size="8.00">&#45; IsPrepared : bool</text>
<text text-anchor="start" x="564" y="-184.1" font-family="Consolas" font-size="8.00">&#45; IsCut : bool</text>
<text text-anchor="start" x="564" y="-175.1" font-family="Consolas" font-size="8.00">&#45; IsBaked : bool</text>
<text text-anchor="start" x="564" y="-166.1" font-family="Consolas" font-size="8.00">&#45; IsPackaged : bool</text>
<text text-anchor="start" x="564" y="-157.1" font-family="Consolas" font-size="8.00">&#45; Price : double</text>
<polyline fill="none" stroke="black" points="556,-150.5 708,-150.5 "/>
<text text-anchor="start" x="564" y="-140.1" font-family="Consolas" font-size="8.00">+ Prepare() : void</text>
<text text-anchor="start" x="564" y="-131.1" font-family="Consolas" font-size="8.00">+ Bake() : void</text>
<text text-anchor="start" x="564" y="-122.1" font-family="Consolas" font-size="8.00">+ Cut() : void</text>
<text text-anchor="start" x="564" y="-113.1" font-family="Consolas" font-size="8.00">+ Package() : void</text>
<text text-anchor="start" x="564" y="-104.1" font-family="Consolas" font-size="8.00">+ ToString() : override string</text>
</g>
<!-- Ingredient&#45;&gt;Pizza -->
<g id="edge10" class="edge"><title>Ingredient&#45;&gt;Pizza</title>
<path fill="none" stroke="black" d="M572.919,-709.313C594.668,-686.759 614,-657.664 614,-625.5 614,-625.5 614,-625.5 614,-292 614,-272.651 615.922,-251.851 618.51,-232.616"/>
<polygon fill="none" stroke="black" points="618.537,-232.429 615.432,-225.921 620.245,-220.552 623.35,-227.06 618.537,-232.429"/>
<text text-anchor="middle" x="639" y="-445.6" font-family="Consolas" font-size="8.00">Ingredients</text>
</g>
<!-- PizzaDelivery -->
<g id="node10" class="node"><title>PizzaDelivery</title>
<polygon fill="none" stroke="black" points="642.5,-267.5 642.5,-318.5 767.5,-318.5 767.5,-267.5 642.5,-267.5"/>
<text text-anchor="middle" x="705" y="-308.1" font-family="Consolas" font-size="8.00">PizzaDelivery</text>
<polyline fill="none" stroke="black" points="642.5,-301.5 767.5,-301.5 "/>
<text text-anchor="middle" x="705" y="-291.1" font-family="Consolas" font-size="8.00"> </text>
<polyline fill="none" stroke="black" points="642.5,-284.5 767.5,-284.5 "/>
<text text-anchor="start" x="650.5" y="-274.1" font-family="Consolas" font-size="8.00">+ DeliverPizza() : Pizza</text>
</g>
<!-- IPizzaFactory&#45;&gt;PizzaDelivery -->
<g id="edge13" class="edge"><title>IPizzaFactory&#45;&gt;PizzaDelivery</title>
<path fill="none" stroke="black" stroke-dasharray="5,2" d="M705,-373.353C705,-360.11 705,-343.557 705,-329"/>
<polygon fill="black" stroke="black" points="708.5,-328.83 705,-318.83 701.5,-328.83 708.5,-328.83"/>
<text text-anchor="middle" x="721" y="-348.6" font-family="Consolas" font-size="8.00">factory</text>
</g>
<!-- Pizza&#45;&gt;CustomPizzaFactory -->
<g id="edge5" class="edge"><title>Pizza&#45;&gt;CustomPizzaFactory</title>
<path fill="none" stroke="black" d="M607.25,-220.767C604.785,-226.92 602.333,-233.08 600,-239 581.328,-286.381 574.531,-297.499 559,-346 545.547,-388.01 533.296,-437.345 525.759,-469.567"/>
<polygon fill="black" stroke="black" points="522.329,-468.865 523.482,-479.397 529.149,-470.444 522.329,-468.865"/>
<text text-anchor="middle" x="579.5" y="-348.6" font-family="Consolas" font-size="8.00">BasePizza</text>
</g>
<!-- Pizza&#45;&gt;PizzaDecorator -->
<g id="edge11" class="edge"><title>Pizza&#45;&gt;PizzaDecorator</title>
<path fill="none" stroke="black" d="M631.538,-97.485C631.45,-85.951 631.36,-74.2097 631.28,-63.7027"/>
<polygon fill="none" stroke="black" points="631.279,-63.5953 627.234,-57.626 631.188,-51.5956 635.233,-57.5649 631.279,-63.5953"/>
<text text-anchor="middle" x="663" y="-72.6" font-family="Consolas" font-size="8.00">decoratedPizza</text>
</g>
<!-- PizzaDecorator&#45;&gt;Pizza -->
<g id="edge12" class="edge"><title>PizzaDecorator&#45;&gt;Pizza</title>
<path fill="none" stroke="black" d="M629.661,-51.5516C629.386,-57.5823 629.139,-64.0229 629,-70 628.871,-75.5399 628.839,-81.2754 628.879,-87.04"/>
<polygon fill="none" stroke="black" points="625.384,-87.4612 629.022,-97.4117 632.384,-87.3641 625.384,-87.4612"/>
</g>
<!-- PizzaDelivery&#45;&gt;Pizza -->
<g id="edge14" class="edge"><title>PizzaDelivery&#45;&gt;Pizza</title>
<path fill="none" stroke="black" d="M691.44,-267.481C685.42,-256.595 677.999,-243.176 670.466,-229.555"/>
<polygon fill="black" stroke="black" points="673.415,-227.656 665.513,-220.599 667.29,-231.044 673.415,-227.656"/>
</g>
<!-- PizzaMargherita -->
<g id="node11" class="node"><title>PizzaMargherita</title>
<polygon fill="none" stroke="black" points="786,-258.5 786,-327.5 924,-327.5 924,-258.5 786,-258.5"/>
<text text-anchor="middle" x="855" y="-317.1" font-family="Consolas" font-size="8.00">PizzaMargherita</text>
<polyline fill="none" stroke="black" points="786,-310.5 924,-310.5 "/>
<text text-anchor="start" x="794" y="-300.1" font-family="Consolas" font-size="8.00">&#45; Price : override double</text>
<polyline fill="none" stroke="black" points="786,-293.5 924,-293.5 "/>
<text text-anchor="start" x="794" y="-283.1" font-family="Consolas" font-size="8.00">+ PizzaMargherita() : </text>
<text text-anchor="start" x="794" y="-274.1" font-family="Consolas" font-size="8.00">+ PizzaMargherita() : </text>
<text text-anchor="start" x="794" y="-265.1" font-family="Consolas" font-size="8.00">+ Prepare() : override void</text>
</g>
<!-- PizzaMargherita&#45;&gt;Pizza -->
<g id="edge15" class="edge"><title>PizzaMargherita&#45;&gt;Pizza</title>
<path fill="none" stroke="black" d="M785.817,-259.848C773.393,-253.572 760.687,-246.815 749,-240 738.349,-233.789 727.385,-226.945 716.639,-219.953"/>
<polygon fill="black" stroke="black" points="718.357,-216.894 708.078,-214.324 714.511,-222.743 718.357,-216.894"/>
</g>
<!-- PizzaMargherita&#45;&gt;PizzaDecorator -->
<g id="edge16" class="edge"><title>PizzaMargherita&#45;&gt;PizzaDecorator</title>
<path fill="none" stroke="black" d="M837.069,-258.446C811.127,-212.092 759.544,-127.667 699,-70 694.42,-65.6378 689.333,-61.4735 684.061,-57.5735"/>
<polygon fill="none" stroke="black" points="685.865,-54.5627 675.672,-51.672 681.837,-60.2882 685.865,-54.5627"/>
</g>
<!-- PizzaMargheritaFactory -->
<g id="node12" class="node"><title>PizzaMargheritaFactory</title>
<polygon fill="none" stroke="black" points="642,-470.5 642,-539.5 816,-539.5 816,-470.5 642,-470.5"/>
<text text-anchor="middle" x="729" y="-529.1" font-family="Consolas" font-size="8.00">PizzaMargheritaFactory</text>
<polyline fill="none" stroke="black" points="642,-522.5 816,-522.5 "/>
<text text-anchor="middle" x="729" y="-512.1" font-family="Consolas" font-size="8.00"> </text>
<polyline fill="none" stroke="black" points="642,-505.5 816,-505.5 "/>
<text text-anchor="start" x="650" y="-495.1" font-family="Consolas" font-size="8.00">&#45; PizzaMargheritaFactory() : static</text>
<text text-anchor="start" x="650" y="-486.1" font-family="Consolas" font-size="8.00">&#45; PizzaMargheritaFactory() : </text>
<text text-anchor="start" x="650" y="-477.1" font-family="Consolas" font-size="8.00">+ PreparePizza() : Pizza</text>
</g>
<!-- PizzaMargheritaFactory&#45;&gt;IPizzaFactory -->
<g id="edge19" class="edge"><title>PizzaMargheritaFactory&#45;&gt;IPizzaFactory</title>
<path fill="none" stroke="black" stroke-dasharray="5,2" d="M721.208,-470.234C718.588,-458.882 715.662,-446.201 713.025,-434.773"/>
<polygon fill="none" stroke="black" points="716.36,-433.66 710.701,-424.703 709.539,-435.234 716.36,-433.66"/>
</g>
<!-- PizzaMargheritaFactory&#45;&gt;PizzaMargherita -->
<g id="edge17" class="edge"><title>PizzaMargheritaFactory&#45;&gt;PizzaMargherita</title>
<path fill="none" stroke="black" d="M749.622,-470.21C758.127,-456.234 768.066,-439.853 777,-425 794.757,-395.478 814.62,-362.113 829.858,-336.444"/>
<polygon fill="black" stroke="black" points="832.951,-338.091 835.044,-327.704 826.931,-334.518 832.951,-338.091"/>
<text text-anchor="middle" x="840" y="-397.1" font-family="Consolas" font-size="8.00">PreparePizza()</text>
</g>
<!-- PizzaMargheritaFactory&#45;&gt;PizzaMargheritaFactory -->
<g id="edge18" class="edge"><title>PizzaMargheritaFactory&#45;&gt;PizzaMargheritaFactory</title>
<path fill="none" stroke="black" d="M816.302,-514.084C826.992,-512.458 834,-509.43 834,-505 834,-502.162 831.124,-499.9 826.246,-498.212"/>
<polygon fill="black" stroke="black" points="826.833,-494.756 816.302,-495.916 825.258,-501.576 826.833,-494.756"/>
<text text-anchor="middle" x="852.5" y="-503.1" font-family="Consolas" font-size="8.00">Instance</text>
</g>
<!-- Program -->
<g id="node13" class="node"><title>Program</title>
<polygon fill="none" stroke="black" points="727,-585.5 727,-663.5 901,-663.5 901,-585.5 727,-585.5"/>
<text text-anchor="middle" x="814" y="-653.1" font-family="Consolas" font-size="8.00">Program</text>
<polyline fill="none" stroke="black" points="727,-646.5 901,-646.5 "/>
<text text-anchor="middle" x="814" y="-636.1" font-family="Consolas" font-size="8.00"> </text>
<polyline fill="none" stroke="black" points="727,-629.5 901,-629.5 "/>
<text text-anchor="start" x="735" y="-619.1" font-family="Consolas" font-size="8.00">&#45; Main() : void</text>
<text text-anchor="start" x="735" y="-610.1" font-family="Consolas" font-size="8.00">&#45; GoedkopePizza() : void</text>
<text text-anchor="start" x="735" y="-601.1" font-family="Consolas" font-size="8.00">&#45; DurePizza() : void</text>
<text text-anchor="start" x="735" y="-592.1" font-family="Consolas" font-size="8.00">&#45; PizzaMargheritaMetSalami() : void</text>
</g>
<!-- Program&#45;&gt;PizzaDelivery -->
<g id="edge21" class="edge"><title>Program&#45;&gt;PizzaDelivery</title>
<path fill="none" stroke="black" d="M852.99,-585.217C863.886,-572.023 874.299,-556.407 880,-540 886.394,-521.598 878.253,-376.346 876,-373 849.002,-332.911 820.853,-348.32 777,-328 773.433,-326.347 769.77,-324.642 766.077,-322.917"/>
<polygon fill="black" stroke="black" points="767.41,-319.677 756.87,-318.604 764.441,-326.016 767.41,-319.677"/>
</g>
<!-- Program&#45;&gt;PizzaMargheritaFactory -->
<g id="edge20" class="edge"><title>Program&#45;&gt;PizzaMargheritaFactory</title>
<path fill="none" stroke="black" d="M786.403,-585.351C777.738,-573.373 768.127,-560.087 759.286,-547.866"/>
<polygon fill="black" stroke="black" points="762.007,-545.655 753.31,-539.604 756.335,-549.758 762.007,-545.655"/>
</g>
<!-- Salami -->
<g id="node14" class="node"><title>Salami</title>
<polygon fill="none" stroke="black" points="522,-848 522,-917 678,-917 678,-848 522,-848"/>
<text text-anchor="middle" x="600" y="-906.6" font-family="Consolas" font-size="8.00">Salami</text>
<polyline fill="none" stroke="black" points="522,-900 678,-900 "/>
<text text-anchor="start" x="530" y="-889.6" font-family="Consolas" font-size="8.00">&#45; Name : override string</text>
<text text-anchor="start" x="530" y="-880.6" font-family="Consolas" font-size="8.00">&#45; Description : override string</text>
<text text-anchor="start" x="530" y="-871.6" font-family="Consolas" font-size="8.00">&#45; CostPrice : override double</text>
<polyline fill="none" stroke="black" points="522,-865 678,-865 "/>
<text text-anchor="middle" x="600" y="-854.6" font-family="Consolas" font-size="8.00"> </text>
</g>
<!-- Salami&#45;&gt;Ingredient -->
<g id="edge22" class="edge"><title>Salami&#45;&gt;Ingredient</title>
<path fill="none" stroke="black" d="M576.227,-847.89C568.859,-837.473 560.533,-825.701 552.399,-814.202"/>
<polygon fill="none" stroke="black" points="555.16,-812.044 546.528,-805.901 549.445,-816.086 555.16,-812.044"/>
</g>
<!-- SpicyTomatoSauce -->
<g id="node15" class="node"><title>SpicyTomatoSauce</title>
<polygon fill="none" stroke="black" points="870,-959.5 870,-1019.5 1026,-1019.5 1026,-959.5 870,-959.5"/>
<text text-anchor="middle" x="948" y="-1009.1" font-family="Consolas" font-size="8.00">SpicyTomatoSauce</text>
<polyline fill="none" stroke="black" points="870,-1002.5 1026,-1002.5 "/>
<text text-anchor="start" x="878" y="-992.1" font-family="Consolas" font-size="8.00">&#45; Name : override string</text>
<text text-anchor="start" x="878" y="-983.1" font-family="Consolas" font-size="8.00">&#45; Description : override string</text>
<polyline fill="none" stroke="black" points="870,-976.5 1026,-976.5 "/>
<text text-anchor="middle" x="948" y="-966.1" font-family="Consolas" font-size="8.00"> </text>
</g>
<!-- TomatoSauce -->
<g id="node17" class="node"><title>TomatoSauce</title>
<polygon fill="none" stroke="black" points="870,-848 870,-917 1026,-917 1026,-848 870,-848"/>
<text text-anchor="middle" x="948" y="-906.6" font-family="Consolas" font-size="8.00">TomatoSauce</text>
<polyline fill="none" stroke="black" points="870,-900 1026,-900 "/>
<text text-anchor="start" x="878" y="-889.6" font-family="Consolas" font-size="8.00">&#45; Name : override string</text>
<text text-anchor="start" x="878" y="-880.6" font-family="Consolas" font-size="8.00">&#45; Description : override string</text>
<text text-anchor="start" x="878" y="-871.6" font-family="Consolas" font-size="8.00">&#45; CostPrice : override double</text>
<polyline fill="none" stroke="black" points="870,-865 1026,-865 "/>
<text text-anchor="middle" x="948" y="-854.6" font-family="Consolas" font-size="8.00"> </text>
</g>
<!-- SpicyTomatoSauce&#45;&gt;TomatoSauce -->
<g id="edge23" class="edge"><title>SpicyTomatoSauce&#45;&gt;TomatoSauce</title>
<path fill="none" stroke="black" d="M948,-959.252C948,-949.319 948,-937.995 948,-927.184"/>
<polygon fill="none" stroke="black" points="951.5,-927.038 948,-917.038 944.5,-927.038 951.5,-927.038"/>
</g>
<!-- Tomato -->
<g id="node16" class="node"><title>Tomato</title>
<polygon fill="none" stroke="black" points="696,-848 696,-917 852,-917 852,-848 696,-848"/>
<text text-anchor="middle" x="774" y="-906.6" font-family="Consolas" font-size="8.00">Tomato</text>
<polyline fill="none" stroke="black" points="696,-900 852,-900 "/>
<text text-anchor="start" x="704" y="-889.6" font-family="Consolas" font-size="8.00">&#45; Name : override string</text>
<text text-anchor="start" x="704" y="-880.6" font-family="Consolas" font-size="8.00">&#45; Description : override string</text>
<text text-anchor="start" x="704" y="-871.6" font-family="Consolas" font-size="8.00">&#45; CostPrice : override double</text>
<polyline fill="none" stroke="black" points="696,-865 852,-865 "/>
<text text-anchor="middle" x="774" y="-854.6" font-family="Consolas" font-size="8.00"> </text>
</g>
<!-- Tomato&#45;&gt;Ingredient -->
<g id="edge24" class="edge"><title>Tomato&#45;&gt;Ingredient</title>
<path fill="none" stroke="black" d="M702.681,-847.89C671.087,-833.001 633.623,-815.345 600.369,-799.674"/>
<polygon fill="none" stroke="black" points="601.648,-796.407 591.11,-795.31 598.663,-802.739 601.648,-796.407"/>
</g>
<!-- TomatoSauce&#45;&gt;Ingredient -->
<g id="edge25" class="edge"><title>TomatoSauce&#45;&gt;Ingredient</title>
<path fill="none" stroke="black" d="M874.315,-847.82C869.841,-846.11 865.379,-844.487 861,-843 774.273,-813.544 672.118,-790.007 601.012,-775.331"/>
<polygon fill="none" stroke="black" points="601.689,-771.897 591.19,-773.319 600.284,-778.754 601.689,-771.897"/>
</g>
</g>
</svg>
