<?xml version="1.0" encoding="UTF-8" standalone="no"?>
<!DOCTYPE svg PUBLIC "-//W3C//DTD SVG 1.1//EN"
 "http://www.w3.org/Graphics/SVG/1.1/DTD/svg11.dtd">
<!-- Generated by graphviz version 2.38.0 (20140413.2041)
 -->
<!-- Title: ClassDiagram Pages: 1 -->
<svg width="1034pt" height="1028pt"
 viewBox="0.00 0.00 1034.00 1028.00" xmlns="http://www.w3.org/2000/svg" xmlns:xlink="http://www.w3.org/1999/xlink">
<g id="graph0" class="graph" transform="scale(1 1) rotate(0) translate(4 1024)">
<title>ClassDiagram</title>
<polygon fill="white" stroke="none" points="-4,4 -4,-1024 1030,-1024 1030,4 -4,4"/>
<!-- Basil -->
<g id="node1" class="node"><title>Basil</title>
<polygon fill="none" stroke="black" points="0,-848 0,-917 156,-917 156,-848 0,-848"/>
<text text-anchor="middle" x="78" y="-906.6" font-family="Consolas" font-size="8.00">Basil</text>
<polyline fill="none" stroke="black" points="0,-900 156,-900 "/>
<text text-anchor="start" x="8" y="-889.6" font-family="Consolas" font-size="8.00">&#45; Name : override string</text>
<text text-anchor="start" x="8" y="-880.6" font-family="Consolas" font-size="8.00">&#45; Description : override string</text>
<text text-anchor="start" x="8" y="-871.6" font-family="Consolas" font-size="8.00">&#45; CostPrice : override double</text>
<polyline fill="none" stroke="black" points="0,-865 156,-865 "/>
<text text-anchor="middle" x="78" y="-854.6" font-family="Consolas" font-size="8.00"> </text>
</g>
<!-- Ingredient -->
<g id="node6" class="node"><title>Ingredient</title>
<polygon fill="none" stroke="black" points="435,-709.5 435,-805.5 591,-805.5 591,-709.5 435,-709.5"/>
<text text-anchor="middle" x="513" y="-795.1" font-family="Consolas" font-size="8.00">Ingredient</text>
<polyline fill="none" stroke="black" points="435,-788.5 591,-788.5 "/>
<text text-anchor="start" x="443" y="-778.1" font-family="Consolas" font-size="8.00">&#45; Name : abstract string</text>
<text text-anchor="start" x="443" y="-769.1" font-family="Consolas" font-size="8.00">&#45; CostPrice : abstract double</text>
<text text-anchor="start" x="443" y="-760.1" font-family="Consolas" font-size="8.00">&#45; Price : double</text>
<text text-anchor="start" x="443" y="-751.1" font-family="Consolas" font-size="8.00">&#45; Description : abstract string</text>
<text text-anchor="start" x="443" y="-742.1" font-family="Consolas" font-size="8.00">&#45; Baked : bool</text>
<polyline fill="none" stroke="black" points="435,-735.5 591,-735.5 "/>
<text text-anchor="start" x="443" y="-725.1" font-family="Consolas" font-size="8.00">&#45; Bake() : void</text>
<text text-anchor="start" x="443" y="-716.1" font-family="Consolas" font-size="8.00">+ ToString() : override string</text>
</g>
<!-- Basil&#45;&gt;Ingredient -->
<g id="edge1" class="edge"><title>Basil&#45;&gt;Ingredient</title>
<path fill="none" stroke="black" d="M151.685,-847.82C156.159,-846.11 160.621,-844.487 165,-843 251.727,-813.544 353.882,-790.007 424.988,-775.331"/>
<polygon fill="none" stroke="black" points="425.716,-778.754 434.81,-773.319 424.311,-771.897 425.716,-778.754"/>
</g>
<!-- Cheese -->
<g id="node2" class="node"><title>Cheese</title>
<polygon fill="none" stroke="black" points="174,-848 174,-917 330,-917 330,-848 174,-848"/>
<text text-anchor="middle" x="252" y="-906.6" font-family="Consolas" font-size="8.00">Cheese</text>
<polyline fill="none" stroke="black" points="174,-900 330,-900 "/>
<text text-anchor="start" x="182" y="-889.6" font-family="Consolas" font-size="8.00">&#45; Name : override string</text>
<text text-anchor="start" x="182" y="-880.6" font-family="Consolas" font-size="8.00">&#45; Description : override string</text>
<text text-anchor="start" x="182" y="-871.6" font-family="Consolas" font-size="8.00">&#45; CostPrice : override double</text>
<polyline fill="none" stroke="black" points="174,-865 330,-865 "/>
<text text-anchor="middle" x="252" y="-854.6" font-family="Consolas" font-size="8.00"> </text>
</g>
<!-- Cheese&#45;&gt;Ingredient -->
<g id="edge2" class="edge"><title>Cheese&#45;&gt;Ingredient</title>
<path fill="none" stroke="black" d="M323.319,-847.89C354.913,-833.001 392.377,-815.345 425.631,-799.674"/>
<polygon fill="none" stroke="black" points="427.337,-802.739 434.89,-795.31 424.352,-796.407 427.337,-802.739"/>
</g>
<!-- CustomPizaDecorator -->
<g id="node3" class="node"><title>CustomPizaDecorator</title>
<polygon fill="none" stroke="black" points="339,-585.5 339,-663.5 477,-663.5 477,-585.5 339,-585.5"/>
<text text-anchor="middle" x="408" y="-653.1" font-family="Consolas" font-size="8.00">CustomPizaDecorator</text>
<polyline fill="none" stroke="black" points="339,-646.5 477,-646.5 "/>
<text text-anchor="start" x="347" y="-636.1" font-family="Consolas" font-size="8.00">&#45; _calculatedPrice : double</text>
<text text-anchor="start" x="347" y="-627.1" font-family="Consolas" font-size="8.00">&#45; Price : override double</text>
<polyline fill="none" stroke="black" points="339,-620.5 477,-620.5 "/>
<text text-anchor="start" x="347" y="-610.1" font-family="Consolas" font-size="8.00">+ CustomPizaDecorator() : </text>
<text text-anchor="start" x="347" y="-601.1" font-family="Consolas" font-size="8.00">+ Prepare() : override void</text>
<text text-anchor="start" x="347" y="-592.1" font-family="Consolas" font-size="8.00">+ AddIngredient() : void</text>
</g>
<!-- CustomPizzaFactory -->
<g id="node4" class="node"><title>CustomPizzaFactory</title>
<polygon fill="none" stroke="black" points="370.5,-479.5 370.5,-530.5 495.5,-530.5 495.5,-479.5 370.5,-479.5"/>
<text text-anchor="middle" x="433" y="-520.1" font-family="Consolas" font-size="8.00">CustomPizzaFactory</text>
<polyline fill="none" stroke="black" points="370.5,-513.5 495.5,-513.5 "/>
<text text-anchor="middle" x="433" y="-503.1" font-family="Consolas" font-size="8.00"> </text>
<polyline fill="none" stroke="black" points="370.5,-496.5 495.5,-496.5 "/>
<text text-anchor="start" x="378.5" y="-486.1" font-family="Consolas" font-size="8.00">+ PreparePizza() : Pizza</text>
</g>
<!-- CustomPizaDecorator&#45;&gt;CustomPizzaFactory -->
<g id="edge6" class="edge"><title>CustomPizaDecorator&#45;&gt;CustomPizzaFactory</title>
<path fill="none" stroke="black" d="M416.117,-585.351C419.192,-570.9 422.671,-554.545 425.67,-540.453"/>
<polygon fill="black" stroke="black" points="429.097,-541.161 427.755,-530.652 422.25,-539.705 429.097,-541.161"/>
<text text-anchor="middle" x="453" y="-560.6" font-family="Consolas" font-size="8.00">DecoratedPizza</text>
</g>
<!-- PizzaDecorator -->
<g id="node9" class="node"><title>PizzaDecorator</title>
<polygon fill="none" stroke="black" points="706.5,-0.5 706.5,-51.5 817.5,-51.5 817.5,-0.5 706.5,-0.5"/>
<text text-anchor="middle" x="762" y="-41.1" font-family="Consolas" font-size="8.00">PizzaDecorator</text>
<polyline fill="none" stroke="black" points="706.5,-34.5 817.5,-34.5 "/>
<text text-anchor="middle" x="762" y="-24.1" font-family="Consolas" font-size="8.00"> </text>
<polyline fill="none" stroke="black" points="706.5,-17.5 817.5,-17.5 "/>
<text text-anchor="start" x="714.5" y="-7.1" font-family="Consolas" font-size="8.00">+ PizzaDecorator() : </text>
</g>
<!-- CustomPizaDecorator&#45;&gt;PizzaDecorator -->
<g id="edge4" class="edge"><title>CustomPizaDecorator&#45;&gt;PizzaDecorator</title>
<path fill="none" stroke="black" d="M373.647,-585.399C357.61,-563.716 342,-535.129 342,-506 342,-506 342,-506 342,-158 342,-84.7097 578.021,-47.6855 696.203,-33.7404"/>
<polygon fill="none" stroke="black" points="696.696,-37.2068 706.227,-32.5796 695.891,-30.2533 696.696,-37.2068"/>
</g>
<!-- IPizzaFactory -->
<g id="node7" class="node"><title>IPizzaFactory</title>
<polygon fill="none" stroke="black" points="538.5,-373.5 538.5,-424.5 663.5,-424.5 663.5,-373.5 538.5,-373.5"/>
<text text-anchor="middle" x="601" y="-414.1" font-family="Consolas" font-size="8.00">IPizzaFactory</text>
<polyline fill="none" stroke="black" points="538.5,-407.5 663.5,-407.5 "/>
<text text-anchor="middle" x="601" y="-397.1" font-family="Consolas" font-size="8.00"> </text>
<polyline fill="none" stroke="black" points="538.5,-390.5 663.5,-390.5 "/>
<text text-anchor="start" x="546.5" y="-380.1" font-family="Consolas" font-size="8.00">+ PreparePizza() : Pizza</text>
</g>
<!-- CustomPizzaFactory&#45;&gt;IPizzaFactory -->
<g id="edge8" class="edge"><title>CustomPizzaFactory&#45;&gt;IPizzaFactory</title>
<path fill="none" stroke="black" stroke-dasharray="5,2" d="M472.814,-479.353C496.683,-464.577 527.207,-445.682 552.48,-430.036"/>
<polygon fill="none" stroke="black" points="554.521,-432.889 561.181,-424.65 550.836,-426.937 554.521,-432.889"/>
</g>
<!-- Dough -->
<g id="node5" class="node"><title>Dough</title>
<polygon fill="none" stroke="black" points="348,-843.5 348,-921.5 504,-921.5 504,-843.5 348,-843.5"/>
<text text-anchor="middle" x="426" y="-911.1" font-family="Consolas" font-size="8.00">Dough</text>
<polyline fill="none" stroke="black" points="348,-904.5 504,-904.5 "/>
<text text-anchor="start" x="356" y="-894.1" font-family="Consolas" font-size="8.00">&#45; Name : override string</text>
<text text-anchor="start" x="356" y="-885.1" font-family="Consolas" font-size="8.00">&#45; Description : override string</text>
<text text-anchor="start" x="356" y="-876.1" font-family="Consolas" font-size="8.00">&#45; Price : override double</text>
<text text-anchor="start" x="356" y="-867.1" font-family="Consolas" font-size="8.00">&#45; CostPrice : override double</text>
<polyline fill="none" stroke="black" points="348,-860.5 504,-860.5 "/>
<text text-anchor="middle" x="426" y="-850.1" font-family="Consolas" font-size="8.00"> </text>
</g>
<!-- Dough&#45;&gt;Ingredient -->
<g id="edge9" class="edge"><title>Dough&#45;&gt;Ingredient</title>
<path fill="none" stroke="black" d="M453.05,-843.256C459.597,-834 466.727,-823.92 473.711,-814.047"/>
<polygon fill="none" stroke="black" points="476.61,-816.009 479.527,-805.824 470.895,-811.967 476.61,-816.009"/>
</g>
<!-- Ingredient&#45;&gt;CustomPizaDecorator -->
<g id="edge3" class="edge"><title>Ingredient&#45;&gt;CustomPizaDecorator</title>
<path fill="none" stroke="black" d="M437.067,-709.219C431.409,-703.599 426.259,-697.518 422,-691 418.948,-686.329 416.548,-681.108 414.663,-675.707"/>
<polygon fill="none" stroke="black" points="414.548,-675.293 409.076,-670.597 411.307,-663.739 416.779,-668.436 414.548,-675.293"/>
<text text-anchor="middle" x="460.5" y="-684.6" font-family="Consolas" font-size="8.00">_extraIngredients</text>
</g>
<!-- Ingredient&#45;&gt;CustomPizzaFactory -->
<g id="edge7" class="edge"><title>Ingredient&#45;&gt;CustomPizzaFactory</title>
<path fill="none" stroke="black" d="M516.176,-709.348C517.005,-667.383 513.197,-605.473 489,-558 485.56,-551.251 480.869,-544.926 475.657,-539.172"/>
<polygon fill="none" stroke="black" points="475.608,-539.123 468.54,-537.694 467.14,-530.62 474.208,-532.049 475.608,-539.123"/>
<text text-anchor="middle" x="550.5" y="-622.6" font-family="Consolas" font-size="8.00">ExtraIngredients</text>
</g>
<!-- Pizza -->
<g id="node8" class="node"><title>Pizza</title>
<polygon fill="none" stroke="black" points="687,-97.5 687,-220.5 839,-220.5 839,-97.5 687,-97.5"/>
<text text-anchor="middle" x="763" y="-210.1" font-family="Consolas" font-size="8.00">Pizza</text>
<polyline fill="none" stroke="black" points="687,-203.5 839,-203.5 "/>
<text text-anchor="start" x="695" y="-193.1" font-family="Consolas" font-size="8.00">&#45; IsPrepared : bool</text>
<text text-anchor="start" x="695" y="-184.1" font-family="Consolas" font-size="8.00">&#45; IsCut : bool</text>
<text text-anchor="start" x="695" y="-175.1" font-family="Consolas" font-size="8.00">&#45; IsBaked : bool</text>
<text text-anchor="start" x="695" y="-166.1" font-family="Consolas" font-size="8.00">&#45; IsPackaged : bool</text>
<text text-anchor="start" x="695" y="-157.1" font-family="Consolas" font-size="8.00">&#45; Price : double</text>
<polyline fill="none" stroke="black" points="687,-150.5 839,-150.5 "/>
<text text-anchor="start" x="695" y="-140.1" font-family="Consolas" font-size="8.00">+ Prepare() : void</text>
<text text-anchor="start" x="695" y="-131.1" font-family="Consolas" font-size="8.00">+ Bake() : void</text>
<text text-anchor="start" x="695" y="-122.1" font-family="Consolas" font-size="8.00">+ Cut() : void</text>
<text text-anchor="start" x="695" y="-113.1" font-family="Consolas" font-size="8.00">+ Package() : void</text>
<text text-anchor="start" x="695" y="-104.1" font-family="Consolas" font-size="8.00">+ ToString() : override string</text>
</g>
<!-- Ingredient&#45;&gt;Pizza -->
<g id="edge10" class="edge"><title>Ingredient&#45;&gt;Pizza</title>
<path fill="none" stroke="black" d="M591.158,-754.395C678.854,-747.378 809,-720.894 809,-625.5 809,-625.5 809,-625.5 809,-292 809,-271.909 804.189,-251.008 797.679,-231.922"/>
<polygon fill="none" stroke="black" points="797.664,-231.88 791.851,-227.613 793.555,-220.606 799.368,-224.873 797.664,-231.88"/>
<text text-anchor="middle" x="834" y="-445.6" font-family="Consolas" font-size="8.00">Ingredients</text>
</g>
<!-- PizzaDelivery -->
<g id="node10" class="node"><title>PizzaDelivery</title>
<polygon fill="none" stroke="black" points="655.5,-267.5 655.5,-318.5 780.5,-318.5 780.5,-267.5 655.5,-267.5"/>
<text text-anchor="middle" x="718" y="-308.1" font-family="Consolas" font-size="8.00">PizzaDelivery</text>
<polyline fill="none" stroke="black" points="655.5,-301.5 780.5,-301.5 "/>
<text text-anchor="middle" x="718" y="-291.1" font-family="Consolas" font-size="8.00"> </text>
<polyline fill="none" stroke="black" points="655.5,-284.5 780.5,-284.5 "/>
<text text-anchor="start" x="663.5" y="-274.1" font-family="Consolas" font-size="8.00">+ DeliverPizza() : Pizza</text>
</g>
<!-- IPizzaFactory&#45;&gt;PizzaDelivery -->
<g id="edge13" class="edge"><title>IPizzaFactory&#45;&gt;PizzaDelivery</title>
<path fill="none" stroke="black" stroke-dasharray="5,2" d="M628.727,-373.353C644.784,-359.081 665.164,-340.965 682.397,-325.647"/>
<polygon fill="black" stroke="black" points="684.917,-328.09 690.066,-318.83 680.267,-322.858 684.917,-328.09"/>
<text text-anchor="middle" x="675" y="-348.6" font-family="Consolas" font-size="8.00">factory</text>
</g>
<!-- Pizza&#45;&gt;CustomPizzaFactory -->
<g id="edge5" class="edge"><title>Pizza&#45;&gt;CustomPizzaFactory</title>
<path fill="none" stroke="black" d="M689.568,-220.6C675.28,-232.793 660.542,-245.657 647,-258 593.113,-307.118 577.841,-317.977 530,-373 502.354,-404.796 474.056,-443.918 455.215,-471.089"/>
<polygon fill="black" stroke="black" points="452.234,-469.246 449.443,-479.467 457.998,-473.218 452.234,-469.246"/>
<text text-anchor="middle" x="573.5" y="-348.6" font-family="Consolas" font-size="8.00">BasePizza</text>
</g>
<!-- Pizza&#45;&gt;PizzaDecorator -->
<g id="edge11" class="edge"><title>Pizza&#45;&gt;PizzaDecorator</title>
<path fill="none" stroke="black" d="M729.697,-97.3526C727.394,-91.2843 725.425,-85.107 724,-79 722.627,-73.1167 723.526,-67.4004 725.8,-62.0427"/>
<polygon fill="none" stroke="black" points="725.899,-61.8787 725.581,-54.6745 732.109,-51.6105 732.427,-58.8146 725.899,-61.8787"/>
<text text-anchor="middle" x="756" y="-72.6" font-family="Consolas" font-size="8.00">decoratedPizza</text>
</g>
<!-- PizzaDecorator&#45;&gt;Pizza -->
<g id="edge12" class="edge"><title>PizzaDecorator&#45;&gt;Pizza</title>
<path fill="none" stroke="black" d="M780.109,-51.8693C783.362,-57.5652 786.266,-63.7815 788,-70 789.546,-75.5458 790.153,-81.2855 790.056,-87.053"/>
<polygon fill="none" stroke="black" points="786.534,-87.1674 789.172,-97.4286 793.509,-87.7621 786.534,-87.1674"/>
</g>
<!-- PizzaDelivery&#45;&gt;Pizza -->
<g id="edge14" class="edge"><title>PizzaDelivery&#45;&gt;Pizza</title>
<path fill="none" stroke="black" d="M726.359,-267.481C729.999,-256.802 734.471,-243.686 739.023,-230.333"/>
<polygon fill="black" stroke="black" points="742.427,-231.193 742.341,-220.599 735.802,-228.935 742.427,-231.193"/>
</g>
<!-- PizzaMargherita -->
<g id="node11" class="node"><title>PizzaMargherita</title>
<polygon fill="none" stroke="black" points="837,-258.5 837,-327.5 975,-327.5 975,-258.5 837,-258.5"/>
<text text-anchor="middle" x="906" y="-317.1" font-family="Consolas" font-size="8.00">PizzaMargherita</text>
<polyline fill="none" stroke="black" points="837,-310.5 975,-310.5 "/>
<text text-anchor="start" x="845" y="-300.1" font-family="Consolas" font-size="8.00">&#45; Price : override double</text>
<polyline fill="none" stroke="black" points="837,-293.5 975,-293.5 "/>
<text text-anchor="start" x="845" y="-283.1" font-family="Consolas" font-size="8.00">+ PizzaMargherita() : </text>
<text text-anchor="start" x="845" y="-274.1" font-family="Consolas" font-size="8.00">+ PizzaMargherita() : </text>
<text text-anchor="start" x="845" y="-265.1" font-family="Consolas" font-size="8.00">+ Prepare() : override void</text>
</g>
<!-- PizzaMargherita&#45;&gt;Pizza -->
<g id="edge15" class="edge"><title>PizzaMargherita&#45;&gt;Pizza</title>
<path fill="none" stroke="black" d="M869.545,-258.349C859.295,-248.888 847.769,-238.248 836.183,-227.554"/>
<polygon fill="black" stroke="black" points="838.297,-224.741 828.575,-220.53 833.549,-229.885 838.297,-224.741"/>
</g>
<!-- PizzaMargherita&#45;&gt;PizzaDecorator -->
<g id="edge16" class="edge"><title>PizzaMargherita&#45;&gt;PizzaDecorator</title>
<path fill="none" stroke="black" d="M902.15,-258.399C896.138,-217.369 881.52,-147.242 848,-97 837.997,-82.0066 823.808,-68.6174 809.832,-57.6643"/>
<polygon fill="none" stroke="black" points="811.753,-54.7295 801.662,-51.5031 807.539,-60.3185 811.753,-54.7295"/>
</g>
<!-- PizzaMargheritaFactory -->
<g id="node12" class="node"><title>PizzaMargheritaFactory</title>
<polygon fill="none" stroke="black" points="514,-470.5 514,-539.5 688,-539.5 688,-470.5 514,-470.5"/>
<text text-anchor="middle" x="601" y="-529.1" font-family="Consolas" font-size="8.00">PizzaMargheritaFactory</text>
<polyline fill="none" stroke="black" points="514,-522.5 688,-522.5 "/>
<text text-anchor="middle" x="601" y="-512.1" font-family="Consolas" font-size="8.00"> </text>
<polyline fill="none" stroke="black" points="514,-505.5 688,-505.5 "/>
<text text-anchor="start" x="522" y="-495.1" font-family="Consolas" font-size="8.00">&#45; PizzaMargheritaFactory() : static</text>
<text text-anchor="start" x="522" y="-486.1" font-family="Consolas" font-size="8.00">&#45; PizzaMargheritaFactory() : </text>
<text text-anchor="start" x="522" y="-477.1" font-family="Consolas" font-size="8.00">+ PreparePizza() : Pizza</text>
</g>
<!-- PizzaMargheritaFactory&#45;&gt;IPizzaFactory -->
<g id="edge18" class="edge"><title>PizzaMargheritaFactory&#45;&gt;IPizzaFactory</title>
<path fill="none" stroke="black" stroke-dasharray="5,2" d="M601,-470.234C601,-458.882 601,-446.201 601,-434.773"/>
<polygon fill="none" stroke="black" points="604.5,-434.703 601,-424.703 597.5,-434.703 604.5,-434.703"/>
</g>
<!-- PizzaMargheritaFactory&#45;&gt;PizzaMargheritaFactory -->
<g id="edge17" class="edge"><title>PizzaMargheritaFactory&#45;&gt;PizzaMargheritaFactory</title>
<path fill="none" stroke="black" d="M688.302,-514.084C698.992,-512.458 706,-509.43 706,-505 706,-502.162 703.124,-499.9 698.246,-498.212"/>
<polygon fill="black" stroke="black" points="698.833,-494.756 688.302,-495.916 697.258,-501.576 698.833,-494.756"/>
<text text-anchor="middle" x="724.5" y="-503.1" font-family="Consolas" font-size="8.00">Instance</text>
</g>
<!-- Program -->
<g id="node13" class="node"><title>Program</title>
<polygon fill="none" stroke="black" points="606,-585.5 606,-663.5 780,-663.5 780,-585.5 606,-585.5"/>
<text text-anchor="middle" x="693" y="-653.1" font-family="Consolas" font-size="8.00">Program</text>
<polyline fill="none" stroke="black" points="606,-646.5 780,-646.5 "/>
<text text-anchor="middle" x="693" y="-636.1" font-family="Consolas" font-size="8.00"> </text>
<polyline fill="none" stroke="black" points="606,-629.5 780,-629.5 "/>
<text text-anchor="start" x="614" y="-619.1" font-family="Consolas" font-size="8.00">&#45; Main() : void</text>
<text text-anchor="start" x="614" y="-610.1" font-family="Consolas" font-size="8.00">&#45; GoedkopePizza() : void</text>
<text text-anchor="start" x="614" y="-601.1" font-family="Consolas" font-size="8.00">&#45; DurePizza() : void</text>
<text text-anchor="start" x="614" y="-592.1" font-family="Consolas" font-size="8.00">&#45; PizzaMargheritaMetSalami() : void</text>
</g>
<!-- Program&#45;&gt;PizzaDelivery -->
<g id="edge20" class="edge"><title>Program&#45;&gt;PizzaDelivery</title>
<path fill="none" stroke="black" d="M727.287,-585.452C737.255,-572.043 746.841,-556.241 752,-540 775.214,-466.92 749.763,-376.651 732.061,-328.347"/>
<polygon fill="black" stroke="black" points="735.226,-326.82 728.422,-318.698 728.676,-329.29 735.226,-326.82"/>
</g>
<!-- Program&#45;&gt;PizzaMargheritaFactory -->
<g id="edge19" class="edge"><title>Program&#45;&gt;PizzaMargheritaFactory</title>
<path fill="none" stroke="black" d="M663.13,-585.351C653.661,-573.258 643.149,-559.831 633.504,-547.514"/>
<polygon fill="black" stroke="black" points="636.232,-545.32 627.312,-539.604 630.721,-549.636 636.232,-545.32"/>
</g>
<!-- Salami -->
<g id="node14" class="node"><title>Salami</title>
<polygon fill="none" stroke="black" points="522,-848 522,-917 678,-917 678,-848 522,-848"/>
<text text-anchor="middle" x="600" y="-906.6" font-family="Consolas" font-size="8.00">Salami</text>
<polyline fill="none" stroke="black" points="522,-900 678,-900 "/>
<text text-anchor="start" x="530" y="-889.6" font-family="Consolas" font-size="8.00">&#45; Name : override string</text>
<text text-anchor="start" x="530" y="-880.6" font-family="Consolas" font-size="8.00">&#45; Description : override string</text>
<text text-anchor="start" x="530" y="-871.6" font-family="Consolas" font-size="8.00">&#45; CostPrice : override double</text>
<polyline fill="none" stroke="black" points="522,-865 678,-865 "/>
<text text-anchor="middle" x="600" y="-854.6" font-family="Consolas" font-size="8.00"> </text>
</g>
<!-- Salami&#45;&gt;Ingredient -->
<g id="edge21" class="edge"><title>Salami&#45;&gt;Ingredient</title>
<path fill="none" stroke="black" d="M576.227,-847.89C568.859,-837.473 560.533,-825.701 552.399,-814.202"/>
<polygon fill="none" stroke="black" points="555.16,-812.044 546.528,-805.901 549.445,-816.086 555.16,-812.044"/>
</g>
<!-- SpicyTomatoSauce -->
<g id="node15" class="node"><title>SpicyTomatoSauce</title>
<polygon fill="none" stroke="black" points="870,-959.5 870,-1019.5 1026,-1019.5 1026,-959.5 870,-959.5"/>
<text text-anchor="middle" x="948" y="-1009.1" font-family="Consolas" font-size="8.00">SpicyTomatoSauce</text>
<polyline fill="none" stroke="black" points="870,-1002.5 1026,-1002.5 "/>
<text text-anchor="start" x="878" y="-992.1" font-family="Consolas" font-size="8.00">&#45; Name : override string</text>
<text text-anchor="start" x="878" y="-983.1" font-family="Consolas" font-size="8.00">&#45; Description : override string</text>
<polyline fill="none" stroke="black" points="870,-976.5 1026,-976.5 "/>
<text text-anchor="middle" x="948" y="-966.1" font-family="Consolas" font-size="8.00"> </text>
</g>
<!-- TomatoSauce -->
<g id="node17" class="node"><title>TomatoSauce</title>
<polygon fill="none" stroke="black" points="870,-848 870,-917 1026,-917 1026,-848 870,-848"/>
<text text-anchor="middle" x="948" y="-906.6" font-family="Consolas" font-size="8.00">TomatoSauce</text>
<polyline fill="none" stroke="black" points="870,-900 1026,-900 "/>
<text text-anchor="start" x="878" y="-889.6" font-family="Consolas" font-size="8.00">&#45; Name : override string</text>
<text text-anchor="start" x="878" y="-880.6" font-family="Consolas" font-size="8.00">&#45; Description : override string</text>
<text text-anchor="start" x="878" y="-871.6" font-family="Consolas" font-size="8.00">&#45; CostPrice : override double</text>
<polyline fill="none" stroke="black" points="870,-865 1026,-865 "/>
<text text-anchor="middle" x="948" y="-854.6" font-family="Consolas" font-size="8.00"> </text>
</g>
<!-- SpicyTomatoSauce&#45;&gt;TomatoSauce -->
<g id="edge22" class="edge"><title>SpicyTomatoSauce&#45;&gt;TomatoSauce</title>
<path fill="none" stroke="black" d="M948,-959.252C948,-949.319 948,-937.995 948,-927.184"/>
<polygon fill="none" stroke="black" points="951.5,-927.038 948,-917.038 944.5,-927.038 951.5,-927.038"/>
</g>
<!-- Tomato -->
<g id="node16" class="node"><title>Tomato</title>
<polygon fill="none" stroke="black" points="696,-848 696,-917 852,-917 852,-848 696,-848"/>
<text text-anchor="middle" x="774" y="-906.6" font-family="Consolas" font-size="8.00">Tomato</text>
<polyline fill="none" stroke="black" points="696,-900 852,-900 "/>
<text text-anchor="start" x="704" y="-889.6" font-family="Consolas" font-size="8.00">&#45; Name : override string</text>
<text text-anchor="start" x="704" y="-880.6" font-family="Consolas" font-size="8.00">&#45; Description : override string</text>
<text text-anchor="start" x="704" y="-871.6" font-family="Consolas" font-size="8.00">&#45; CostPrice : override double</text>
<polyline fill="none" stroke="black" points="696,-865 852,-865 "/>
<text text-anchor="middle" x="774" y="-854.6" font-family="Consolas" font-size="8.00"> </text>
</g>
<!-- Tomato&#45;&gt;Ingredient -->
<g id="edge23" class="edge"><title>Tomato&#45;&gt;Ingredient</title>
<path fill="none" stroke="black" d="M702.681,-847.89C671.087,-833.001 633.623,-815.345 600.369,-799.674"/>
<polygon fill="none" stroke="black" points="601.648,-796.407 591.11,-795.31 598.663,-802.739 601.648,-796.407"/>
</g>
<!-- TomatoSauce&#45;&gt;Ingredient -->
<g id="edge24" class="edge"><title>TomatoSauce&#45;&gt;Ingredient</title>
<path fill="none" stroke="black" d="M874.315,-847.82C869.841,-846.11 865.379,-844.487 861,-843 774.273,-813.544 672.118,-790.007 601.012,-775.331"/>
<polygon fill="none" stroke="black" points="601.689,-771.897 591.19,-773.319 600.284,-778.754 601.689,-771.897"/>
</g>
</g>
</svg>
