<?xml version="1.0" encoding="UTF-8" standalone="no"?>
<!DOCTYPE svg PUBLIC "-//W3C//DTD SVG 1.1//EN"
 "http://www.w3.org/Graphics/SVG/1.1/DTD/svg11.dtd">
<!-- Generated by graphviz version 2.38.0 (20140413.2041)
 -->
<!-- Title: PizzazzLibrary.Ingredients.Implementation.Dough Pages: 1 -->
<svg width="142pt" height="259pt"
 viewBox="0.00 0.00 142.00 259.00" xmlns="http://www.w3.org/2000/svg" xmlns:xlink="http://www.w3.org/1999/xlink">
<g id="graph0" class="graph" transform="scale(1 1) rotate(0) translate(4 255)">
<title>PizzazzLibrary.Ingredients.Implementation.Dough</title>
<polygon fill="white" stroke="none" points="-4,4 -4,-255 138,-255 138,4 -4,4"/>
<!-- Node1 -->
<g id="node1" class="node"><title>Node1</title>
<g id="a_node1"><a xlink:title=" ">
<polygon fill="#bfbfbf" stroke="black" points="0,-0.5 0,-101.5 134,-101.5 134,-0.5 0,-0.5"/>
<text text-anchor="start" x="8" y="-89.5" font-family="Helvetica,sans-Serif" font-size="10.00">PizzazzLibrary.Ingredients.</text>
<text text-anchor="middle" x="67" y="-78.5" font-family="Helvetica,sans-Serif" font-size="10.00">Implementation.Dough</text>
<polyline fill="none" stroke="black" points="0,-71.5 134,-71.5 "/>
<text text-anchor="start" x="8" y="-59.5" font-family="Helvetica,sans-Serif" font-size="10.00">+ Name</text>
<text text-anchor="start" x="8" y="-48.5" font-family="Helvetica,sans-Serif" font-size="10.00">+ Description</text>
<text text-anchor="start" x="8" y="-37.5" font-family="Helvetica,sans-Serif" font-size="10.00">+ Price</text>
<text text-anchor="start" x="8" y="-26.5" font-family="Helvetica,sans-Serif" font-size="10.00">+ CostPrice</text>
<polyline fill="none" stroke="black" points="0,-19.5 134,-19.5 "/>
<text text-anchor="middle" x="67" y="-7.5" font-family="Helvetica,sans-Serif" font-size="10.00"> </text>
</a>
</g>
</g>
<!-- Node2 -->
<g id="node2" class="node"><title>Node2</title>
<g id="a_node2"><a xlink:href="class_pizzazz_library_1_1_ingredients_1_1_interfaces_1_1_ingredient.html" target="_top" xlink:title=" ">
<polygon fill="white" stroke="black" points="30,-138.5 30,-250.5 104,-250.5 104,-138.5 30,-138.5"/>
<text text-anchor="middle" x="67" y="-238.5" font-family="Helvetica,sans-Serif" font-size="10.00">Ingredient</text>
<polyline fill="none" stroke="black" points="30,-231.5 104,-231.5 "/>
<text text-anchor="start" x="38" y="-219.5" font-family="Helvetica,sans-Serif" font-size="10.00">+ Name</text>
<text text-anchor="start" x="38" y="-208.5" font-family="Helvetica,sans-Serif" font-size="10.00">+ CostPrice</text>
<text text-anchor="start" x="38" y="-197.5" font-family="Helvetica,sans-Serif" font-size="10.00">+ Price</text>
<text text-anchor="start" x="38" y="-186.5" font-family="Helvetica,sans-Serif" font-size="10.00">+ Description</text>
<text text-anchor="start" x="38" y="-175.5" font-family="Helvetica,sans-Serif" font-size="10.00">+ Baked</text>
<polyline fill="none" stroke="black" points="30,-168.5 104,-168.5 "/>
<text text-anchor="start" x="38" y="-156.5" font-family="Helvetica,sans-Serif" font-size="10.00">+ ToString()</text>
<text text-anchor="start" x="38" y="-145.5" font-family="Helvetica,sans-Serif" font-size="10.00">~ Bake()</text>
</a>
</g>
</g>
<!-- Node2&#45;&gt;Node1 -->
<g id="edge1" class="edge"><title>Node2&#45;&gt;Node1</title>
<path fill="none" stroke="midnightblue" d="M67,-128.344C67,-119.375 67,-110.286 67,-101.658"/>
<polygon fill="none" stroke="midnightblue" points="63.5001,-128.387 67,-138.387 70.5001,-128.387 63.5001,-128.387"/>
</g>
</g>
</svg>
