<?xml version="1.0" encoding="UTF-8" standalone="no"?>
<!DOCTYPE svg PUBLIC "-//W3C//DTD SVG 1.1//EN"
 "http://www.w3.org/Graphics/SVG/1.1/DTD/svg11.dtd">
<!-- Generated by graphviz version 2.38.0 (20140413.2041)
 -->
<!-- Title: PizzazzLibrary.Implementation.PizzaDecorator Pages: 1 -->
<svg width="161pt" height="281pt"
 viewBox="0.00 0.00 161.00 281.00" xmlns="http://www.w3.org/2000/svg" xmlns:xlink="http://www.w3.org/1999/xlink">
<g id="graph0" class="graph" transform="scale(1 1) rotate(0) translate(4 277)">
<title>PizzazzLibrary.Implementation.PizzaDecorator</title>
<polygon fill="white" stroke="none" points="-4,4 -4,-277 157,-277 157,4 -4,4"/>
<!-- Node1 -->
<g id="node1" class="node"><title>Node1</title>
<g id="a_node1"><a xlink:title=" ">
<polygon fill="#bfbfbf" stroke="black" points="0,-0.5 0,-68.5 153,-68.5 153,-0.5 0,-0.5"/>
<text text-anchor="start" x="8" y="-56.5" font-family="Helvetica,sans-Serif" font-size="10.00">PizzazzLibrary.Implementation.</text>
<text text-anchor="middle" x="76.5" y="-45.5" font-family="Helvetica,sans-Serif" font-size="10.00">PizzaDecorator</text>
<polyline fill="none" stroke="black" points="0,-38.5 153,-38.5 "/>
<text text-anchor="start" x="8" y="-26.5" font-family="Helvetica,sans-Serif" font-size="10.00">+ decoratedPizza</text>
<polyline fill="none" stroke="black" points="0,-19.5 153,-19.5 "/>
<text text-anchor="start" x="8" y="-7.5" font-family="Helvetica,sans-Serif" font-size="10.00">+ PizzaDecorator()</text>
</a>
</g>
</g>
<!-- Node2 -->
<g id="node2" class="node"><title>Node2</title>
<g id="a_node2"><a xlink:href="class_pizzazz_library_1_1_implementation_1_1_pizza.html" target="_top" xlink:title="A generic pizza">
<polygon fill="white" stroke="black" points="38,-105.5 38,-272.5 115,-272.5 115,-105.5 38,-105.5"/>
<text text-anchor="middle" x="76.5" y="-260.5" font-family="Helvetica,sans-Serif" font-size="10.00">Pizza</text>
<polyline fill="none" stroke="black" points="38,-253.5 115,-253.5 "/>
<text text-anchor="start" x="46" y="-241.5" font-family="Helvetica,sans-Serif" font-size="10.00">+ Price</text>
<text text-anchor="start" x="46" y="-230.5" font-family="Helvetica,sans-Serif" font-size="10.00">+ Ingredients</text>
<text text-anchor="start" x="46" y="-219.5" font-family="Helvetica,sans-Serif" font-size="10.00">+ IsPrepared</text>
<text text-anchor="start" x="46" y="-208.5" font-family="Helvetica,sans-Serif" font-size="10.00">+ IsCut</text>
<text text-anchor="start" x="46" y="-197.5" font-family="Helvetica,sans-Serif" font-size="10.00">+ IsBaked</text>
<text text-anchor="start" x="46" y="-186.5" font-family="Helvetica,sans-Serif" font-size="10.00">+ IsPackaged</text>
<text text-anchor="start" x="46" y="-175.5" font-family="Helvetica,sans-Serif" font-size="10.00"># _ingredients</text>
<polyline fill="none" stroke="black" points="38,-168.5 115,-168.5 "/>
<text text-anchor="start" x="46" y="-156.5" font-family="Helvetica,sans-Serif" font-size="10.00">+ Prepare()</text>
<text text-anchor="start" x="46" y="-145.5" font-family="Helvetica,sans-Serif" font-size="10.00">+ Bake()</text>
<text text-anchor="start" x="46" y="-134.5" font-family="Helvetica,sans-Serif" font-size="10.00">+ Cut()</text>
<text text-anchor="start" x="46" y="-123.5" font-family="Helvetica,sans-Serif" font-size="10.00">+ Package()</text>
<text text-anchor="start" x="46" y="-112.5" font-family="Helvetica,sans-Serif" font-size="10.00">+ ToString()</text>
</a>
</g>
</g>
<!-- Node2&#45;&gt;Node1 -->
<g id="edge1" class="edge"><title>Node2&#45;&gt;Node1</title>
<path fill="none" stroke="midnightblue" d="M76.5,-94.8947C76.5,-85.6312 76.5,-76.7171 76.5,-68.7372"/>
<polygon fill="none" stroke="midnightblue" points="73.0001,-95.056 76.5,-105.056 80.0001,-95.056 73.0001,-95.056"/>
</g>
</g>
</svg>
