<?xml version="1.0" encoding="UTF-8" standalone="no"?>
<!DOCTYPE svg PUBLIC "-//W3C//DTD SVG 1.1//EN"
 "http://www.w3.org/Graphics/SVG/1.1/DTD/svg11.dtd">
<!-- Generated by graphviz version 2.38.0 (20140413.2041)
 -->
<!-- Title: PizzazzLibrary.Ingredients.Interfaces.Ingredient Pages: 1 -->
<!--zoomable 386 -->
<svg id="main" version="1.1" xmlns="http://www.w3.org/2000/svg" xmlns:xlink="http://www.w3.org/1999/xlink" xml:space="preserve" onload="init(evt)">
<style type="text/css"><![CDATA[
.edge:hover path { stroke: red; }
.edge:hover polygon { stroke: red; fill: red; }
]]></style>
<script type="text/javascript"><![CDATA[
var edges = document.getElementsByTagName('g');
if (edges && edges.length) {
  for (var i=0;i<edges.length;i++) {
    if (edges[i].id.substr(0,4)=='edge') {
      edges[i].setAttribute('class','edge');
    }
  }
}
]]></script>
        <defs>
                <circle id="rim" cx="0" cy="0" r="7"/>
                <circle id="rim2" cx="0" cy="0" r="3.5"/>
                <g id="zoomPlus">
                        <use xlink:href="#rim" fill="#404040">
                                <set attributeName="fill" to="#808080" begin="zoomplus.mouseover" end="zoomplus.mouseout"/>
                        </use>
                        <path d="M-4,0h8M0,-4v8" fill="none" stroke="white" stroke-width="1.5" pointer-events="none"/>
                </g>
                <g id="zoomMin">
                        <use xlink:href="#rim" fill="#404040">
                                <set attributeName="fill" to="#808080" begin="zoomminus.mouseover" end="zoomminus.mouseout"/>
                        </use>
                        <path d="M-4,0h8" fill="none" stroke="white" stroke-width="1.5" pointer-events="none"/>
                </g>
                <g id="dirArrow">
                        <path fill="none" stroke="white" stroke-width="1.5" d="M0,-3.0v7 M-2.5,-0.5L0,-3.0L2.5,-0.5"/>
                </g>
               <g id="resetDef">
                       <use xlink:href="#rim2" fill="#404040">
                               <set attributeName="fill" to="#808080" begin="reset.mouseover" end="reset.mouseout"/>
                       </use>
               </g>
        </defs>

<script type="text/javascript">
var viewWidth = 926;
var viewHeight = 386;
var sectionId = 'dynsection-0';
</script>
<script xlink:href="svgpan.js"/>
<svg id="graph" class="graph">
<g id="viewport">
<title>PizzazzLibrary.Ingredients.Interfaces.Ingredient</title>
<polygon fill="white" stroke="none" points="-4,4 -4,-382 922,-382 922,4 -4,4"/>
<!-- Node1 -->
<g id="node1" class="node"><title>Node1</title>
<g id="a_node1"><a xlink:title=" ">
<polygon fill="#bfbfbf" stroke="black" points="380,-254.5 380,-377.5 514,-377.5 514,-254.5 380,-254.5"/>
<text text-anchor="start" x="388" y="-365.5" font-family="Helvetica,sans-Serif" font-size="10.00">PizzazzLibrary.Ingredients.</text>
<text text-anchor="middle" x="447" y="-354.5" font-family="Helvetica,sans-Serif" font-size="10.00">Interfaces.Ingredient</text>
<polyline fill="none" stroke="black" points="380,-347.5 514,-347.5 "/>
<text text-anchor="start" x="388" y="-335.5" font-family="Helvetica,sans-Serif" font-size="10.00">+ Name</text>
<text text-anchor="start" x="388" y="-324.5" font-family="Helvetica,sans-Serif" font-size="10.00">+ CostPrice</text>
<text text-anchor="start" x="388" y="-313.5" font-family="Helvetica,sans-Serif" font-size="10.00">+ Price</text>
<text text-anchor="start" x="388" y="-302.5" font-family="Helvetica,sans-Serif" font-size="10.00">+ Description</text>
<text text-anchor="start" x="388" y="-291.5" font-family="Helvetica,sans-Serif" font-size="10.00">+ Baked</text>
<polyline fill="none" stroke="black" points="380,-284.5 514,-284.5 "/>
<text text-anchor="start" x="388" y="-272.5" font-family="Helvetica,sans-Serif" font-size="10.00">+ ToString()</text>
<text text-anchor="start" x="388" y="-261.5" font-family="Helvetica,sans-Serif" font-size="10.00">~ Bake()</text>
</a>
</g>
</g>
<!-- Node2 -->
<g id="node2" class="node"><title>Node2</title>
<g id="a_node2"><a xlink:href="class_pizzazz_library_1_1_ingredients_1_1_implementation_1_1_basil.html" target="_top" xlink:title=" ">
<polygon fill="white" stroke="black" points="0,-122 0,-212 134,-212 134,-122 0,-122"/>
<text text-anchor="start" x="8" y="-200" font-family="Helvetica,sans-Serif" font-size="10.00">PizzazzLibrary.Ingredients.</text>
<text text-anchor="middle" x="67" y="-189" font-family="Helvetica,sans-Serif" font-size="10.00">Implementation.Basil</text>
<polyline fill="none" stroke="black" points="0,-182 134,-182 "/>
<text text-anchor="start" x="8" y="-170" font-family="Helvetica,sans-Serif" font-size="10.00">+ Name</text>
<text text-anchor="start" x="8" y="-159" font-family="Helvetica,sans-Serif" font-size="10.00">+ Description</text>
<text text-anchor="start" x="8" y="-148" font-family="Helvetica,sans-Serif" font-size="10.00">+ CostPrice</text>
<polyline fill="none" stroke="black" points="0,-141 134,-141 "/>
<text text-anchor="middle" x="67" y="-129" font-family="Helvetica,sans-Serif" font-size="10.00"> </text>
</a>
</g>
</g>
<!-- Node1&#45;&gt;Node2 -->
<g id="edge1" class="edge"><title>Node1&#45;&gt;Node2</title>
<path fill="none" stroke="midnightblue" d="M369.942,-296.66C307.132,-280.252 217.031,-253.341 143,-218 139.152,-216.163 135.27,-214.157 131.404,-212.039"/>
<polygon fill="none" stroke="midnightblue" points="369.224,-300.09 379.781,-299.203 370.975,-293.313 369.224,-300.09"/>
</g>
<!-- Node3 -->
<g id="node3" class="node"><title>Node3</title>
<g id="a_node3"><a xlink:href="class_pizzazz_library_1_1_ingredients_1_1_implementation_1_1_cheese.html" target="_top" xlink:title=" ">
<polygon fill="white" stroke="black" points="152,-122 152,-212 286,-212 286,-122 152,-122"/>
<text text-anchor="start" x="160" y="-200" font-family="Helvetica,sans-Serif" font-size="10.00">PizzazzLibrary.Ingredients.</text>
<text text-anchor="middle" x="219" y="-189" font-family="Helvetica,sans-Serif" font-size="10.00">Implementation.Cheese</text>
<polyline fill="none" stroke="black" points="152,-182 286,-182 "/>
<text text-anchor="start" x="160" y="-170" font-family="Helvetica,sans-Serif" font-size="10.00">+ Name</text>
<text text-anchor="start" x="160" y="-159" font-family="Helvetica,sans-Serif" font-size="10.00">+ Description</text>
<text text-anchor="start" x="160" y="-148" font-family="Helvetica,sans-Serif" font-size="10.00">+ CostPrice</text>
<polyline fill="none" stroke="black" points="152,-141 286,-141 "/>
<text text-anchor="middle" x="219" y="-129" font-family="Helvetica,sans-Serif" font-size="10.00"> </text>
</a>
</g>
</g>
<!-- Node1&#45;&gt;Node3 -->
<g id="edge2" class="edge"><title>Node1&#45;&gt;Node3</title>
<path fill="none" stroke="midnightblue" d="M371.388,-267.039C346.963,-251.468 319.793,-234.065 295,-218 292.084,-216.11 289.108,-214.176 286.104,-212.22"/>
<polygon fill="none" stroke="midnightblue" points="369.59,-270.043 379.905,-272.465 373.352,-264.14 369.59,-270.043"/>
</g>
<!-- Node4 -->
<g id="node4" class="node"><title>Node4</title>
<g id="a_node4"><a xlink:href="class_pizzazz_library_1_1_ingredients_1_1_implementation_1_1_dough.html" target="_top" xlink:title=" ">
<polygon fill="white" stroke="black" points="304,-116.5 304,-217.5 438,-217.5 438,-116.5 304,-116.5"/>
<text text-anchor="start" x="312" y="-205.5" font-family="Helvetica,sans-Serif" font-size="10.00">PizzazzLibrary.Ingredients.</text>
<text text-anchor="middle" x="371" y="-194.5" font-family="Helvetica,sans-Serif" font-size="10.00">Implementation.Dough</text>
<polyline fill="none" stroke="black" points="304,-187.5 438,-187.5 "/>
<text text-anchor="start" x="312" y="-175.5" font-family="Helvetica,sans-Serif" font-size="10.00">+ Name</text>
<text text-anchor="start" x="312" y="-164.5" font-family="Helvetica,sans-Serif" font-size="10.00">+ Description</text>
<text text-anchor="start" x="312" y="-153.5" font-family="Helvetica,sans-Serif" font-size="10.00">+ Price</text>
<text text-anchor="start" x="312" y="-142.5" font-family="Helvetica,sans-Serif" font-size="10.00">+ CostPrice</text>
<polyline fill="none" stroke="black" points="304,-135.5 438,-135.5 "/>
<text text-anchor="middle" x="371" y="-123.5" font-family="Helvetica,sans-Serif" font-size="10.00"> </text>
</a>
</g>
</g>
<!-- Node1&#45;&gt;Node4 -->
<g id="edge3" class="edge"><title>Node1&#45;&gt;Node4</title>
<path fill="none" stroke="midnightblue" d="M411.04,-245.446C406.208,-236.1 401.332,-226.668 396.725,-217.758"/>
<polygon fill="none" stroke="midnightblue" points="407.947,-247.085 415.649,-254.361 414.166,-243.87 407.947,-247.085"/>
</g>
<!-- Node5 -->
<g id="node5" class="node"><title>Node5</title>
<g id="a_node5"><a xlink:href="class_pizzazz_library_1_1_ingredients_1_1_implementation_1_1_salami.html" target="_top" xlink:title=" ">
<polygon fill="white" stroke="black" points="456,-122 456,-212 590,-212 590,-122 456,-122"/>
<text text-anchor="start" x="464" y="-200" font-family="Helvetica,sans-Serif" font-size="10.00">PizzazzLibrary.Ingredients.</text>
<text text-anchor="middle" x="523" y="-189" font-family="Helvetica,sans-Serif" font-size="10.00">Implementation.Salami</text>
<polyline fill="none" stroke="black" points="456,-182 590,-182 "/>
<text text-anchor="start" x="464" y="-170" font-family="Helvetica,sans-Serif" font-size="10.00">+ Name</text>
<text text-anchor="start" x="464" y="-159" font-family="Helvetica,sans-Serif" font-size="10.00">+ Description</text>
<text text-anchor="start" x="464" y="-148" font-family="Helvetica,sans-Serif" font-size="10.00">+ CostPrice</text>
<polyline fill="none" stroke="black" points="456,-141 590,-141 "/>
<text text-anchor="middle" x="523" y="-129" font-family="Helvetica,sans-Serif" font-size="10.00"> </text>
</a>
</g>
</g>
<!-- Node1&#45;&gt;Node5 -->
<g id="edge4" class="edge"><title>Node1&#45;&gt;Node5</title>
<path fill="none" stroke="midnightblue" d="M482.991,-245.386C488.807,-234.137 494.685,-222.767 500.08,-212.332"/>
<polygon fill="none" stroke="midnightblue" points="479.834,-243.87 478.351,-254.361 486.053,-247.085 479.834,-243.87"/>
</g>
<!-- Node6 -->
<g id="node6" class="node"><title>Node6</title>
<g id="a_node6"><a xlink:href="class_pizzazz_library_1_1_ingredients_1_1_implementation_1_1_tomato.html" target="_top" xlink:title=" ">
<polygon fill="white" stroke="black" points="608,-122 608,-212 742,-212 742,-122 608,-122"/>
<text text-anchor="start" x="616" y="-200" font-family="Helvetica,sans-Serif" font-size="10.00">PizzazzLibrary.Ingredients.</text>
<text text-anchor="middle" x="675" y="-189" font-family="Helvetica,sans-Serif" font-size="10.00">Implementation.Tomato</text>
<polyline fill="none" stroke="black" points="608,-182 742,-182 "/>
<text text-anchor="start" x="616" y="-170" font-family="Helvetica,sans-Serif" font-size="10.00">+ Name</text>
<text text-anchor="start" x="616" y="-159" font-family="Helvetica,sans-Serif" font-size="10.00">+ Description</text>
<text text-anchor="start" x="616" y="-148" font-family="Helvetica,sans-Serif" font-size="10.00">+ CostPrice</text>
<polyline fill="none" stroke="black" points="608,-141 742,-141 "/>
<text text-anchor="middle" x="675" y="-129" font-family="Helvetica,sans-Serif" font-size="10.00"> </text>
</a>
</g>
</g>
<!-- Node1&#45;&gt;Node6 -->
<g id="edge5" class="edge"><title>Node1&#45;&gt;Node6</title>
<path fill="none" stroke="midnightblue" d="M522.612,-267.039C547.037,-251.468 574.207,-234.065 599,-218 601.916,-216.11 604.892,-214.176 607.896,-212.22"/>
<polygon fill="none" stroke="midnightblue" points="520.648,-264.14 514.095,-272.465 524.41,-270.043 520.648,-264.14"/>
</g>
<!-- Node7 -->
<g id="node7" class="node"><title>Node7</title>
<g id="a_node7"><a xlink:href="class_pizzazz_library_1_1_ingredients_1_1_implementation_1_1_tomato_sauce.html" target="_top" xlink:title=" ">
<polygon fill="white" stroke="black" points="760,-122 760,-212 906,-212 906,-122 760,-122"/>
<text text-anchor="start" x="768" y="-200" font-family="Helvetica,sans-Serif" font-size="10.00">PizzazzLibrary.Ingredients.</text>
<text text-anchor="middle" x="833" y="-189" font-family="Helvetica,sans-Serif" font-size="10.00">Implementation.TomatoSauce</text>
<polyline fill="none" stroke="black" points="760,-182 906,-182 "/>
<text text-anchor="start" x="768" y="-170" font-family="Helvetica,sans-Serif" font-size="10.00">+ Name</text>
<text text-anchor="start" x="768" y="-159" font-family="Helvetica,sans-Serif" font-size="10.00">+ Description</text>
<text text-anchor="start" x="768" y="-148" font-family="Helvetica,sans-Serif" font-size="10.00">+ CostPrice</text>
<polyline fill="none" stroke="black" points="760,-141 906,-141 "/>
<text text-anchor="middle" x="833" y="-129" font-family="Helvetica,sans-Serif" font-size="10.00"> </text>
</a>
</g>
</g>
<!-- Node1&#45;&gt;Node7 -->
<g id="edge6" class="edge"><title>Node1&#45;&gt;Node7</title>
<path fill="none" stroke="midnightblue" d="M524.042,-295.899C586.654,-279.089 676.492,-252.01 751,-218 754.944,-216.2 758.932,-214.25 762.916,-212.198"/>
<polygon fill="none" stroke="midnightblue" points="522.997,-292.555 514.233,-298.508 524.797,-299.32 522.997,-292.555"/>
</g>
<!-- Node8 -->
<g id="node8" class="node"><title>Node8</title>
<g id="a_node8"><a xlink:href="class_pizzazz_library_1_1_ingredients_1_1_implementation_1_1_spicy_tomato_sauce.html" target="_top" xlink:title=" ">
<polygon fill="white" stroke="black" points="748,-0.5 748,-79.5 918,-79.5 918,-0.5 748,-0.5"/>
<text text-anchor="start" x="756" y="-67.5" font-family="Helvetica,sans-Serif" font-size="10.00">PizzazzLibrary.Ingredients.</text>
<text text-anchor="middle" x="833" y="-56.5" font-family="Helvetica,sans-Serif" font-size="10.00">Implementation.SpicyTomatoSauce</text>
<polyline fill="none" stroke="black" points="748,-49.5 918,-49.5 "/>
<text text-anchor="start" x="756" y="-37.5" font-family="Helvetica,sans-Serif" font-size="10.00">+ Name</text>
<text text-anchor="start" x="756" y="-26.5" font-family="Helvetica,sans-Serif" font-size="10.00">+ Description</text>
<polyline fill="none" stroke="black" points="748,-19.5 918,-19.5 "/>
<text text-anchor="middle" x="833" y="-7.5" font-family="Helvetica,sans-Serif" font-size="10.00"> </text>
</a>
</g>
</g>
<!-- Node7&#45;&gt;Node8 -->
<g id="edge7" class="edge"><title>Node7&#45;&gt;Node8</title>
<path fill="none" stroke="midnightblue" d="M833,-111.732C833,-100.945 833,-89.8243 833,-79.6867"/>
<polygon fill="none" stroke="midnightblue" points="829.5,-111.93 833,-121.93 836.5,-111.93 829.5,-111.93"/>
</g>
</g>
</svg>
        <g id="navigator" transform="translate(0 0)" fill="#404254">
                <rect fill="#f2f5e9" fill-opacity="0.5" stroke="#606060" stroke-width=".5" x="0" y="0" width="60" height="60"/>
                <use id="zoomplus" xlink:href="#zoomPlus" x="17" y="9" onmousedown="handleZoom(evt,'in')"/>
                <use id="zoomminus" xlink:href="#zoomMin" x="42" y="9" onmousedown="handleZoom(evt,'out')"/>
                <use id="reset" xlink:href="#resetDef" x="30" y="36" onmousedown="handleReset()"/>
                <g id="arrowUp" xlink:href="#dirArrow" transform="translate(30 24)" onmousedown="handlePan(0,-1)">
                  <use xlink:href="#rim" fill="#404040">
                        <set attributeName="fill" to="#808080" begin="arrowUp.mouseover" end="arrowUp.mouseout"/>
                  </use>
                  <path fill="none" stroke="white" stroke-width="1.5" d="M0,-3.0v7 M-2.5,-0.5L0,-3.0L2.5,-0.5"/>
                </g>
                <g id="arrowRight" xlink:href="#dirArrow" transform="rotate(90) translate(36 -43)" onmousedown="handlePan(1,0)">
                  <use xlink:href="#rim" fill="#404040">
                        <set attributeName="fill" to="#808080" begin="arrowRight.mouseover" end="arrowRight.mouseout"/>
                  </use>
                  <path fill="none" stroke="white" stroke-width="1.5" d="M0,-3.0v7 M-2.5,-0.5L0,-3.0L2.5,-0.5"/>
                </g>
                <g id="arrowDown" xlink:href="#dirArrow" transform="rotate(180) translate(-30 -48)" onmousedown="handlePan(0,1)">
                  <use xlink:href="#rim" fill="#404040">
                        <set attributeName="fill" to="#808080" begin="arrowDown.mouseover" end="arrowDown.mouseout"/>
                  </use>
                  <path fill="none" stroke="white" stroke-width="1.5" d="M0,-3.0v7 M-2.5,-0.5L0,-3.0L2.5,-0.5"/>
                </g>
                <g id="arrowLeft" xlink:href="#dirArrow" transform="rotate(270) translate(-36 17)" onmousedown="handlePan(-1,0)">
                  <use xlink:href="#rim" fill="#404040">
                        <set attributeName="fill" to="#808080" begin="arrowLeft.mouseover" end="arrowLeft.mouseout"/>
                  </use>
                  <path fill="none" stroke="white" stroke-width="1.5" d="M0,-3.0v7 M-2.5,-0.5L0,-3.0L2.5,-0.5"/>
                </g>
        </g>
        <svg viewBox="0 0 15 15" width="100%" height="30px" preserveAspectRatio="xMaxYMin meet">
         <g id="arrow_out" transform="scale(0.3 0.3)">
          <a xlink:href="class_pizzazz_library_1_1_ingredients_1_1_interfaces_1_1_ingredient__inherit__graph_org.svg" target="_base">
           <rect id="button" ry="5" rx="5" y="6" x="6" height="38" width="38"
                fill="#f2f5e9" fill-opacity="0.5" stroke="#606060" stroke-width="1.0"/>
           <path id="arrow"
             d="M 11.500037,31.436501 C 11.940474,20.09759 22.043105,11.32322 32.158766,21.979434 L 37.068811,17.246167 C 37.068811,17.246167 37.088388,32 37.088388,32 L 22.160133,31.978069 C 22.160133,31.978069 26.997745,27.140456 26.997745,27.140456 C 18.528582,18.264221 13.291696,25.230495 11.500037,31.436501 z"
             style="fill:#404040;"/>
          </a>
         </g>
        </svg>
</svg>
