<?xml version="1.0" encoding="UTF-8" standalone="no"?>
<!DOCTYPE svg PUBLIC "-//W3C//DTD SVG 1.1//EN"
 "http://www.w3.org/Graphics/SVG/1.1/DTD/svg11.dtd">
<!-- Generated by graphviz version 2.38.0 (20140413.2041)
 -->
<!-- Title: PizzazzLibrary.Implementation.PizzaMargheritaFactory.PreparePizza Pages: 1 -->
<svg width="543pt" height="61pt"
 viewBox="0.00 0.00 543.00 61.00" xmlns="http://www.w3.org/2000/svg" xmlns:xlink="http://www.w3.org/1999/xlink">
<g id="graph0" class="graph" transform="scale(1 1) rotate(0) translate(4 57)">
<title>PizzazzLibrary.Implementation.PizzaMargheritaFactory.PreparePizza</title>
<polygon fill="white" stroke="none" points="-4,4 -4,-57 539,-57 539,4 -4,4"/>
<!-- Node1 -->
<g id="node1" class="node"><title>Node1</title>
<g id="a_node1"><a xlink:title=" ">
<polygon fill="#bfbfbf" stroke="black" points="353,-22.5 353,-52.5 535,-52.5 535,-22.5 353,-22.5"/>
<text text-anchor="start" x="361" y="-40.5" font-family="Helvetica,sans-Serif" font-size="10.00">PizzazzLibrary.Implementation.</text>
<text text-anchor="middle" x="444" y="-29.5" font-family="Helvetica,sans-Serif" font-size="10.00">PizzaMargheritaFactory.PreparePizza</text>
</a>
</g>
</g>
<!-- Node2 -->
<g id="node2" class="node"><title>Node2</title>
<g id="a_node2"><a xlink:href="class_pizzazz_1_1_program.html#a55d55eef333d0da99e7bb5e2cd1516af" target="_top" xlink:title=" ">
<polygon fill="white" stroke="black" points="0,-28 0,-47 116,-47 116,-28 0,-28"/>
<text text-anchor="middle" x="58" y="-35" font-family="Helvetica,sans-Serif" font-size="10.00">Pizzazz.Program.Main</text>
</a>
</g>
</g>
<!-- Node1&#45;&gt;Node2 -->
<g id="edge1" class="edge"><title>Node1&#45;&gt;Node2</title>
<path fill="none" stroke="midnightblue" d="M342.656,-40.1048C333.979,-40.2647 325.335,-40.4008 317,-40.5 243.672,-41.3728 225.324,-41.6823 152,-40.5 140.37,-40.3125 127.926,-39.9931 116.045,-39.6309"/>
<polygon fill="midnightblue" stroke="midnightblue" points="342.911,-43.6007 352.841,-39.9071 342.775,-36.602 342.911,-43.6007"/>
</g>
<!-- Node3 -->
<g id="node3" class="node"><title>Node3</title>
<g id="a_node3"><a xlink:href="class_pizzazz_1_1_program.html#a661bdea260afbfb4c3ba43bbc5d5d2d7" target="_top" xlink:title=" ">
<polygon fill="white" stroke="black" points="152,-0.5 152,-30.5 317,-30.5 317,-0.5 152,-0.5"/>
<text text-anchor="start" x="160" y="-18.5" font-family="Helvetica,sans-Serif" font-size="10.00">Pizzazz.Program.PizzaMargherita</text>
<text text-anchor="middle" x="234.5" y="-7.5" font-family="Helvetica,sans-Serif" font-size="10.00">MetSalami</text>
</a>
</g>
</g>
<!-- Node1&#45;&gt;Node3 -->
<g id="edge2" class="edge"><title>Node1&#45;&gt;Node3</title>
<path fill="none" stroke="midnightblue" d="M342.79,-26.8754C334.159,-25.9603 325.496,-25.0417 317.039,-24.1451"/>
<polygon fill="midnightblue" stroke="midnightblue" points="342.579,-30.3725 352.893,-27.9465 343.318,-23.4115 342.579,-30.3725"/>
</g>
<!-- Node3&#45;&gt;Node2 -->
<g id="edge3" class="edge"><title>Node3&#45;&gt;Node2</title>
<path fill="none" stroke="midnightblue" d="M141.678,-27.0764C133.002,-28.1702 124.386,-29.2565 116.176,-30.2916"/>
<polygon fill="midnightblue" stroke="midnightblue" points="142.386,-30.5149 151.87,-25.7915 141.511,-23.5699 142.386,-30.5149"/>
</g>
</g>
</svg>
