<?xml version="1.0" encoding="UTF-8" standalone="no"?>
<!DOCTYPE svg PUBLIC "-//W3C//DTD SVG 1.1//EN"
 "http://www.w3.org/Graphics/SVG/1.1/DTD/svg11.dtd">
<!-- Generated by graphviz version 2.38.0 (20140413.2041)
 -->
<!-- Title: PizzazzLibrary.Pizza.Implementation.CustomPizzaFactory Pages: 1 -->
<svg width="189pt" height="182pt"
 viewBox="0.00 0.00 189.00 182.00" xmlns="http://www.w3.org/2000/svg" xmlns:xlink="http://www.w3.org/1999/xlink">
<g id="graph0" class="graph" transform="scale(1 1) rotate(0) translate(4 178)">
<title>PizzazzLibrary.Pizza.Implementation.CustomPizzaFactory</title>
<polygon fill="white" stroke="none" points="-4,4 -4,-178 185,-178 185,4 -4,4"/>
<!-- Node1 -->
<g id="node1" class="node"><title>Node1</title>
<g id="a_node1"><a xlink:title=" ">
<polygon fill="#bfbfbf" stroke="black" points="0,-0.5 0,-79.5 181,-79.5 181,-0.5 0,-0.5"/>
<text text-anchor="start" x="8" y="-67.5" font-family="Helvetica,sans-Serif" font-size="10.00">PizzazzLibrary.Pizza.Implementation.</text>
<text text-anchor="middle" x="90.5" y="-56.5" font-family="Helvetica,sans-Serif" font-size="10.00">CustomPizzaFactory</text>
<polyline fill="none" stroke="black" points="0,-49.5 181,-49.5 "/>
<text text-anchor="start" x="8" y="-37.5" font-family="Helvetica,sans-Serif" font-size="10.00">+ BasePizza</text>
<text text-anchor="start" x="8" y="-26.5" font-family="Helvetica,sans-Serif" font-size="10.00">+ ExtraIngredients</text>
<polyline fill="none" stroke="black" points="0,-19.5 181,-19.5 "/>
<text text-anchor="start" x="8" y="-7.5" font-family="Helvetica,sans-Serif" font-size="10.00">+ PreparePizza()</text>
</a>
</g>
</g>
<!-- Node2 -->
<g id="node2" class="node"><title>Node2</title>
<g id="a_node2"><a xlink:href="interface_pizzazz_library_1_1_pizza_1_1_interfaces_1_1_i_pizza_factory.html" target="_top" xlink:title=" ">
<polygon fill="white" stroke="black" points="45.5,-116.5 45.5,-173.5 135.5,-173.5 135.5,-116.5 45.5,-116.5"/>
<text text-anchor="middle" x="90.5" y="-161.5" font-family="Helvetica,sans-Serif" font-size="10.00">IPizzaFactory</text>
<polyline fill="none" stroke="black" points="45.5,-154.5 135.5,-154.5 "/>
<text text-anchor="middle" x="90.5" y="-142.5" font-family="Helvetica,sans-Serif" font-size="10.00"> </text>
<polyline fill="none" stroke="black" points="45.5,-135.5 135.5,-135.5 "/>
<text text-anchor="start" x="53.5" y="-123.5" font-family="Helvetica,sans-Serif" font-size="10.00">+ PreparePizza()</text>
</a>
</g>
</g>
<!-- Node2&#45;&gt;Node1 -->
<g id="edge1" class="edge"><title>Node2&#45;&gt;Node1</title>
<path fill="none" stroke="midnightblue" d="M90.5,-106.156C90.5,-97.4733 90.5,-88.2318 90.5,-79.5205"/>
<polygon fill="none" stroke="midnightblue" points="87.0001,-106.398 90.5,-116.398 94.0001,-106.398 87.0001,-106.398"/>
</g>
</g>
</svg>
