<?xml version="1.0" encoding="UTF-8" standalone="no"?>
<!DOCTYPE svg PUBLIC "-//W3C//DTD SVG 1.1//EN"
 "http://www.w3.org/Graphics/SVG/1.1/DTD/svg11.dtd">
<!-- Generated by graphviz version 2.38.0 (20140413.2041)
 -->
<!-- Title: Pizzazz.Program.Main Pages: 1 -->
<!--zoomable 149 -->
<svg id="main" version="1.1" xmlns="http://www.w3.org/2000/svg" xmlns:xlink="http://www.w3.org/1999/xlink" xml:space="preserve" onload="init(evt)">
<style type="text/css"><![CDATA[
.edge:hover path { stroke: red; }
.edge:hover polygon { stroke: red; fill: red; }
]]></style>
<script type="text/javascript"><![CDATA[
var edges = document.getElementsByTagName('g');
if (edges && edges.length) {
  for (var i=0;i<edges.length;i++) {
    if (edges[i].id.substr(0,4)=='edge') {
      edges[i].setAttribute('class','edge');
    }
  }
}
]]></script>
        <defs>
                <circle id="rim" cx="0" cy="0" r="7"/>
                <circle id="rim2" cx="0" cy="0" r="3.5"/>
                <g id="zoomPlus">
                        <use xlink:href="#rim" fill="#404040">
                                <set attributeName="fill" to="#808080" begin="zoomplus.mouseover" end="zoomplus.mouseout"/>
                        </use>
                        <path d="M-4,0h8M0,-4v8" fill="none" stroke="white" stroke-width="1.5" pointer-events="none"/>
                </g>
                <g id="zoomMin">
                        <use xlink:href="#rim" fill="#404040">
                                <set attributeName="fill" to="#808080" begin="zoomminus.mouseover" end="zoomminus.mouseout"/>
                        </use>
                        <path d="M-4,0h8" fill="none" stroke="white" stroke-width="1.5" pointer-events="none"/>
                </g>
                <g id="dirArrow">
                        <path fill="none" stroke="white" stroke-width="1.5" d="M0,-3.0v7 M-2.5,-0.5L0,-3.0L2.5,-0.5"/>
                </g>
               <g id="resetDef">
                       <use xlink:href="#rim2" fill="#404040">
                               <set attributeName="fill" to="#808080" begin="reset.mouseover" end="reset.mouseout"/>
                       </use>
               </g>
        </defs>

<script type="text/javascript">
var viewWidth = 732;
var viewHeight = 149;
var sectionId = 'dynsection-4';
</script>
<script xlink:href="svgpan.js"/>
<svg id="graph" class="graph">
<g id="viewport">
<title>Pizzazz.Program.Main</title>
<polygon fill="white" stroke="none" points="-4,4 -4,-145.201 728,-145.201 728,4 -4,4"/>
<!-- Node1 -->
<g id="node1" class="node"><title>Node1</title>
<g id="a_node1"><a xlink:title=" ">
<polygon fill="#bfbfbf" stroke="black" points="0,-52.7013 0,-71.7013 116,-71.7013 116,-52.7013 0,-52.7013"/>
<text text-anchor="middle" x="58" y="-59.7013" font-family="Helvetica,sans-Serif" font-size="10.00">Pizzazz.Program.Main</text>
</a>
</g>
</g>
<!-- Node2 -->
<g id="node2" class="node"><title>Node2</title>
<g id="a_node2"><a xlink:href="class_pizzazz_1_1_program.html#a1297be8d0a88a676b4b24e4af36a5c79" target="_top" xlink:title=" ">
<polygon fill="white" stroke="black" points="164.5,-121.701 164.5,-140.701 304.5,-140.701 304.5,-121.701 164.5,-121.701"/>
<text text-anchor="middle" x="234.5" y="-128.701" font-family="Helvetica,sans-Serif" font-size="10.00">Pizzazz.Program.DurePizza</text>
</a>
</g>
</g>
<!-- Node1&#45;&gt;Node2 -->
<g id="edge1" class="edge"><title>Node1&#45;&gt;Node2</title>
<path fill="none" stroke="midnightblue" d="M73.8808,-71.8073C91.7718,-82.9702 123.019,-101.254 152,-112.201 158.821,-114.778 166.1,-117.074 173.395,-119.102"/>
<polygon fill="midnightblue" stroke="midnightblue" points="172.751,-122.551 183.312,-121.7 174.526,-115.78 172.751,-122.551"/>
</g>
<!-- Node3 -->
<g id="node3" class="node"><title>Node3</title>
<g id="a_node3"><a xlink:href="class_pizzazz_1_1_program.html#ae8bf38ff433befa82d40a0204f869103" target="_top" xlink:title=" ">
<polygon fill="white" stroke="black" points="165,-72.2013 165,-102.201 304,-102.201 304,-72.2013 165,-72.2013"/>
<text text-anchor="start" x="173" y="-90.2013" font-family="Helvetica,sans-Serif" font-size="10.00">Pizzazz.Program.Goedkope</text>
<text text-anchor="middle" x="234.5" y="-79.2013" font-family="Helvetica,sans-Serif" font-size="10.00">Pizza</text>
</a>
</g>
</g>
<!-- Node1&#45;&gt;Node3 -->
<g id="edge2" class="edge"><title>Node1&#45;&gt;Node3</title>
<path fill="none" stroke="midnightblue" d="M116.138,-70.3872C128.573,-72.1688 141.939,-74.0837 155.038,-75.9603"/>
<polygon fill="midnightblue" stroke="midnightblue" points="154.588,-79.4314 164.983,-77.3851 155.58,-72.5022 154.588,-79.4314"/>
</g>
<!-- Node7 -->
<g id="node7" class="node"><title>Node7</title>
<g id="a_node7"><a xlink:href="class_pizzazz_1_1_program.html#a661bdea260afbfb4c3ba43bbc5d5d2d7" target="_top" xlink:title=" ">
<polygon fill="white" stroke="black" points="152,-23.2013 152,-53.2013 317,-53.2013 317,-23.2013 152,-23.2013"/>
<text text-anchor="start" x="160" y="-41.2013" font-family="Helvetica,sans-Serif" font-size="10.00">Pizzazz.Program.PizzaMargherita</text>
<text text-anchor="middle" x="234.5" y="-30.2013" font-family="Helvetica,sans-Serif" font-size="10.00">MetSalami</text>
</a>
</g>
</g>
<!-- Node1&#45;&gt;Node7 -->
<g id="edge6" class="edge"><title>Node1&#45;&gt;Node7</title>
<path fill="none" stroke="midnightblue" d="M116.138,-54.3428C124.443,-53.2005 133.163,-52.0012 141.941,-50.7939"/>
<polygon fill="midnightblue" stroke="midnightblue" points="142.428,-54.2599 151.858,-49.43 141.474,-47.3252 142.428,-54.2599"/>
</g>
<!-- Node8 -->
<g id="node8" class="node"><title>Node8</title>
<g id="a_node8"><a xlink:href="class_pizzazz_library_1_1_implementation_1_1_pizza_margherita_factory.html#aec407cf7ac8bf57aa19efebb8a6f083c" target="_top" xlink:title=" ">
<polygon fill="white" stroke="black" points="353,-1.20128 353,-31.2013 535,-31.2013 535,-1.20128 353,-1.20128"/>
<text text-anchor="start" x="361" y="-19.2013" font-family="Helvetica,sans-Serif" font-size="10.00">PizzazzLibrary.Implementation.</text>
<text text-anchor="middle" x="444" y="-8.20128" font-family="Helvetica,sans-Serif" font-size="10.00">PizzaMargheritaFactory.PreparePizza</text>
</a>
</g>
</g>
<!-- Node1&#45;&gt;Node8 -->
<g id="edge8" class="edge"><title>Node1&#45;&gt;Node8</title>
<path fill="none" stroke="midnightblue" d="M72.0245,-52.6864C89.2885,-40.7222 121.174,-20.8253 152,-13.2013 214.114,2.16124 285.991,1.58953 342.768,-2.91054"/>
<polygon fill="midnightblue" stroke="midnightblue" points="342.567,-6.40594 352.826,-3.761 343.157,0.569167 342.567,-6.40594"/>
</g>
<!-- Node4 -->
<g id="node4" class="node"><title>Node4</title>
<g id="a_node4"><a xlink:href="class_pizzazz_1_1_pizza_delivery.html#a607ac3d199d74f438f4199436ac371f0" target="_top" xlink:title="Delivers a pizza which is optionally cut.">
<polygon fill="white" stroke="black" points="371.5,-72.2013 371.5,-102.201 516.5,-102.201 516.5,-72.2013 371.5,-72.2013"/>
<text text-anchor="start" x="379.5" y="-90.2013" font-family="Helvetica,sans-Serif" font-size="10.00">Pizzazz.PizzaDelivery.Deliver</text>
<text text-anchor="middle" x="444" y="-79.2013" font-family="Helvetica,sans-Serif" font-size="10.00">Pizza</text>
</a>
</g>
</g>
<!-- Node3&#45;&gt;Node4 -->
<g id="edge3" class="edge"><title>Node3&#45;&gt;Node4</title>
<path fill="none" stroke="midnightblue" d="M304.018,-87.2013C322.33,-87.2013 342.303,-87.2013 361.25,-87.2013"/>
<polygon fill="midnightblue" stroke="midnightblue" points="361.351,-90.7014 371.351,-87.2013 361.351,-83.7014 361.351,-90.7014"/>
</g>
<!-- Node5 -->
<g id="node5" class="node"><title>Node5</title>
<g id="a_node5"><a xlink:href="class_pizzazz_library_1_1_implementation_1_1_pizza.html#a5b1b0a742974af9c94be7f83dd18255a" target="_top" xlink:title=" ">
<polygon fill="white" stroke="black" points="571,-97.2013 571,-127.201 724,-127.201 724,-97.2013 571,-97.2013"/>
<text text-anchor="start" x="579" y="-115.201" font-family="Helvetica,sans-Serif" font-size="10.00">PizzazzLibrary.Implementation.</text>
<text text-anchor="middle" x="647.5" y="-104.201" font-family="Helvetica,sans-Serif" font-size="10.00">Pizza.Bake</text>
</a>
</g>
</g>
<!-- Node4&#45;&gt;Node5 -->
<g id="edge4" class="edge"><title>Node4&#45;&gt;Node5</title>
<path fill="none" stroke="midnightblue" d="M516.609,-96.0857C530.855,-97.8532 545.951,-99.7262 560.618,-101.546"/>
<polygon fill="midnightblue" stroke="midnightblue" points="560.332,-105.037 570.687,-102.795 561.194,-98.0905 560.332,-105.037"/>
</g>
<!-- Node6 -->
<g id="node6" class="node"><title>Node6</title>
<g id="a_node6"><a xlink:href="interface_pizzazz_library_1_1_interfaces_1_1_i_pizza_factory.html#a20183671e617d58bac4f5b315b9a5289" target="_top" xlink:title=" ">
<polygon fill="white" stroke="black" points="578.5,-48.2013 578.5,-78.2013 716.5,-78.2013 716.5,-48.2013 578.5,-48.2013"/>
<text text-anchor="start" x="586.5" y="-66.2013" font-family="Helvetica,sans-Serif" font-size="10.00">PizzazzLibrary.Interfaces.</text>
<text text-anchor="middle" x="647.5" y="-55.2013" font-family="Helvetica,sans-Serif" font-size="10.00">IPizzaFactory.PreparePizza</text>
</a>
</g>
</g>
<!-- Node4&#45;&gt;Node6 -->
<g id="edge5" class="edge"><title>Node4&#45;&gt;Node6</title>
<path fill="none" stroke="midnightblue" d="M516.609,-78.6722C533.44,-76.6674 551.459,-74.5212 568.554,-72.4852"/>
<polygon fill="midnightblue" stroke="midnightblue" points="568.981,-75.9592 578.496,-71.301 568.153,-69.0083 568.981,-75.9592"/>
</g>
<!-- Node7&#45;&gt;Node8 -->
<g id="edge7" class="edge"><title>Node7&#45;&gt;Node8</title>
<path fill="none" stroke="midnightblue" d="M317.212,-29.5379C325.608,-28.6477 334.205,-27.7361 342.771,-26.828"/>
<polygon fill="midnightblue" stroke="midnightblue" points="343.223,-30.2998 352.798,-25.7649 342.485,-23.3388 343.223,-30.2998"/>
</g>
</g>
</svg>
        <g id="navigator" transform="translate(0 0)" fill="#404254">
                <rect fill="#f2f5e9" fill-opacity="0.5" stroke="#606060" stroke-width=".5" x="0" y="0" width="60" height="60"/>
                <use id="zoomplus" xlink:href="#zoomPlus" x="17" y="9" onmousedown="handleZoom(evt,'in')"/>
                <use id="zoomminus" xlink:href="#zoomMin" x="42" y="9" onmousedown="handleZoom(evt,'out')"/>
                <use id="reset" xlink:href="#resetDef" x="30" y="36" onmousedown="handleReset()"/>
                <g id="arrowUp" xlink:href="#dirArrow" transform="translate(30 24)" onmousedown="handlePan(0,-1)">
                  <use xlink:href="#rim" fill="#404040">
                        <set attributeName="fill" to="#808080" begin="arrowUp.mouseover" end="arrowUp.mouseout"/>
                  </use>
                  <path fill="none" stroke="white" stroke-width="1.5" d="M0,-3.0v7 M-2.5,-0.5L0,-3.0L2.5,-0.5"/>
                </g>
                <g id="arrowRight" xlink:href="#dirArrow" transform="rotate(90) translate(36 -43)" onmousedown="handlePan(1,0)">
                  <use xlink:href="#rim" fill="#404040">
                        <set attributeName="fill" to="#808080" begin="arrowRight.mouseover" end="arrowRight.mouseout"/>
                  </use>
                  <path fill="none" stroke="white" stroke-width="1.5" d="M0,-3.0v7 M-2.5,-0.5L0,-3.0L2.5,-0.5"/>
                </g>
                <g id="arrowDown" xlink:href="#dirArrow" transform="rotate(180) translate(-30 -48)" onmousedown="handlePan(0,1)">
                  <use xlink:href="#rim" fill="#404040">
                        <set attributeName="fill" to="#808080" begin="arrowDown.mouseover" end="arrowDown.mouseout"/>
                  </use>
                  <path fill="none" stroke="white" stroke-width="1.5" d="M0,-3.0v7 M-2.5,-0.5L0,-3.0L2.5,-0.5"/>
                </g>
                <g id="arrowLeft" xlink:href="#dirArrow" transform="rotate(270) translate(-36 17)" onmousedown="handlePan(-1,0)">
                  <use xlink:href="#rim" fill="#404040">
                        <set attributeName="fill" to="#808080" begin="arrowLeft.mouseover" end="arrowLeft.mouseout"/>
                  </use>
                  <path fill="none" stroke="white" stroke-width="1.5" d="M0,-3.0v7 M-2.5,-0.5L0,-3.0L2.5,-0.5"/>
                </g>
        </g>
        <svg viewBox="0 0 15 15" width="100%" height="30px" preserveAspectRatio="xMaxYMin meet">
         <g id="arrow_out" transform="scale(0.3 0.3)">
          <a xlink:href="class_pizzazz_1_1_program_a55d55eef333d0da99e7bb5e2cd1516af_cgraph_org.svg" target="_base">
           <rect id="button" ry="5" rx="5" y="6" x="6" height="38" width="38"
                fill="#f2f5e9" fill-opacity="0.5" stroke="#606060" stroke-width="1.0"/>
           <path id="arrow"
             d="M 11.500037,31.436501 C 11.940474,20.09759 22.043105,11.32322 32.158766,21.979434 L 37.068811,17.246167 C 37.068811,17.246167 37.088388,32 37.088388,32 L 22.160133,31.978069 C 22.160133,31.978069 26.997745,27.140456 26.997745,27.140456 C 18.528582,18.264221 13.291696,25.230495 11.500037,31.436501 z"
             style="fill:#404040;"/>
          </a>
         </g>
        </svg>
</svg>
