<?xml version="1.0" encoding="UTF-8" standalone="no"?>
<!DOCTYPE svg PUBLIC "-//W3C//DTD SVG 1.1//EN"
 "http://www.w3.org/Graphics/SVG/1.1/DTD/svg11.dtd">
<!-- Generated by graphviz version 2.38.0 (20140413.2041)
 -->
<!-- Title: Pizzazz.PizzaDelivery.DeliverPizza Pages: 1 -->
<svg width="342pt" height="88pt"
 viewBox="0.00 0.00 342.00 88.00" xmlns="http://www.w3.org/2000/svg" xmlns:xlink="http://www.w3.org/1999/xlink">
<g id="graph0" class="graph" transform="scale(1 1) rotate(0) translate(4 84)">
<title>Pizzazz.PizzaDelivery.DeliverPizza</title>
<polygon fill="white" stroke="none" points="-4,4 -4,-84 338,-84 338,4 -4,4"/>
<!-- Node1 -->
<g id="node1" class="node"><title>Node1</title>
<g id="a_node1"><a xlink:title="Delivers a pizza which is optionally cut.">
<polygon fill="#bfbfbf" stroke="black" points="0,-24.5 0,-54.5 145,-54.5 145,-24.5 0,-24.5"/>
<text text-anchor="start" x="8" y="-42.5" font-family="Helvetica,sans-Serif" font-size="10.00">Pizzazz.PizzaDelivery.Deliver</text>
<text text-anchor="middle" x="72.5" y="-31.5" font-family="Helvetica,sans-Serif" font-size="10.00">Pizza</text>
</a>
</g>
</g>
<!-- Node2 -->
<g id="node2" class="node"><title>Node2</title>
<g id="a_node2"><a xlink:href="class_pizzazz_library_1_1_implementation_1_1_pizza.html#a5b1b0a742974af9c94be7f83dd18255a" target="_top" xlink:title=" ">
<polygon fill="white" stroke="black" points="181,-49.5 181,-79.5 334,-79.5 334,-49.5 181,-49.5"/>
<text text-anchor="start" x="189" y="-67.5" font-family="Helvetica,sans-Serif" font-size="10.00">PizzazzLibrary.Implementation.</text>
<text text-anchor="middle" x="257.5" y="-56.5" font-family="Helvetica,sans-Serif" font-size="10.00">Pizza.Bake</text>
</a>
</g>
</g>
<!-- Node1&#45;&gt;Node2 -->
<g id="edge1" class="edge"><title>Node1&#45;&gt;Node2</title>
<path fill="none" stroke="midnightblue" d="M145.039,-49.2731C153.469,-50.4247 162.137,-51.6088 170.737,-52.7837"/>
<polygon fill="midnightblue" stroke="midnightblue" points="170.401,-56.2702 180.783,-54.1561 171.348,-49.3347 170.401,-56.2702"/>
</g>
<!-- Node3 -->
<g id="node3" class="node"><title>Node3</title>
<g id="a_node3"><a xlink:href="interface_pizzazz_library_1_1_interfaces_1_1_i_pizza_factory.html#a20183671e617d58bac4f5b315b9a5289" target="_top" xlink:title=" ">
<polygon fill="white" stroke="black" points="188.5,-0.5 188.5,-30.5 326.5,-30.5 326.5,-0.5 188.5,-0.5"/>
<text text-anchor="start" x="196.5" y="-18.5" font-family="Helvetica,sans-Serif" font-size="10.00">PizzazzLibrary.Interfaces.</text>
<text text-anchor="middle" x="257.5" y="-7.5" font-family="Helvetica,sans-Serif" font-size="10.00">IPizzaFactory.PreparePizza</text>
</a>
</g>
</g>
<!-- Node1&#45;&gt;Node3 -->
<g id="edge2" class="edge"><title>Node1&#45;&gt;Node3</title>
<path fill="none" stroke="midnightblue" d="M145.039,-30.1179C155.937,-28.6885 167.233,-27.2071 178.266,-25.7602"/>
<polygon fill="midnightblue" stroke="midnightblue" points="178.846,-29.2142 188.306,-24.4435 177.935,-22.2737 178.846,-29.2142"/>
</g>
</g>
</svg>
