<?xml version="1.0" encoding="UTF-8" standalone="no"?>
<!DOCTYPE svg PUBLIC "-//W3C//DTD SVG 1.1//EN"
 "http://www.w3.org/Graphics/SVG/1.1/DTD/svg11.dtd">
<!-- Generated by graphviz version 2.38.0 (20140413.2041)
 -->
<!-- Title: PizzazzLibrary.Pizza.Implementation.PizzaMargheritaFactory Pages: 1 -->
<svg width="250pt" height="194pt"
 viewBox="0.00 0.00 250.00 194.00" xmlns="http://www.w3.org/2000/svg" xmlns:xlink="http://www.w3.org/1999/xlink">
<g id="graph0" class="graph" transform="scale(1 1) rotate(0) translate(4 190)">
<title>PizzazzLibrary.Pizza.Implementation.PizzaMargheritaFactory</title>
<polygon fill="white" stroke="none" points="-4,4 -4,-190 246,-190 246,4 -4,4"/>
<!-- Node1 -->
<g id="node1" class="node"><title>Node1</title>
<g id="a_node1"><a xlink:title="Singleton implementation Margherita pizza only producing factory.">
<polygon fill="#bfbfbf" stroke="black" points="0,-0.5 0,-90.5 181,-90.5 181,-0.5 0,-0.5"/>
<text text-anchor="start" x="8" y="-78.5" font-family="Helvetica,sans-Serif" font-size="10.00">PizzazzLibrary.Pizza.Implementation.</text>
<text text-anchor="middle" x="90.5" y="-67.5" font-family="Helvetica,sans-Serif" font-size="10.00">PizzaMargheritaFactory</text>
<polyline fill="none" stroke="black" points="0,-60.5 181,-60.5 "/>
<text text-anchor="start" x="8" y="-48.5" font-family="Helvetica,sans-Serif" font-size="10.00">+ Instance</text>
<polyline fill="none" stroke="black" points="0,-41.5 181,-41.5 "/>
<text text-anchor="start" x="8" y="-29.5" font-family="Helvetica,sans-Serif" font-size="10.00">+ PreparePizza()</text>
<text text-anchor="start" x="8" y="-18.5" font-family="Helvetica,sans-Serif" font-size="10.00">&#45; PizzaMargheritaFactory()</text>
<text text-anchor="start" x="8" y="-7.5" font-family="Helvetica,sans-Serif" font-size="10.00">&#45; PizzaMargheritaFactory()</text>
</a>
</g>
</g>
<!-- Node1&#45;&gt;Node1 -->
<g id="edge2" class="edge"><title>Node1&#45;&gt;Node1</title>
<path fill="none" stroke="#404040" d="M181.12,-55.8125C191.936,-53.9375 199,-50.5 199,-45.5 199,-42.6875 196.765,-40.3694 192.884,-38.5457"/>
<polygon fill="none" stroke="#404040" points="192.659,-38.4814 185.791,-40.6808 181.12,-35.1875 187.987,-32.9881 192.659,-38.4814"/>
<text text-anchor="middle" x="220.5" y="-43" font-family="Helvetica,sans-Serif" font-size="10.00"> &#45;instance</text>
</g>
<!-- Node2 -->
<g id="node2" class="node"><title>Node2</title>
<g id="a_node2"><a xlink:href="interface_pizzazz_library_1_1_pizza_1_1_interfaces_1_1_i_pizza_factory.html" target="_top" xlink:title=" ">
<polygon fill="white" stroke="black" points="45.5,-128.5 45.5,-185.5 135.5,-185.5 135.5,-128.5 45.5,-128.5"/>
<text text-anchor="middle" x="90.5" y="-173.5" font-family="Helvetica,sans-Serif" font-size="10.00">IPizzaFactory</text>
<polyline fill="none" stroke="black" points="45.5,-166.5 135.5,-166.5 "/>
<text text-anchor="middle" x="90.5" y="-154.5" font-family="Helvetica,sans-Serif" font-size="10.00"> </text>
<polyline fill="none" stroke="black" points="45.5,-147.5 135.5,-147.5 "/>
<text text-anchor="start" x="53.5" y="-135.5" font-family="Helvetica,sans-Serif" font-size="10.00">+ PreparePizza()</text>
</a>
</g>
</g>
<!-- Node2&#45;&gt;Node1 -->
<g id="edge1" class="edge"><title>Node2&#45;&gt;Node1</title>
<path fill="none" stroke="midnightblue" d="M90.5,-118.312C90.5,-109.43 90.5,-99.8831 90.5,-90.7419"/>
<polygon fill="none" stroke="midnightblue" points="87.0001,-118.368 90.5,-128.369 94.0001,-118.369 87.0001,-118.368"/>
</g>
</g>
</svg>
