<?xml version="1.0" encoding="UTF-8" standalone="no"?>
<!DOCTYPE svg PUBLIC "-//W3C//DTD SVG 1.1//EN"
 "http://www.w3.org/Graphics/SVG/1.1/DTD/svg11.dtd">
<!-- Generated by graphviz version 2.38.0 (20140413.2041)
 -->
<!-- Title: PizzazzLibrary.Pizza.Interfaces.PizzaDecorator Pages: 1 -->
<svg width="388pt" height="430pt"
 viewBox="0.00 0.00 388.00 430.00" xmlns="http://www.w3.org/2000/svg" xmlns:xlink="http://www.w3.org/1999/xlink">
<g id="graph0" class="graph" transform="scale(1 1) rotate(0) translate(4 426)">
<title>PizzazzLibrary.Pizza.Interfaces.PizzaDecorator</title>
<polygon fill="white" stroke="none" points="-4,4 -4,-426 384,-426 384,4 -4,4"/>
<!-- Node1 -->
<g id="node1" class="node"><title>Node1</title>
<g id="a_node1"><a xlink:title=" ">
<polygon fill="#bfbfbf" stroke="black" points="111,-149.5 111,-217.5 268,-217.5 268,-149.5 111,-149.5"/>
<text text-anchor="start" x="119" y="-205.5" font-family="Helvetica,sans-Serif" font-size="10.00">PizzazzLibrary.Pizza.Interfaces.</text>
<text text-anchor="middle" x="189.5" y="-194.5" font-family="Helvetica,sans-Serif" font-size="10.00">PizzaDecorator</text>
<polyline fill="none" stroke="black" points="111,-187.5 268,-187.5 "/>
<text text-anchor="start" x="119" y="-175.5" font-family="Helvetica,sans-Serif" font-size="10.00">+ decoratedPizza</text>
<polyline fill="none" stroke="black" points="111,-168.5 268,-168.5 "/>
<text text-anchor="start" x="119" y="-156.5" font-family="Helvetica,sans-Serif" font-size="10.00">+ PizzaDecorator()</text>
</a>
</g>
</g>
<!-- Node3 -->
<g id="node3" class="node"><title>Node3</title>
<g id="a_node3"><a xlink:href="class_pizzazz_library_1_1_pizza_1_1_implementation_1_1_custom_piza_decorator.html" target="_top" xlink:title="A customized pizza based on another pizza. The customer pays 10 cents extra on top each ingredient ad...">
<polygon fill="white" stroke="black" points="0,-0.5 0,-112.5 181,-112.5 181,-0.5 0,-0.5"/>
<text text-anchor="start" x="8" y="-100.5" font-family="Helvetica,sans-Serif" font-size="10.00">PizzazzLibrary.Pizza.Implementation.</text>
<text text-anchor="middle" x="90.5" y="-89.5" font-family="Helvetica,sans-Serif" font-size="10.00">CustomPizaDecorator</text>
<polyline fill="none" stroke="black" points="0,-82.5 181,-82.5 "/>
<text text-anchor="start" x="8" y="-70.5" font-family="Helvetica,sans-Serif" font-size="10.00">+ Price</text>
<text text-anchor="start" x="8" y="-59.5" font-family="Helvetica,sans-Serif" font-size="10.00">&#45; _extraIngredients</text>
<text text-anchor="start" x="8" y="-48.5" font-family="Helvetica,sans-Serif" font-size="10.00">&#45; _calculatedPrice</text>
<polyline fill="none" stroke="black" points="0,-41.5 181,-41.5 "/>
<text text-anchor="start" x="8" y="-29.5" font-family="Helvetica,sans-Serif" font-size="10.00">+ CustomPizaDecorator()</text>
<text text-anchor="start" x="8" y="-18.5" font-family="Helvetica,sans-Serif" font-size="10.00">+ Prepare()</text>
<text text-anchor="start" x="8" y="-7.5" font-family="Helvetica,sans-Serif" font-size="10.00">+ AddIngredient()</text>
</a>
</g>
</g>
<!-- Node1&#45;&gt;Node3 -->
<g id="edge2" class="edge"><title>Node1&#45;&gt;Node3</title>
<path fill="none" stroke="midnightblue" d="M156.974,-141.431C149.669,-132.208 141.803,-122.276 134.128,-112.585"/>
<polygon fill="none" stroke="midnightblue" points="154.277,-143.664 163.23,-149.33 159.765,-139.318 154.277,-143.664"/>
</g>
<!-- Node4 -->
<g id="node4" class="node"><title>Node4</title>
<g id="a_node4"><a xlink:href="class_pizzazz_library_1_1_pizza_1_1_implementation_1_1_pizza_margherita.html" target="_top" xlink:title=" ">
<polygon fill="white" stroke="black" points="199,-11.5 199,-101.5 380,-101.5 380,-11.5 199,-11.5"/>
<text text-anchor="start" x="207" y="-89.5" font-family="Helvetica,sans-Serif" font-size="10.00">PizzazzLibrary.Pizza.Implementation.</text>
<text text-anchor="middle" x="289.5" y="-78.5" font-family="Helvetica,sans-Serif" font-size="10.00">PizzaMargherita</text>
<polyline fill="none" stroke="black" points="199,-71.5 380,-71.5 "/>
<text text-anchor="start" x="207" y="-59.5" font-family="Helvetica,sans-Serif" font-size="10.00">+ Price</text>
<polyline fill="none" stroke="black" points="199,-52.5 380,-52.5 "/>
<text text-anchor="start" x="207" y="-40.5" font-family="Helvetica,sans-Serif" font-size="10.00">+ PizzaMargherita()</text>
<text text-anchor="start" x="207" y="-29.5" font-family="Helvetica,sans-Serif" font-size="10.00">+ PizzaMargherita()</text>
<text text-anchor="start" x="207" y="-18.5" font-family="Helvetica,sans-Serif" font-size="10.00">+ Prepare()</text>
</a>
</g>
</g>
<!-- Node1&#45;&gt;Node4 -->
<g id="edge3" class="edge"><title>Node1&#45;&gt;Node4</title>
<path fill="none" stroke="midnightblue" d="M222.53,-141.213C232.676,-128.53 243.879,-114.526 254.172,-101.66"/>
<polygon fill="none" stroke="midnightblue" points="219.55,-139.335 216.036,-149.33 225.016,-143.708 219.55,-139.335"/>
</g>
<!-- Node2 -->
<g id="node2" class="node"><title>Node2</title>
<g id="a_node2"><a xlink:href="class_pizzazz_library_1_1_pizza_1_1_pizza.html" target="_top" xlink:title="A generic pizza">
<polygon fill="white" stroke="black" points="151,-254.5 151,-421.5 228,-421.5 228,-254.5 151,-254.5"/>
<text text-anchor="middle" x="189.5" y="-409.5" font-family="Helvetica,sans-Serif" font-size="10.00">Pizza</text>
<polyline fill="none" stroke="black" points="151,-402.5 228,-402.5 "/>
<text text-anchor="start" x="159" y="-390.5" font-family="Helvetica,sans-Serif" font-size="10.00">+ Price</text>
<text text-anchor="start" x="159" y="-379.5" font-family="Helvetica,sans-Serif" font-size="10.00">+ Ingredients</text>
<text text-anchor="start" x="159" y="-368.5" font-family="Helvetica,sans-Serif" font-size="10.00">+ IsPrepared</text>
<text text-anchor="start" x="159" y="-357.5" font-family="Helvetica,sans-Serif" font-size="10.00">+ IsCut</text>
<text text-anchor="start" x="159" y="-346.5" font-family="Helvetica,sans-Serif" font-size="10.00">+ IsBaked</text>
<text text-anchor="start" x="159" y="-335.5" font-family="Helvetica,sans-Serif" font-size="10.00">+ IsPackaged</text>
<text text-anchor="start" x="159" y="-324.5" font-family="Helvetica,sans-Serif" font-size="10.00"># _ingredients</text>
<polyline fill="none" stroke="black" points="151,-317.5 228,-317.5 "/>
<text text-anchor="start" x="159" y="-305.5" font-family="Helvetica,sans-Serif" font-size="10.00">+ Prepare()</text>
<text text-anchor="start" x="159" y="-294.5" font-family="Helvetica,sans-Serif" font-size="10.00">+ Bake()</text>
<text text-anchor="start" x="159" y="-283.5" font-family="Helvetica,sans-Serif" font-size="10.00">+ Cut()</text>
<text text-anchor="start" x="159" y="-272.5" font-family="Helvetica,sans-Serif" font-size="10.00">+ Package()</text>
<text text-anchor="start" x="159" y="-261.5" font-family="Helvetica,sans-Serif" font-size="10.00">+ ToString()</text>
</a>
</g>
</g>
<!-- Node2&#45;&gt;Node1 -->
<g id="edge1" class="edge"><title>Node2&#45;&gt;Node1</title>
<path fill="none" stroke="midnightblue" d="M189.5,-243.895C189.5,-234.631 189.5,-225.717 189.5,-217.737"/>
<polygon fill="none" stroke="midnightblue" points="186,-244.056 189.5,-254.056 193,-244.056 186,-244.056"/>
</g>
</g>
</svg>
