<?xml version="1.0" encoding="UTF-8" standalone="no"?>
<!DOCTYPE svg PUBLIC "-//W3C//DTD SVG 1.1//EN"
 "http://www.w3.org/Graphics/SVG/1.1/DTD/svg11.dtd">
<!-- Generated by graphviz version 2.38.0 (20140413.2041)
 -->
<!-- Title: PizzazzLibrary.Implementation.CustomPizaDecorator Pages: 1 -->
<svg width="161pt" height="419pt"
 viewBox="0.00 0.00 161.00 419.00" xmlns="http://www.w3.org/2000/svg" xmlns:xlink="http://www.w3.org/1999/xlink">
<g id="graph0" class="graph" transform="scale(1 1) rotate(0) translate(4 415)">
<title>PizzazzLibrary.Implementation.CustomPizaDecorator</title>
<polygon fill="white" stroke="none" points="-4,4 -4,-415 157,-415 157,4 -4,4"/>
<!-- Node1 -->
<g id="node1" class="node"><title>Node1</title>
<g id="a_node1"><a xlink:title="A customized pizza based on another pizza. The customer pays 10 cents extra on top each ingredient ad...">
<polygon fill="#bfbfbf" stroke="black" points="0,-0.5 0,-112.5 153,-112.5 153,-0.5 0,-0.5"/>
<text text-anchor="start" x="8" y="-100.5" font-family="Helvetica,sans-Serif" font-size="10.00">PizzazzLibrary.Implementation.</text>
<text text-anchor="middle" x="76.5" y="-89.5" font-family="Helvetica,sans-Serif" font-size="10.00">CustomPizaDecorator</text>
<polyline fill="none" stroke="black" points="0,-82.5 153,-82.5 "/>
<text text-anchor="start" x="8" y="-70.5" font-family="Helvetica,sans-Serif" font-size="10.00">+ Price</text>
<text text-anchor="start" x="8" y="-59.5" font-family="Helvetica,sans-Serif" font-size="10.00">&#45; _extraIngredients</text>
<text text-anchor="start" x="8" y="-48.5" font-family="Helvetica,sans-Serif" font-size="10.00">&#45; _calculatedPrice</text>
<polyline fill="none" stroke="black" points="0,-41.5 153,-41.5 "/>
<text text-anchor="start" x="8" y="-29.5" font-family="Helvetica,sans-Serif" font-size="10.00">+ CustomPizaDecorator()</text>
<text text-anchor="start" x="8" y="-18.5" font-family="Helvetica,sans-Serif" font-size="10.00">+ Prepare()</text>
<text text-anchor="start" x="8" y="-7.5" font-family="Helvetica,sans-Serif" font-size="10.00">+ AddIngredient()</text>
</a>
</g>
</g>
<!-- Node2 -->
<g id="node2" class="node"><title>Node2</title>
<g id="a_node2"><a xlink:href="class_pizzazz_library_1_1_implementation_1_1_pizza_decorator.html" target="_top" xlink:title=" ">
<polygon fill="white" stroke="black" points="27.5,-149.5 27.5,-206.5 125.5,-206.5 125.5,-149.5 27.5,-149.5"/>
<text text-anchor="middle" x="76.5" y="-194.5" font-family="Helvetica,sans-Serif" font-size="10.00">PizzaDecorator</text>
<polyline fill="none" stroke="black" points="27.5,-187.5 125.5,-187.5 "/>
<text text-anchor="start" x="35.5" y="-175.5" font-family="Helvetica,sans-Serif" font-size="10.00">+ decoratedPizza</text>
<polyline fill="none" stroke="black" points="27.5,-168.5 125.5,-168.5 "/>
<text text-anchor="start" x="35.5" y="-156.5" font-family="Helvetica,sans-Serif" font-size="10.00">+ PizzaDecorator()</text>
</a>
</g>
</g>
<!-- Node2&#45;&gt;Node1 -->
<g id="edge1" class="edge"><title>Node2&#45;&gt;Node1</title>
<path fill="none" stroke="midnightblue" d="M76.5,-139.108C76.5,-130.748 76.5,-121.725 76.5,-112.834"/>
<polygon fill="none" stroke="midnightblue" points="73.0001,-139.284 76.5,-149.284 80.0001,-139.284 73.0001,-139.284"/>
</g>
<!-- Node3 -->
<g id="node3" class="node"><title>Node3</title>
<g id="a_node3"><a xlink:href="class_pizzazz_library_1_1_implementation_1_1_pizza.html" target="_top" xlink:title="A generic pizza">
<polygon fill="white" stroke="black" points="38,-243.5 38,-410.5 115,-410.5 115,-243.5 38,-243.5"/>
<text text-anchor="middle" x="76.5" y="-398.5" font-family="Helvetica,sans-Serif" font-size="10.00">Pizza</text>
<polyline fill="none" stroke="black" points="38,-391.5 115,-391.5 "/>
<text text-anchor="start" x="46" y="-379.5" font-family="Helvetica,sans-Serif" font-size="10.00">+ Price</text>
<text text-anchor="start" x="46" y="-368.5" font-family="Helvetica,sans-Serif" font-size="10.00">+ Ingredients</text>
<text text-anchor="start" x="46" y="-357.5" font-family="Helvetica,sans-Serif" font-size="10.00">+ IsPrepared</text>
<text text-anchor="start" x="46" y="-346.5" font-family="Helvetica,sans-Serif" font-size="10.00">+ IsCut</text>
<text text-anchor="start" x="46" y="-335.5" font-family="Helvetica,sans-Serif" font-size="10.00">+ IsBaked</text>
<text text-anchor="start" x="46" y="-324.5" font-family="Helvetica,sans-Serif" font-size="10.00">+ IsPackaged</text>
<text text-anchor="start" x="46" y="-313.5" font-family="Helvetica,sans-Serif" font-size="10.00"># _ingredients</text>
<polyline fill="none" stroke="black" points="38,-306.5 115,-306.5 "/>
<text text-anchor="start" x="46" y="-294.5" font-family="Helvetica,sans-Serif" font-size="10.00">+ Prepare()</text>
<text text-anchor="start" x="46" y="-283.5" font-family="Helvetica,sans-Serif" font-size="10.00">+ Bake()</text>
<text text-anchor="start" x="46" y="-272.5" font-family="Helvetica,sans-Serif" font-size="10.00">+ Cut()</text>
<text text-anchor="start" x="46" y="-261.5" font-family="Helvetica,sans-Serif" font-size="10.00">+ Package()</text>
<text text-anchor="start" x="46" y="-250.5" font-family="Helvetica,sans-Serif" font-size="10.00">+ ToString()</text>
</a>
</g>
</g>
<!-- Node3&#45;&gt;Node2 -->
<g id="edge2" class="edge"><title>Node3&#45;&gt;Node2</title>
<path fill="none" stroke="midnightblue" d="M76.5,-233.36C76.5,-223.786 76.5,-214.677 76.5,-206.748"/>
<polygon fill="none" stroke="midnightblue" points="73.0001,-233.476 76.5,-243.476 80.0001,-233.476 73.0001,-233.476"/>
</g>
</g>
</svg>
