<?xml version="1.0" encoding="UTF-8" standalone="no"?>
<!DOCTYPE svg PUBLIC "-//W3C//DTD SVG 1.1//EN"
 "http://www.w3.org/Graphics/SVG/1.1/DTD/svg11.dtd">
<!-- Generated by graphviz version 2.38.0 (20140413.2041)
 -->
<!-- Title: PizzazzLibrary.Ingredients.Implementation.BigAmericanDough Pages: 1 -->
<svg width="177pt" height="353pt"
 viewBox="0.00 0.00 177.00 353.00" xmlns="http://www.w3.org/2000/svg" xmlns:xlink="http://www.w3.org/1999/xlink">
<g id="graph0" class="graph" transform="scale(1 1) rotate(0) translate(4 349)">
<title>PizzazzLibrary.Ingredients.Implementation.BigAmericanDough</title>
<polygon fill="white" stroke="none" points="-4,4 -4,-349 173,-349 173,4 -4,4"/>
<!-- Node1 -->
<g id="node1" class="node"><title>Node1</title>
<g id="a_node1"><a xlink:title=" ">
<polygon fill="#bfbfbf" stroke="black" points="0,-0.5 0,-90.5 169,-90.5 169,-0.5 0,-0.5"/>
<text text-anchor="start" x="8" y="-78.5" font-family="Helvetica,sans-Serif" font-size="10.00">PizzazzLibrary.Ingredients.</text>
<text text-anchor="middle" x="84.5" y="-67.5" font-family="Helvetica,sans-Serif" font-size="10.00">Implementation.BigAmericanDough</text>
<polyline fill="none" stroke="black" points="0,-60.5 169,-60.5 "/>
<text text-anchor="start" x="8" y="-48.5" font-family="Helvetica,sans-Serif" font-size="10.00">+ Name</text>
<text text-anchor="start" x="8" y="-37.5" font-family="Helvetica,sans-Serif" font-size="10.00">+ GetDescription</text>
<text text-anchor="start" x="8" y="-26.5" font-family="Helvetica,sans-Serif" font-size="10.00">+ CostPrice</text>
<polyline fill="none" stroke="black" points="0,-19.5 169,-19.5 "/>
<text text-anchor="middle" x="84.5" y="-7.5" font-family="Helvetica,sans-Serif" font-size="10.00"> </text>
</a>
</g>
</g>
<!-- Node2 -->
<g id="node2" class="node"><title>Node2</title>
<g id="a_node2"><a xlink:href="class_pizzazz_library_1_1_ingredients_1_1_implementation_1_1_dough.html" target="_top" xlink:title=" ">
<polygon fill="white" stroke="black" points="39.5,-127.5 39.5,-206.5 129.5,-206.5 129.5,-127.5 39.5,-127.5"/>
<text text-anchor="middle" x="84.5" y="-194.5" font-family="Helvetica,sans-Serif" font-size="10.00">Dough</text>
<polyline fill="none" stroke="black" points="39.5,-187.5 129.5,-187.5 "/>
<text text-anchor="start" x="47.5" y="-175.5" font-family="Helvetica,sans-Serif" font-size="10.00">+ Name</text>
<text text-anchor="start" x="47.5" y="-164.5" font-family="Helvetica,sans-Serif" font-size="10.00">+ GetDescription</text>
<text text-anchor="start" x="47.5" y="-153.5" font-family="Helvetica,sans-Serif" font-size="10.00">+ CostPrice</text>
<polyline fill="none" stroke="black" points="39.5,-146.5 129.5,-146.5 "/>
<text text-anchor="middle" x="84.5" y="-134.5" font-family="Helvetica,sans-Serif" font-size="10.00"> </text>
</a>
</g>
</g>
<!-- Node2&#45;&gt;Node1 -->
<g id="edge1" class="edge"><title>Node2&#45;&gt;Node1</title>
<path fill="none" stroke="midnightblue" d="M84.5,-117.187C84.5,-108.491 84.5,-99.4758 84.5,-90.9111"/>
<polygon fill="none" stroke="midnightblue" points="81.0001,-117.202 84.5,-127.202 88.0001,-117.202 81.0001,-117.202"/>
</g>
<!-- Node3 -->
<g id="node3" class="node"><title>Node3</title>
<g id="a_node3"><a xlink:href="class_pizzazz_library_1_1_ingredients_1_1_interfaces_1_1_ingredient.html" target="_top" xlink:title=" ">
<polygon fill="white" stroke="black" points="39.5,-243.5 39.5,-344.5 129.5,-344.5 129.5,-243.5 39.5,-243.5"/>
<text text-anchor="middle" x="84.5" y="-332.5" font-family="Helvetica,sans-Serif" font-size="10.00">Ingredient</text>
<polyline fill="none" stroke="black" points="39.5,-325.5 129.5,-325.5 "/>
<text text-anchor="start" x="47.5" y="-313.5" font-family="Helvetica,sans-Serif" font-size="10.00">+ Name</text>
<text text-anchor="start" x="47.5" y="-302.5" font-family="Helvetica,sans-Serif" font-size="10.00">+ CostPrice</text>
<text text-anchor="start" x="47.5" y="-291.5" font-family="Helvetica,sans-Serif" font-size="10.00">+ Price</text>
<text text-anchor="start" x="47.5" y="-280.5" font-family="Helvetica,sans-Serif" font-size="10.00">+ GetDescription</text>
<text text-anchor="start" x="47.5" y="-269.5" font-family="Helvetica,sans-Serif" font-size="10.00">+ Baked</text>
<polyline fill="none" stroke="black" points="39.5,-262.5 129.5,-262.5 "/>
<text text-anchor="start" x="47.5" y="-250.5" font-family="Helvetica,sans-Serif" font-size="10.00">+ Bake()</text>
</a>
</g>
</g>
<!-- Node3&#45;&gt;Node2 -->
<g id="edge2" class="edge"><title>Node3&#45;&gt;Node2</title>
<path fill="none" stroke="midnightblue" d="M84.5,-233.186C84.5,-224.221 84.5,-215.181 84.5,-206.808"/>
<polygon fill="none" stroke="midnightblue" points="81.0001,-233.237 84.5,-243.238 88.0001,-233.238 81.0001,-233.237"/>
</g>
</g>
</svg>
