<?xml version="1.0" encoding="UTF-8" standalone="no"?>
<!DOCTYPE svg PUBLIC "-//W3C//DTD SVG 1.1//EN"
 "http://www.w3.org/Graphics/SVG/1.1/DTD/svg11.dtd">
<!-- Generated by graphviz version 2.38.0 (20140413.2041)
 -->
<!-- Title: PizzazzLibrary.Ingredients.Implementation.SpicyTomatoSauce Pages: 1 -->
<svg width="178pt" height="353pt"
 viewBox="0.00 0.00 178.00 353.00" xmlns="http://www.w3.org/2000/svg" xmlns:xlink="http://www.w3.org/1999/xlink">
<g id="graph0" class="graph" transform="scale(1 1) rotate(0) translate(4 349)">
<title>PizzazzLibrary.Ingredients.Implementation.SpicyTomatoSauce</title>
<polygon fill="white" stroke="none" points="-4,4 -4,-349 174,-349 174,4 -4,4"/>
<!-- Node1 -->
<g id="node1" class="node"><title>Node1</title>
<g id="a_node1"><a xlink:title=" ">
<polygon fill="#bfbfbf" stroke="black" points="0,-0.5 0,-79.5 170,-79.5 170,-0.5 0,-0.5"/>
<text text-anchor="start" x="8" y="-67.5" font-family="Helvetica,sans-Serif" font-size="10.00">PizzazzLibrary.Ingredients.</text>
<text text-anchor="middle" x="85" y="-56.5" font-family="Helvetica,sans-Serif" font-size="10.00">Implementation.SpicyTomatoSauce</text>
<polyline fill="none" stroke="black" points="0,-49.5 170,-49.5 "/>
<text text-anchor="start" x="8" y="-37.5" font-family="Helvetica,sans-Serif" font-size="10.00">+ Name</text>
<text text-anchor="start" x="8" y="-26.5" font-family="Helvetica,sans-Serif" font-size="10.00">+ Description</text>
<polyline fill="none" stroke="black" points="0,-19.5 170,-19.5 "/>
<text text-anchor="middle" x="85" y="-7.5" font-family="Helvetica,sans-Serif" font-size="10.00"> </text>
</a>
</g>
</g>
<!-- Node2 -->
<g id="node2" class="node"><title>Node2</title>
<g id="a_node2"><a xlink:href="class_pizzazz_library_1_1_ingredients_1_1_implementation_1_1_tomato_sauce.html" target="_top" xlink:title=" ">
<polygon fill="white" stroke="black" points="46.5,-116.5 46.5,-195.5 123.5,-195.5 123.5,-116.5 46.5,-116.5"/>
<text text-anchor="middle" x="85" y="-183.5" font-family="Helvetica,sans-Serif" font-size="10.00">TomatoSauce</text>
<polyline fill="none" stroke="black" points="46.5,-176.5 123.5,-176.5 "/>
<text text-anchor="start" x="54.5" y="-164.5" font-family="Helvetica,sans-Serif" font-size="10.00">+ Name</text>
<text text-anchor="start" x="54.5" y="-153.5" font-family="Helvetica,sans-Serif" font-size="10.00">+ Description</text>
<text text-anchor="start" x="54.5" y="-142.5" font-family="Helvetica,sans-Serif" font-size="10.00">+ CostPrice</text>
<polyline fill="none" stroke="black" points="46.5,-135.5 123.5,-135.5 "/>
<text text-anchor="middle" x="85" y="-123.5" font-family="Helvetica,sans-Serif" font-size="10.00"> </text>
</a>
</g>
</g>
<!-- Node2&#45;&gt;Node1 -->
<g id="edge1" class="edge"><title>Node2&#45;&gt;Node1</title>
<path fill="none" stroke="midnightblue" d="M85,-106.146C85,-97.256 85,-88.0961 85,-79.5555"/>
<polygon fill="none" stroke="midnightblue" points="81.5001,-106.405 85,-116.405 88.5001,-106.405 81.5001,-106.405"/>
</g>
<!-- Node3 -->
<g id="node3" class="node"><title>Node3</title>
<g id="a_node3"><a xlink:href="class_pizzazz_library_1_1_ingredients_1_1_interfaces_1_1_ingredient.html" target="_top" xlink:title=" ">
<polygon fill="white" stroke="black" points="48,-232.5 48,-344.5 122,-344.5 122,-232.5 48,-232.5"/>
<text text-anchor="middle" x="85" y="-332.5" font-family="Helvetica,sans-Serif" font-size="10.00">Ingredient</text>
<polyline fill="none" stroke="black" points="48,-325.5 122,-325.5 "/>
<text text-anchor="start" x="56" y="-313.5" font-family="Helvetica,sans-Serif" font-size="10.00">+ Name</text>
<text text-anchor="start" x="56" y="-302.5" font-family="Helvetica,sans-Serif" font-size="10.00">+ CostPrice</text>
<text text-anchor="start" x="56" y="-291.5" font-family="Helvetica,sans-Serif" font-size="10.00">+ Price</text>
<text text-anchor="start" x="56" y="-280.5" font-family="Helvetica,sans-Serif" font-size="10.00">+ Description</text>
<text text-anchor="start" x="56" y="-269.5" font-family="Helvetica,sans-Serif" font-size="10.00">+ Baked</text>
<polyline fill="none" stroke="black" points="48,-262.5 122,-262.5 "/>
<text text-anchor="start" x="56" y="-250.5" font-family="Helvetica,sans-Serif" font-size="10.00">+ ToString()</text>
<text text-anchor="start" x="56" y="-239.5" font-family="Helvetica,sans-Serif" font-size="10.00">~ Bake()</text>
</a>
</g>
</g>
<!-- Node3&#45;&gt;Node2 -->
<g id="edge2" class="edge"><title>Node3&#45;&gt;Node2</title>
<path fill="none" stroke="midnightblue" d="M85,-222.056C85,-213.081 85,-204.11 85,-195.823"/>
<polygon fill="none" stroke="midnightblue" points="81.5001,-222.156 85,-232.156 88.5001,-222.156 81.5001,-222.156"/>
</g>
</g>
</svg>
