<?xml version="1.0" encoding="UTF-8" standalone="no"?>
<!DOCTYPE svg PUBLIC "-//W3C//DTD SVG 1.1//EN"
 "http://www.w3.org/Graphics/SVG/1.1/DTD/svg11.dtd">
<!-- Generated by graphviz version 2.38.0 (20140413.2041)
 -->
<!-- Title: PizzazzLibrary.Pizza.PizzaDelivery.DeliverPizza Pages: 1 -->
<svg width="343pt" height="78pt"
 viewBox="0.00 0.00 343.00 77.50" xmlns="http://www.w3.org/2000/svg" xmlns:xlink="http://www.w3.org/1999/xlink">
<g id="graph0" class="graph" transform="scale(1 1) rotate(0) translate(4 73.5)">
<title>PizzazzLibrary.Pizza.PizzaDelivery.DeliverPizza</title>
<polygon fill="white" stroke="none" points="-4,4 -4,-73.5 339,-73.5 339,4 -4,4"/>
<!-- Node1 -->
<g id="node1" class="node"><title>Node1</title>
<g id="a_node1"><a xlink:title="Delivers a pizza which is optionally cut.">
<polygon fill="#bfbfbf" stroke="black" points="0,-22.5 0,-52.5 137,-52.5 137,-22.5 0,-22.5"/>
<text text-anchor="start" x="8" y="-40.5" font-family="Helvetica,sans-Serif" font-size="10.00">PizzazzLibrary.Pizza.Pizza</text>
<text text-anchor="middle" x="68.5" y="-29.5" font-family="Helvetica,sans-Serif" font-size="10.00">Delivery.DeliverPizza</text>
</a>
</g>
</g>
<!-- Node2 -->
<g id="node2" class="node"><title>Node2</title>
<g id="a_node2"><a xlink:href="class_pizzazz_library_1_1_pizza_1_1_pizza.html#a633cf9558cba420e1d417a71995f00df" target="_top" xlink:title=" ">
<polygon fill="white" stroke="black" points="173,-50 173,-69 335,-69 335,-50 173,-50"/>
<text text-anchor="middle" x="254" y="-57" font-family="Helvetica,sans-Serif" font-size="10.00">PizzazzLibrary.Pizza.Pizza.Bake</text>
</a>
</g>
</g>
<!-- Node1&#45;&gt;Node2 -->
<g id="edge1" class="edge"><title>Node1&#45;&gt;Node2</title>
<path fill="none" stroke="midnightblue" d="M137.047,-45.5983C145.66,-46.6309 154.579,-47.7002 163.47,-48.7662"/>
<polygon fill="midnightblue" stroke="midnightblue" points="163.134,-52.2508 173.479,-49.9662 163.967,-45.3006 163.134,-52.2508"/>
</g>
<!-- Node3 -->
<g id="node3" class="node"><title>Node3</title>
<g id="a_node3"><a xlink:href="interface_pizzazz_library_1_1_pizza_1_1_interfaces_1_1_i_pizza_factory.html#a6ff9684bfd21e5c83a139a47e212d0d8" target="_top" xlink:title=" ">
<polygon fill="white" stroke="black" points="175.5,-0.5 175.5,-30.5 332.5,-30.5 332.5,-0.5 175.5,-0.5"/>
<text text-anchor="start" x="183.5" y="-18.5" font-family="Helvetica,sans-Serif" font-size="10.00">PizzazzLibrary.Pizza.Interfaces.</text>
<text text-anchor="middle" x="254" y="-7.5" font-family="Helvetica,sans-Serif" font-size="10.00">IPizzaFactory.PreparePizza</text>
</a>
</g>
</g>
<!-- Node1&#45;&gt;Node3 -->
<g id="edge2" class="edge"><title>Node1&#45;&gt;Node3</title>
<path fill="none" stroke="midnightblue" d="M137.047,-29.4017C146.203,-28.3041 155.705,-27.1649 165.151,-26.0323"/>
<polygon fill="midnightblue" stroke="midnightblue" points="165.849,-29.4738 175.361,-24.8082 165.016,-22.5235 165.849,-29.4738"/>
</g>
</g>
</svg>
