<?xml version="1.0" encoding="UTF-8" standalone="no"?>
<!DOCTYPE svg PUBLIC "-//W3C//DTD SVG 1.1//EN"
 "http://www.w3.org/Graphics/SVG/1.1/DTD/svg11.dtd">
<!-- Generated by graphviz version 2.38.0 (20140413.2041)
 -->
<!-- Title: Pizzazz.Program.GoedkopePizza Pages: 1 -->
<svg width="517pt" height="88pt"
 viewBox="0.00 0.00 517.00 88.00" xmlns="http://www.w3.org/2000/svg" xmlns:xlink="http://www.w3.org/1999/xlink">
<g id="graph0" class="graph" transform="scale(1 1) rotate(0) translate(4 84)">
<title>Pizzazz.Program.GoedkopePizza</title>
<polygon fill="white" stroke="none" points="-4,4 -4,-84 513,-84 513,4 -4,4"/>
<!-- Node1 -->
<g id="node1" class="node"><title>Node1</title>
<g id="a_node1"><a xlink:title=" ">
<polygon fill="#bfbfbf" stroke="black" points="0,-24.5 0,-54.5 139,-54.5 139,-24.5 0,-24.5"/>
<text text-anchor="start" x="8" y="-42.5" font-family="Helvetica,sans-Serif" font-size="10.00">Pizzazz.Program.Goedkope</text>
<text text-anchor="middle" x="69.5" y="-31.5" font-family="Helvetica,sans-Serif" font-size="10.00">Pizza</text>
</a>
</g>
</g>
<!-- Node2 -->
<g id="node2" class="node"><title>Node2</title>
<g id="a_node2"><a xlink:href="class_pizzazz_1_1_pizza_delivery.html#a607ac3d199d74f438f4199436ac371f0" target="_top" xlink:title="Delivers a pizza which is optionally cut.">
<polygon fill="white" stroke="black" points="175,-24.5 175,-54.5 320,-54.5 320,-24.5 175,-24.5"/>
<text text-anchor="start" x="183" y="-42.5" font-family="Helvetica,sans-Serif" font-size="10.00">Pizzazz.PizzaDelivery.Deliver</text>
<text text-anchor="middle" x="247.5" y="-31.5" font-family="Helvetica,sans-Serif" font-size="10.00">Pizza</text>
</a>
</g>
</g>
<!-- Node1&#45;&gt;Node2 -->
<g id="edge1" class="edge"><title>Node1&#45;&gt;Node2</title>
<path fill="none" stroke="midnightblue" d="M139.05,-39.5C147.514,-39.5 156.23,-39.5 164.864,-39.5"/>
<polygon fill="midnightblue" stroke="midnightblue" points="164.942,-43.0001 174.942,-39.5 164.942,-36.0001 164.942,-43.0001"/>
</g>
<!-- Node3 -->
<g id="node3" class="node"><title>Node3</title>
<g id="a_node3"><a xlink:href="class_pizzazz_library_1_1_implementation_1_1_pizza.html#a5b1b0a742974af9c94be7f83dd18255a" target="_top" xlink:title=" ">
<polygon fill="white" stroke="black" points="356,-49.5 356,-79.5 509,-79.5 509,-49.5 356,-49.5"/>
<text text-anchor="start" x="364" y="-67.5" font-family="Helvetica,sans-Serif" font-size="10.00">PizzazzLibrary.Implementation.</text>
<text text-anchor="middle" x="432.5" y="-56.5" font-family="Helvetica,sans-Serif" font-size="10.00">Pizza.Bake</text>
</a>
</g>
</g>
<!-- Node2&#45;&gt;Node3 -->
<g id="edge2" class="edge"><title>Node2&#45;&gt;Node3</title>
<path fill="none" stroke="midnightblue" d="M320.039,-49.2731C328.469,-50.4247 337.137,-51.6088 345.737,-52.7837"/>
<polygon fill="midnightblue" stroke="midnightblue" points="345.401,-56.2702 355.783,-54.1561 346.348,-49.3347 345.401,-56.2702"/>
</g>
<!-- Node4 -->
<g id="node4" class="node"><title>Node4</title>
<g id="a_node4"><a xlink:href="interface_pizzazz_library_1_1_interfaces_1_1_i_pizza_factory.html#a20183671e617d58bac4f5b315b9a5289" target="_top" xlink:title=" ">
<polygon fill="white" stroke="black" points="363.5,-0.5 363.5,-30.5 501.5,-30.5 501.5,-0.5 363.5,-0.5"/>
<text text-anchor="start" x="371.5" y="-18.5" font-family="Helvetica,sans-Serif" font-size="10.00">PizzazzLibrary.Interfaces.</text>
<text text-anchor="middle" x="432.5" y="-7.5" font-family="Helvetica,sans-Serif" font-size="10.00">IPizzaFactory.PreparePizza</text>
</a>
</g>
</g>
<!-- Node2&#45;&gt;Node4 -->
<g id="edge3" class="edge"><title>Node2&#45;&gt;Node4</title>
<path fill="none" stroke="midnightblue" d="M320.039,-30.1179C330.937,-28.6885 342.233,-27.2071 353.266,-25.7602"/>
<polygon fill="midnightblue" stroke="midnightblue" points="353.846,-29.2142 363.306,-24.4435 352.935,-22.2737 353.846,-29.2142"/>
</g>
</g>
</svg>
