<?xml version="1.0" encoding="UTF-8" standalone="no"?>
<!DOCTYPE svg PUBLIC "-//W3C//DTD SVG 1.1//EN"
 "http://www.w3.org/Graphics/SVG/1.1/DTD/svg11.dtd">
<!-- Generated by graphviz version 2.38.0 (20140413.2041)
 -->
<!-- Title: PizzazzLibrary.Pizza.Pizza.Bake Pages: 1 -->
<svg width="670pt" height="39pt"
 viewBox="0.00 0.00 670.00 39.00" xmlns="http://www.w3.org/2000/svg" xmlns:xlink="http://www.w3.org/1999/xlink">
<g id="graph0" class="graph" transform="scale(1 1) rotate(0) translate(4 35)">
<title>PizzazzLibrary.Pizza.Pizza.Bake</title>
<polygon fill="white" stroke="none" points="-4,4 -4,-35 666,-35 666,4 -4,4"/>
<!-- Node1 -->
<g id="node1" class="node"><title>Node1</title>
<g id="a_node1"><a xlink:title=" ">
<polygon fill="#bfbfbf" stroke="black" points="500,-6 500,-25 662,-25 662,-6 500,-6"/>
<text text-anchor="middle" x="581" y="-13" font-family="Helvetica,sans-Serif" font-size="10.00">PizzazzLibrary.Pizza.Pizza.Bake</text>
</a>
</g>
</g>
<!-- Node2 -->
<g id="node2" class="node"><title>Node2</title>
<g id="a_node2"><a xlink:href="class_pizzazz_library_1_1_pizza_1_1_pizza_delivery.html#ad9d2518b6e46fa4dd49354847c00e146" target="_top" xlink:title="Delivers a pizza which is optionally cut.">
<polygon fill="white" stroke="black" points="327,-0.5 327,-30.5 464,-30.5 464,-0.5 327,-0.5"/>
<text text-anchor="start" x="335" y="-18.5" font-family="Helvetica,sans-Serif" font-size="10.00">PizzazzLibrary.Pizza.Pizza</text>
<text text-anchor="middle" x="395.5" y="-7.5" font-family="Helvetica,sans-Serif" font-size="10.00">Delivery.DeliverPizza</text>
</a>
</g>
</g>
<!-- Node1&#45;&gt;Node2 -->
<g id="edge1" class="edge"><title>Node1&#45;&gt;Node2</title>
<path fill="none" stroke="midnightblue" d="M489.729,-15.5C481.143,-15.5 472.54,-15.5 464.221,-15.5"/>
<polygon fill="midnightblue" stroke="midnightblue" points="489.781,-19.0001 499.781,-15.5 489.781,-12.0001 489.781,-19.0001"/>
</g>
<!-- Node3 -->
<g id="node3" class="node"><title>Node3</title>
<g id="a_node3"><a xlink:href="class_pizzazz_1_1_program.html#ae8bf38ff433befa82d40a0204f869103" target="_top" xlink:title=" ">
<polygon fill="white" stroke="black" points="152,-0.5 152,-30.5 291,-30.5 291,-0.5 152,-0.5"/>
<text text-anchor="start" x="160" y="-18.5" font-family="Helvetica,sans-Serif" font-size="10.00">Pizzazz.Program.Goedkope</text>
<text text-anchor="middle" x="221.5" y="-7.5" font-family="Helvetica,sans-Serif" font-size="10.00">Pizza</text>
</a>
</g>
</g>
<!-- Node2&#45;&gt;Node3 -->
<g id="edge2" class="edge"><title>Node2&#45;&gt;Node3</title>
<path fill="none" stroke="midnightblue" d="M316.33,-15.5C307.916,-15.5 299.402,-15.5 291.112,-15.5"/>
<polygon fill="midnightblue" stroke="midnightblue" points="316.521,-19.0001 326.521,-15.5 316.521,-12.0001 316.521,-19.0001"/>
</g>
<!-- Node4 -->
<g id="node4" class="node"><title>Node4</title>
<g id="a_node4"><a xlink:href="class_pizzazz_1_1_program.html#a55d55eef333d0da99e7bb5e2cd1516af" target="_top" xlink:title=" ">
<polygon fill="white" stroke="black" points="0,-6 0,-25 116,-25 116,-6 0,-6"/>
<text text-anchor="middle" x="58" y="-13" font-family="Helvetica,sans-Serif" font-size="10.00">Pizzazz.Program.Main</text>
</a>
</g>
</g>
<!-- Node3&#45;&gt;Node4 -->
<g id="edge3" class="edge"><title>Node3&#45;&gt;Node4</title>
<path fill="none" stroke="midnightblue" d="M141.5,-15.5C132.916,-15.5 124.306,-15.5 116.058,-15.5"/>
<polygon fill="midnightblue" stroke="midnightblue" points="141.541,-19.0001 151.541,-15.5 141.541,-12.0001 141.541,-19.0001"/>
</g>
</g>
</svg>
