<?xml version="1.0" encoding="UTF-8" standalone="no"?>
<!DOCTYPE svg PUBLIC "-//W3C//DTD SVG 1.1//EN"
 "http://www.w3.org/Graphics/SVG/1.1/DTD/svg11.dtd">
<!-- Generated by graphviz version 2.38.0 (20140413.2041)
 -->
<!-- Title: PizzazzLibrary.Ingredients.Implementation.TomatoSauce Pages: 1 -->
<svg width="154pt" height="248pt"
 viewBox="0.00 0.00 154.00 248.00" xmlns="http://www.w3.org/2000/svg" xmlns:xlink="http://www.w3.org/1999/xlink">
<g id="graph0" class="graph" transform="scale(1 1) rotate(0) translate(4 244)">
<title>PizzazzLibrary.Ingredients.Implementation.TomatoSauce</title>
<polygon fill="white" stroke="none" points="-4,4 -4,-244 150,-244 150,4 -4,4"/>
<!-- Node1 -->
<g id="node1" class="node"><title>Node1</title>
<g id="a_node1"><a xlink:title=" ">
<polygon fill="#bfbfbf" stroke="black" points="0,-0.5 0,-90.5 146,-90.5 146,-0.5 0,-0.5"/>
<text text-anchor="start" x="8" y="-78.5" font-family="Helvetica,sans-Serif" font-size="10.00">PizzazzLibrary.Ingredients.</text>
<text text-anchor="middle" x="73" y="-67.5" font-family="Helvetica,sans-Serif" font-size="10.00">Implementation.TomatoSauce</text>
<polyline fill="none" stroke="black" points="0,-60.5 146,-60.5 "/>
<text text-anchor="start" x="8" y="-48.5" font-family="Helvetica,sans-Serif" font-size="10.00">+ Name</text>
<text text-anchor="start" x="8" y="-37.5" font-family="Helvetica,sans-Serif" font-size="10.00">+ Description</text>
<text text-anchor="start" x="8" y="-26.5" font-family="Helvetica,sans-Serif" font-size="10.00">+ CostPrice</text>
<polyline fill="none" stroke="black" points="0,-19.5 146,-19.5 "/>
<text text-anchor="middle" x="73" y="-7.5" font-family="Helvetica,sans-Serif" font-size="10.00"> </text>
</a>
</g>
</g>
<!-- Node2 -->
<g id="node2" class="node"><title>Node2</title>
<g id="a_node2"><a xlink:href="class_pizzazz_library_1_1_ingredients_1_1_interfaces_1_1_ingredient.html" target="_top" xlink:title=" ">
<polygon fill="white" stroke="black" points="36,-127.5 36,-239.5 110,-239.5 110,-127.5 36,-127.5"/>
<text text-anchor="middle" x="73" y="-227.5" font-family="Helvetica,sans-Serif" font-size="10.00">Ingredient</text>
<polyline fill="none" stroke="black" points="36,-220.5 110,-220.5 "/>
<text text-anchor="start" x="44" y="-208.5" font-family="Helvetica,sans-Serif" font-size="10.00">+ Name</text>
<text text-anchor="start" x="44" y="-197.5" font-family="Helvetica,sans-Serif" font-size="10.00">+ CostPrice</text>
<text text-anchor="start" x="44" y="-186.5" font-family="Helvetica,sans-Serif" font-size="10.00">+ Price</text>
<text text-anchor="start" x="44" y="-175.5" font-family="Helvetica,sans-Serif" font-size="10.00">+ Description</text>
<text text-anchor="start" x="44" y="-164.5" font-family="Helvetica,sans-Serif" font-size="10.00">+ Baked</text>
<polyline fill="none" stroke="black" points="36,-157.5 110,-157.5 "/>
<text text-anchor="start" x="44" y="-145.5" font-family="Helvetica,sans-Serif" font-size="10.00">+ ToString()</text>
<text text-anchor="start" x="44" y="-134.5" font-family="Helvetica,sans-Serif" font-size="10.00">~ Bake()</text>
</a>
</g>
</g>
<!-- Node2&#45;&gt;Node1 -->
<g id="edge1" class="edge"><title>Node2&#45;&gt;Node1</title>
<path fill="none" stroke="midnightblue" d="M73,-117.076C73,-108.072 73,-99.0069 73,-90.5144"/>
<polygon fill="none" stroke="midnightblue" points="69.5001,-117.184 73,-127.184 76.5001,-117.184 69.5001,-117.184"/>
</g>
</g>
</svg>
