<?xml version="1.0" encoding="UTF-8" standalone="no"?>
<!DOCTYPE svg PUBLIC "-//W3C//DTD SVG 1.1//EN"
 "http://www.w3.org/Graphics/SVG/1.1/DTD/svg11.dtd">
<!-- Generated by graphviz version 2.38.0 (20140413.2041)
 -->
<!-- Title: PizzazzLibrary.Implementation.CustomPizaDecorator.Prepare Pages: 1 -->
<svg width="367pt" height="39pt"
 viewBox="0.00 0.00 367.00 39.00" xmlns="http://www.w3.org/2000/svg" xmlns:xlink="http://www.w3.org/1999/xlink">
<g id="graph0" class="graph" transform="scale(1 1) rotate(0) translate(4 35)">
<title>PizzazzLibrary.Implementation.CustomPizaDecorator.Prepare</title>
<polygon fill="white" stroke="none" points="-4,4 -4,-35 363,-35 363,4 -4,4"/>
<!-- Node1 -->
<g id="node1" class="node"><title>Node1</title>
<g id="a_node1"><a xlink:title=" ">
<polygon fill="#bfbfbf" stroke="black" points="206,-0.5 206,-30.5 359,-30.5 359,-0.5 206,-0.5"/>
<text text-anchor="start" x="214" y="-18.5" font-family="Helvetica,sans-Serif" font-size="10.00">PizzazzLibrary.Implementation.</text>
<text text-anchor="middle" x="282.5" y="-7.5" font-family="Helvetica,sans-Serif" font-size="10.00">CustomPizaDecorator.Prepare</text>
</a>
</g>
</g>
<!-- Node2 -->
<g id="node2" class="node"><title>Node2</title>
<g id="a_node2"><a xlink:href="class_pizzazz_library_1_1_implementation_1_1_custom_pizza_factory.html#acec1ebe7e287c1756b7d72c24ea2d45e" target="_top" xlink:title=" ">
<polygon fill="white" stroke="black" points="0,-0.5 0,-30.5 170,-30.5 170,-0.5 0,-0.5"/>
<text text-anchor="start" x="8" y="-18.5" font-family="Helvetica,sans-Serif" font-size="10.00">PizzazzLibrary.Implementation.</text>
<text text-anchor="middle" x="85" y="-7.5" font-family="Helvetica,sans-Serif" font-size="10.00">CustomPizzaFactory.PreparePizza</text>
</a>
</g>
</g>
<!-- Node1&#45;&gt;Node2 -->
<g id="edge1" class="edge"><title>Node1&#45;&gt;Node2</title>
<path fill="none" stroke="midnightblue" d="M195.663,-15.5C187.196,-15.5 178.607,-15.5 170.156,-15.5"/>
<polygon fill="midnightblue" stroke="midnightblue" points="195.915,-19.0001 205.915,-15.5 195.915,-12.0001 195.915,-19.0001"/>
</g>
</g>
</svg>
