<?xml version="1.0" encoding="UTF-8" standalone="no"?>
<!DOCTYPE svg PUBLIC "-//W3C//DTD SVG 1.1//EN"
 "http://www.w3.org/Graphics/SVG/1.1/DTD/svg11.dtd">
<!-- Generated by graphviz version 2.38.0 (20140413.2041)
 -->
<!-- Title: PizzazzLibrary.Implementation.CustomPizzaFactory.PreparePizza Pages: 1 -->
<svg width="388pt" height="88pt"
 viewBox="0.00 0.00 388.00 88.00" xmlns="http://www.w3.org/2000/svg" xmlns:xlink="http://www.w3.org/1999/xlink">
<g id="graph0" class="graph" transform="scale(1 1) rotate(0) translate(4 84)">
<title>PizzazzLibrary.Implementation.CustomPizzaFactory.PreparePizza</title>
<polygon fill="white" stroke="none" points="-4,4 -4,-84 384,-84 384,4 -4,4"/>
<!-- Node1 -->
<g id="node1" class="node"><title>Node1</title>
<g id="a_node1"><a xlink:title=" ">
<polygon fill="#bfbfbf" stroke="black" points="0,-24.5 0,-54.5 170,-54.5 170,-24.5 0,-24.5"/>
<text text-anchor="start" x="8" y="-42.5" font-family="Helvetica,sans-Serif" font-size="10.00">PizzazzLibrary.Implementation.</text>
<text text-anchor="middle" x="85" y="-31.5" font-family="Helvetica,sans-Serif" font-size="10.00">CustomPizzaFactory.PreparePizza</text>
</a>
</g>
</g>
<!-- Node2 -->
<g id="node2" class="node"><title>Node2</title>
<g id="a_node2"><a xlink:href="class_pizzazz_library_1_1_implementation_1_1_custom_piza_decorator.html#aa01fec0af544718e780252ff15a33239" target="_top" xlink:title="Defines extra ingredients that will be added to the pizza when it is prepared.">
<polygon fill="white" stroke="black" points="206,-49.5 206,-79.5 380,-79.5 380,-49.5 206,-49.5"/>
<text text-anchor="start" x="214" y="-67.5" font-family="Helvetica,sans-Serif" font-size="10.00">PizzazzLibrary.Implementation.</text>
<text text-anchor="middle" x="293" y="-56.5" font-family="Helvetica,sans-Serif" font-size="10.00">CustomPizaDecorator.AddIngredient</text>
</a>
</g>
</g>
<!-- Node1&#45;&gt;Node2 -->
<g id="edge1" class="edge"><title>Node1&#45;&gt;Node2</title>
<path fill="none" stroke="midnightblue" d="M170.085,-49.7045C178.561,-50.7332 187.214,-51.7833 195.804,-52.8257"/>
<polygon fill="midnightblue" stroke="midnightblue" points="195.495,-56.3138 205.844,-54.0442 196.338,-49.3648 195.495,-56.3138"/>
</g>
<!-- Node3 -->
<g id="node3" class="node"><title>Node3</title>
<g id="a_node3"><a xlink:href="class_pizzazz_library_1_1_implementation_1_1_custom_piza_decorator.html#a5caa586e10fc3b86a00dd9b2b764ca7a" target="_top" xlink:title=" ">
<polygon fill="white" stroke="black" points="216.5,-0.5 216.5,-30.5 369.5,-30.5 369.5,-0.5 216.5,-0.5"/>
<text text-anchor="start" x="224.5" y="-18.5" font-family="Helvetica,sans-Serif" font-size="10.00">PizzazzLibrary.Implementation.</text>
<text text-anchor="middle" x="293" y="-7.5" font-family="Helvetica,sans-Serif" font-size="10.00">CustomPizaDecorator.Prepare</text>
</a>
</g>
</g>
<!-- Node1&#45;&gt;Node3 -->
<g id="edge2" class="edge"><title>Node1&#45;&gt;Node3</title>
<path fill="none" stroke="midnightblue" d="M170.085,-29.7037C182.08,-28.3063 194.428,-26.8676 206.45,-25.4669"/>
<polygon fill="midnightblue" stroke="midnightblue" points="206.929,-28.9349 216.457,-24.3011 206.119,-21.9819 206.929,-28.9349"/>
</g>
</g>
</svg>
