<?xml version="1.0" encoding="UTF-8" standalone="no"?>
<!DOCTYPE svg PUBLIC "-//W3C//DTD SVG 1.1//EN"
 "http://www.w3.org/Graphics/SVG/1.1/DTD/svg11.dtd">
<!-- Generated by graphviz version 2.38.0 (20140413.2041)
 -->
<!-- Title: Graphical Class Hierarchy Pages: 1 -->
<svg width="530pt" height="284pt"
 viewBox="0.00 0.00 530.00 284.00" xmlns="http://www.w3.org/2000/svg" xmlns:xlink="http://www.w3.org/1999/xlink">
<g id="graph0" class="graph" transform="scale(1 1) rotate(0) translate(4 280)">
<title>Graphical Class Hierarchy</title>
<polygon fill="white" stroke="none" points="-4,4 -4,-280 526,-280 526,4 -4,4"/>
<!-- Node0 -->
<g id="node1" class="node"><title>Node0</title>
<g id="a_node1"><a xlink:href="class_pizzazz_library_1_1_ingredients_1_1_interfaces_1_1_ingredient.html" target="_top" xlink:title=" ">
<polygon fill="white" stroke="black" points="0,-122.5 0,-152.5 134,-152.5 134,-122.5 0,-122.5"/>
<text text-anchor="start" x="8" y="-140.5" font-family="Helvetica,sans-Serif" font-size="10.00">PizzazzLibrary.Ingredients.</text>
<text text-anchor="middle" x="67" y="-129.5" font-family="Helvetica,sans-Serif" font-size="10.00">Interfaces.Ingredient</text>
</a>
</g>
</g>
<!-- Node1 -->
<g id="node2" class="node"><title>Node1</title>
<g id="a_node2"><a xlink:href="class_pizzazz_library_1_1_ingredients_1_1_implementation_1_1_basil.html" target="_top" xlink:title=" ">
<polygon fill="white" stroke="black" points="176,-245.5 176,-275.5 310,-275.5 310,-245.5 176,-245.5"/>
<text text-anchor="start" x="184" y="-263.5" font-family="Helvetica,sans-Serif" font-size="10.00">PizzazzLibrary.Ingredients.</text>
<text text-anchor="middle" x="243" y="-252.5" font-family="Helvetica,sans-Serif" font-size="10.00">Implementation.Basil</text>
</a>
</g>
</g>
<!-- Node0&#45;&gt;Node1 -->
<g id="edge1" class="edge"><title>Node0&#45;&gt;Node1</title>
<path fill="none" stroke="midnightblue" d="M86.4917,-160.708C105.352,-182.983 136.528,-216.157 170,-236.5 175.517,-239.853 181.56,-242.802 187.726,-245.378"/>
<polygon fill="midnightblue" stroke="midnightblue" points="88.9684,-158.212 79.8873,-152.755 83.5829,-162.684 88.9684,-158.212"/>
</g>
<!-- Node2 -->
<g id="node3" class="node"><title>Node2</title>
<g id="a_node3"><a xlink:href="class_pizzazz_library_1_1_ingredients_1_1_implementation_1_1_cheese.html" target="_top" xlink:title=" ">
<polygon fill="white" stroke="black" points="176,-196.5 176,-226.5 310,-226.5 310,-196.5 176,-196.5"/>
<text text-anchor="start" x="184" y="-214.5" font-family="Helvetica,sans-Serif" font-size="10.00">PizzazzLibrary.Ingredients.</text>
<text text-anchor="middle" x="243" y="-203.5" font-family="Helvetica,sans-Serif" font-size="10.00">Implementation.Cheese</text>
</a>
</g>
</g>
<!-- Node0&#45;&gt;Node2 -->
<g id="edge2" class="edge"><title>Node0&#45;&gt;Node2</title>
<path fill="none" stroke="midnightblue" d="M105.084,-157.17C124.195,-166.923 148.043,-178.506 170,-187.5 177.56,-190.596 185.681,-193.601 193.648,-196.376"/>
<polygon fill="midnightblue" stroke="midnightblue" points="106.604,-154.016 96.1113,-152.548 103.399,-160.239 106.604,-154.016"/>
</g>
<!-- Node3 -->
<g id="node4" class="node"><title>Node3</title>
<g id="a_node4"><a xlink:href="class_pizzazz_library_1_1_ingredients_1_1_implementation_1_1_dough.html" target="_top" xlink:title=" ">
<polygon fill="white" stroke="black" points="176,-147.5 176,-177.5 310,-177.5 310,-147.5 176,-147.5"/>
<text text-anchor="start" x="184" y="-165.5" font-family="Helvetica,sans-Serif" font-size="10.00">PizzazzLibrary.Ingredients.</text>
<text text-anchor="middle" x="243" y="-154.5" font-family="Helvetica,sans-Serif" font-size="10.00">Implementation.Dough</text>
</a>
</g>
</g>
<!-- Node0&#45;&gt;Node3 -->
<g id="edge3" class="edge"><title>Node0&#45;&gt;Node3</title>
<path fill="none" stroke="midnightblue" d="M144.293,-148.462C154.828,-149.975 165.576,-151.52 175.906,-153.004"/>
<polygon fill="midnightblue" stroke="midnightblue" points="144.674,-144.981 134.278,-147.023 143.679,-151.909 144.674,-144.981"/>
</g>
<!-- Node4 -->
<g id="node5" class="node"><title>Node4</title>
<g id="a_node5"><a xlink:href="class_pizzazz_library_1_1_ingredients_1_1_implementation_1_1_salami.html" target="_top" xlink:title=" ">
<polygon fill="white" stroke="black" points="176,-98.5 176,-128.5 310,-128.5 310,-98.5 176,-98.5"/>
<text text-anchor="start" x="184" y="-116.5" font-family="Helvetica,sans-Serif" font-size="10.00">PizzazzLibrary.Ingredients.</text>
<text text-anchor="middle" x="243" y="-105.5" font-family="Helvetica,sans-Serif" font-size="10.00">Implementation.Salami</text>
</a>
</g>
</g>
<!-- Node0&#45;&gt;Node4 -->
<g id="edge4" class="edge"><title>Node0&#45;&gt;Node4</title>
<path fill="none" stroke="midnightblue" d="M144.293,-126.977C154.828,-125.524 165.576,-124.041 175.906,-122.616"/>
<polygon fill="midnightblue" stroke="midnightblue" points="143.706,-123.525 134.278,-128.358 144.663,-130.459 143.706,-123.525"/>
</g>
<!-- Node5 -->
<g id="node6" class="node"><title>Node5</title>
<g id="a_node6"><a xlink:href="class_pizzazz_library_1_1_ingredients_1_1_implementation_1_1_tomato.html" target="_top" xlink:title=" ">
<polygon fill="white" stroke="black" points="176,-49.5 176,-79.5 310,-79.5 310,-49.5 176,-49.5"/>
<text text-anchor="start" x="184" y="-67.5" font-family="Helvetica,sans-Serif" font-size="10.00">PizzazzLibrary.Ingredients.</text>
<text text-anchor="middle" x="243" y="-56.5" font-family="Helvetica,sans-Serif" font-size="10.00">Implementation.Tomato</text>
</a>
</g>
</g>
<!-- Node0&#45;&gt;Node5 -->
<g id="edge5" class="edge"><title>Node0&#45;&gt;Node5</title>
<path fill="none" stroke="midnightblue" d="M107.122,-117.904C125.927,-108.791 148.914,-98.094 170,-89.5 178.455,-86.054 187.583,-82.6494 196.406,-79.5143"/>
<polygon fill="midnightblue" stroke="midnightblue" points="105.427,-114.836 97.9774,-122.369 108.499,-121.126 105.427,-114.836"/>
</g>
<!-- Node6 -->
<g id="node7" class="node"><title>Node6</title>
<g id="a_node7"><a xlink:href="class_pizzazz_library_1_1_ingredients_1_1_implementation_1_1_tomato_sauce.html" target="_top" xlink:title=" ">
<polygon fill="white" stroke="black" points="170,-0.5 170,-30.5 316,-30.5 316,-0.5 170,-0.5"/>
<text text-anchor="start" x="178" y="-18.5" font-family="Helvetica,sans-Serif" font-size="10.00">PizzazzLibrary.Ingredients.</text>
<text text-anchor="middle" x="243" y="-7.5" font-family="Helvetica,sans-Serif" font-size="10.00">Implementation.TomatoSauce</text>
</a>
</g>
</g>
<!-- Node0&#45;&gt;Node6 -->
<g id="edge6" class="edge"><title>Node0&#45;&gt;Node6</title>
<path fill="none" stroke="midnightblue" d="M86.962,-114.503C105.966,-92.7641 137.062,-60.5696 170,-40.5 176.215,-36.7132 183.083,-33.3996 190.036,-30.5307"/>
<polygon fill="midnightblue" stroke="midnightblue" points="84.1481,-112.408 80.2918,-122.276 89.4602,-116.967 84.1481,-112.408"/>
</g>
<!-- Node7 -->
<g id="node8" class="node"><title>Node7</title>
<g id="a_node8"><a xlink:href="class_pizzazz_library_1_1_ingredients_1_1_implementation_1_1_spicy_tomato_sauce.html" target="_top" xlink:title=" ">
<polygon fill="white" stroke="black" points="352,-0.5 352,-30.5 522,-30.5 522,-0.5 352,-0.5"/>
<text text-anchor="start" x="360" y="-18.5" font-family="Helvetica,sans-Serif" font-size="10.00">PizzazzLibrary.Ingredients.</text>
<text text-anchor="middle" x="437" y="-7.5" font-family="Helvetica,sans-Serif" font-size="10.00">Implementation.SpicyTomatoSauce</text>
</a>
</g>
</g>
<!-- Node6&#45;&gt;Node7 -->
<g id="edge7" class="edge"><title>Node6&#45;&gt;Node7</title>
<path fill="none" stroke="midnightblue" d="M326.299,-15.5C334.784,-15.5 343.415,-15.5 351.919,-15.5"/>
<polygon fill="midnightblue" stroke="midnightblue" points="326.04,-12.0001 316.04,-15.5 326.04,-19.0001 326.04,-12.0001"/>
</g>
</g>
</svg>
