<?xml version="1.0" encoding="UTF-8" standalone="no"?>
<!DOCTYPE svg PUBLIC "-//W3C//DTD SVG 1.1//EN"
 "http://www.w3.org/Graphics/SVG/1.1/DTD/svg11.dtd">
<!-- Generated by graphviz version 2.38.0 (20140413.2041)
 -->
<!-- Title: Graphical Class Hierarchy Pages: 1 -->
<svg width="539pt" height="88pt"
 viewBox="0.00 0.00 539.00 88.00" xmlns="http://www.w3.org/2000/svg" xmlns:xlink="http://www.w3.org/1999/xlink">
<g id="graph0" class="graph" transform="scale(1 1) rotate(0) translate(4 84)">
<title>Graphical Class Hierarchy</title>
<polygon fill="white" stroke="none" points="-4,4 -4,-84 535,-84 535,4 -4,4"/>
<!-- Node0 -->
<g id="node1" class="node"><title>Node0</title>
<g id="a_node1"><a xlink:href="class_pizzazz_library_1_1_implementation_1_1_pizza.html" target="_top" xlink:title="A generic pizza">
<polygon fill="white" stroke="black" points="0,-24.5 0,-54.5 153,-54.5 153,-24.5 0,-24.5"/>
<text text-anchor="start" x="8" y="-42.5" font-family="Helvetica,sans-Serif" font-size="10.00">PizzazzLibrary.Implementation.</text>
<text text-anchor="middle" x="76.5" y="-31.5" font-family="Helvetica,sans-Serif" font-size="10.00">Pizza</text>
</a>
</g>
</g>
<!-- Node1 -->
<g id="node2" class="node"><title>Node1</title>
<g id="a_node2"><a xlink:href="class_pizzazz_library_1_1_implementation_1_1_pizza_decorator.html" target="_top" xlink:title=" ">
<polygon fill="white" stroke="black" points="189,-24.5 189,-54.5 342,-54.5 342,-24.5 189,-24.5"/>
<text text-anchor="start" x="197" y="-42.5" font-family="Helvetica,sans-Serif" font-size="10.00">PizzazzLibrary.Implementation.</text>
<text text-anchor="middle" x="265.5" y="-31.5" font-family="Helvetica,sans-Serif" font-size="10.00">PizzaDecorator</text>
</a>
</g>
</g>
<!-- Node0&#45;&gt;Node1 -->
<g id="edge1" class="edge"><title>Node0&#45;&gt;Node1</title>
<path fill="none" stroke="midnightblue" d="M163.298,-39.5C171.773,-39.5 180.333,-39.5 188.697,-39.5"/>
<polygon fill="midnightblue" stroke="midnightblue" points="163.021,-36.0001 153.021,-39.5 163.021,-43.0001 163.021,-36.0001"/>
</g>
<!-- Node2 -->
<g id="node3" class="node"><title>Node2</title>
<g id="a_node3"><a xlink:href="class_pizzazz_library_1_1_implementation_1_1_custom_piza_decorator.html" target="_top" xlink:title="A customized pizza based on another pizza. The customer pays 10 cents extra on top each ingredient ad...">
<polygon fill="white" stroke="black" points="378,-49.5 378,-79.5 531,-79.5 531,-49.5 378,-49.5"/>
<text text-anchor="start" x="386" y="-67.5" font-family="Helvetica,sans-Serif" font-size="10.00">PizzazzLibrary.Implementation.</text>
<text text-anchor="middle" x="454.5" y="-56.5" font-family="Helvetica,sans-Serif" font-size="10.00">CustomPizaDecorator</text>
</a>
</g>
</g>
<!-- Node1&#45;&gt;Node2 -->
<g id="edge2" class="edge"><title>Node1&#45;&gt;Node2</title>
<path fill="none" stroke="midnightblue" d="M352.018,-50.9329C360.585,-52.0782 369.241,-53.2354 377.697,-54.3659"/>
<polygon fill="midnightblue" stroke="midnightblue" points="352.397,-47.4525 342.021,-49.5964 351.469,-54.3907 352.397,-47.4525"/>
</g>
<!-- Node3 -->
<g id="node4" class="node"><title>Node3</title>
<g id="a_node4"><a xlink:href="class_pizzazz_library_1_1_implementation_1_1_pizza_margherita.html" target="_top" xlink:title=" ">
<polygon fill="white" stroke="black" points="378,-0.5 378,-30.5 531,-30.5 531,-0.5 378,-0.5"/>
<text text-anchor="start" x="386" y="-18.5" font-family="Helvetica,sans-Serif" font-size="10.00">PizzazzLibrary.Implementation.</text>
<text text-anchor="middle" x="454.5" y="-7.5" font-family="Helvetica,sans-Serif" font-size="10.00">PizzaMargherita</text>
</a>
</g>
</g>
<!-- Node1&#45;&gt;Node3 -->
<g id="edge3" class="edge"><title>Node1&#45;&gt;Node3</title>
<path fill="none" stroke="midnightblue" d="M352.018,-28.5244C360.585,-27.425 369.241,-26.314 377.697,-25.2287"/>
<polygon fill="midnightblue" stroke="midnightblue" points="351.494,-25.0629 342.021,-29.8075 352.385,-32.0059 351.494,-25.0629"/>
</g>
</g>
</svg>
