<?xml version="1.0" encoding="UTF-8" standalone="no"?>
<!DOCTYPE svg PUBLIC "-//W3C//DTD SVG 1.1//EN"
 "http://www.w3.org/Graphics/SVG/1.1/DTD/svg11.dtd">
<!-- Generated by graphviz version 2.38.0 (20140413.2041)
 -->
<!-- Title: PizzazzLibrary.Interfaces.IPizzaFactory Pages: 1 -->
<svg width="332pt" height="215pt"
 viewBox="0.00 0.00 332.00 215.00" xmlns="http://www.w3.org/2000/svg" xmlns:xlink="http://www.w3.org/1999/xlink">
<g id="graph0" class="graph" transform="scale(1 1) rotate(0) translate(4 211)">
<title>PizzazzLibrary.Interfaces.IPizzaFactory</title>
<polygon fill="white" stroke="none" points="-4,4 -4,-211 328,-211 328,4 -4,4"/>
<!-- Node1 -->
<g id="node1" class="node"><title>Node1</title>
<g id="a_node1"><a xlink:title=" ">
<polygon fill="#bfbfbf" stroke="black" points="97,-138.5 97,-206.5 226,-206.5 226,-138.5 97,-138.5"/>
<text text-anchor="start" x="105" y="-194.5" font-family="Helvetica,sans-Serif" font-size="10.00">PizzazzLibrary.Interfaces.</text>
<text text-anchor="middle" x="161.5" y="-183.5" font-family="Helvetica,sans-Serif" font-size="10.00">IPizzaFactory</text>
<polyline fill="none" stroke="black" points="97,-176.5 226,-176.5 "/>
<text text-anchor="middle" x="161.5" y="-164.5" font-family="Helvetica,sans-Serif" font-size="10.00"> </text>
<polyline fill="none" stroke="black" points="97,-157.5 226,-157.5 "/>
<text text-anchor="start" x="105" y="-145.5" font-family="Helvetica,sans-Serif" font-size="10.00">+ PreparePizza()</text>
</a>
</g>
</g>
<!-- Node2 -->
<g id="node2" class="node"><title>Node2</title>
<g id="a_node2"><a xlink:href="class_pizzazz_library_1_1_implementation_1_1_custom_pizza_factory.html" target="_top" xlink:title=" ">
<polygon fill="white" stroke="black" points="0,-6 0,-96 153,-96 153,-6 0,-6"/>
<text text-anchor="start" x="8" y="-84" font-family="Helvetica,sans-Serif" font-size="10.00">PizzazzLibrary.Implementation.</text>
<text text-anchor="middle" x="76.5" y="-73" font-family="Helvetica,sans-Serif" font-size="10.00">CustomPizzaFactory</text>
<polyline fill="none" stroke="black" points="0,-66 153,-66 "/>
<text text-anchor="start" x="8" y="-54" font-family="Helvetica,sans-Serif" font-size="10.00">+ BasePizza</text>
<text text-anchor="start" x="8" y="-43" font-family="Helvetica,sans-Serif" font-size="10.00">+ DecoratedPizza</text>
<text text-anchor="start" x="8" y="-32" font-family="Helvetica,sans-Serif" font-size="10.00">+ ExtraIngredients</text>
<polyline fill="none" stroke="black" points="0,-25 153,-25 "/>
<text text-anchor="start" x="8" y="-13" font-family="Helvetica,sans-Serif" font-size="10.00">+ PreparePizza()</text>
</a>
</g>
</g>
<!-- Node1&#45;&gt;Node2 -->
<g id="edge1" class="edge"><title>Node1&#45;&gt;Node2</title>
<path fill="none" stroke="midnightblue" d="M131.802,-129.748C124.103,-118.924 115.785,-107.23 107.996,-96.2798"/>
<polygon fill="none" stroke="midnightblue" points="129.174,-132.092 137.823,-138.213 134.879,-128.035 129.174,-132.092"/>
</g>
<!-- Node3 -->
<g id="node3" class="node"><title>Node3</title>
<g id="a_node3"><a xlink:href="class_pizzazz_library_1_1_implementation_1_1_pizza_margherita_factory.html" target="_top" xlink:title="Singleton implementation Margherita pizza only producing factory.">
<polygon fill="white" stroke="black" points="171,-0.5 171,-101.5 324,-101.5 324,-0.5 171,-0.5"/>
<text text-anchor="start" x="179" y="-89.5" font-family="Helvetica,sans-Serif" font-size="10.00">PizzazzLibrary.Implementation.</text>
<text text-anchor="middle" x="247.5" y="-78.5" font-family="Helvetica,sans-Serif" font-size="10.00">PizzaMargheritaFactory</text>
<polyline fill="none" stroke="black" points="171,-71.5 324,-71.5 "/>
<text text-anchor="start" x="179" y="-59.5" font-family="Helvetica,sans-Serif" font-size="10.00">+ Instance</text>
<text text-anchor="start" x="179" y="-48.5" font-family="Helvetica,sans-Serif" font-size="10.00">&#45; instance</text>
<polyline fill="none" stroke="black" points="171,-41.5 324,-41.5 "/>
<text text-anchor="start" x="179" y="-29.5" font-family="Helvetica,sans-Serif" font-size="10.00">+ PreparePizza()</text>
<text text-anchor="start" x="179" y="-18.5" font-family="Helvetica,sans-Serif" font-size="10.00">&#45; PizzaMargheritaFactory()</text>
<text text-anchor="start" x="179" y="-7.5" font-family="Helvetica,sans-Serif" font-size="10.00">&#45; PizzaMargheritaFactory()</text>
</a>
</g>
</g>
<!-- Node1&#45;&gt;Node3 -->
<g id="edge2" class="edge"><title>Node1&#45;&gt;Node3</title>
<path fill="none" stroke="midnightblue" d="M191.355,-130.015C197.94,-120.865 204.981,-111.082 211.771,-101.646"/>
<polygon fill="none" stroke="midnightblue" points="188.456,-128.051 185.456,-138.213 194.138,-132.14 188.456,-128.051"/>
</g>
</g>
</svg>
