<?xml version="1.0" encoding="UTF-8" standalone="no"?>
<!DOCTYPE svg PUBLIC "-//W3C//DTD SVG 1.1//EN"
 "http://www.w3.org/Graphics/SVG/1.1/DTD/svg11.dtd">
<!-- Generated by graphviz version 2.38.0 (20140413.2041)
 -->
<!-- Title: PizzazzLibrary.Pizza.Interfaces.IPizzaFactory Pages: 1 -->
<svg width="388pt" height="215pt"
 viewBox="0.00 0.00 388.00 215.00" xmlns="http://www.w3.org/2000/svg" xmlns:xlink="http://www.w3.org/1999/xlink">
<g id="graph0" class="graph" transform="scale(1 1) rotate(0) translate(4 211)">
<title>PizzazzLibrary.Pizza.Interfaces.IPizzaFactory</title>
<polygon fill="white" stroke="none" points="-4,4 -4,-211 384,-211 384,4 -4,4"/>
<!-- Node1 -->
<g id="node1" class="node"><title>Node1</title>
<g id="a_node1"><a xlink:title=" ">
<polygon fill="#bfbfbf" stroke="black" points="111,-138.5 111,-206.5 268,-206.5 268,-138.5 111,-138.5"/>
<text text-anchor="start" x="119" y="-194.5" font-family="Helvetica,sans-Serif" font-size="10.00">PizzazzLibrary.Pizza.Interfaces.</text>
<text text-anchor="middle" x="189.5" y="-183.5" font-family="Helvetica,sans-Serif" font-size="10.00">IPizzaFactory</text>
<polyline fill="none" stroke="black" points="111,-176.5 268,-176.5 "/>
<text text-anchor="middle" x="189.5" y="-164.5" font-family="Helvetica,sans-Serif" font-size="10.00"> </text>
<polyline fill="none" stroke="black" points="111,-157.5 268,-157.5 "/>
<text text-anchor="start" x="119" y="-145.5" font-family="Helvetica,sans-Serif" font-size="10.00">+ PreparePizza()</text>
</a>
</g>
</g>
<!-- Node2 -->
<g id="node2" class="node"><title>Node2</title>
<g id="a_node2"><a xlink:href="class_pizzazz_library_1_1_pizza_1_1_implementation_1_1_custom_pizza_factory.html" target="_top" xlink:title=" ">
<polygon fill="white" stroke="black" points="0,-11.5 0,-90.5 181,-90.5 181,-11.5 0,-11.5"/>
<text text-anchor="start" x="8" y="-78.5" font-family="Helvetica,sans-Serif" font-size="10.00">PizzazzLibrary.Pizza.Implementation.</text>
<text text-anchor="middle" x="90.5" y="-67.5" font-family="Helvetica,sans-Serif" font-size="10.00">CustomPizzaFactory</text>
<polyline fill="none" stroke="black" points="0,-60.5 181,-60.5 "/>
<text text-anchor="start" x="8" y="-48.5" font-family="Helvetica,sans-Serif" font-size="10.00">+ BasePizza</text>
<text text-anchor="start" x="8" y="-37.5" font-family="Helvetica,sans-Serif" font-size="10.00">+ ExtraIngredients</text>
<polyline fill="none" stroke="black" points="0,-30.5 181,-30.5 "/>
<text text-anchor="start" x="8" y="-18.5" font-family="Helvetica,sans-Serif" font-size="10.00">+ PreparePizza()</text>
</a>
</g>
</g>
<!-- Node1&#45;&gt;Node2 -->
<g id="edge1" class="edge"><title>Node1&#45;&gt;Node2</title>
<path fill="none" stroke="midnightblue" d="M155.431,-130.377C144.752,-117.486 133.008,-103.31 122.478,-90.5997"/>
<polygon fill="none" stroke="midnightblue" points="152.848,-132.745 161.923,-138.213 158.239,-128.279 152.848,-132.745"/>
</g>
<!-- Node3 -->
<g id="node3" class="node"><title>Node3</title>
<g id="a_node3"><a xlink:href="class_pizzazz_library_1_1_pizza_1_1_implementation_1_1_pizza_margherita_factory.html" target="_top" xlink:title="Singleton implementation Margherita pizza only producing factory.">
<polygon fill="white" stroke="black" points="199,-0.5 199,-101.5 380,-101.5 380,-0.5 199,-0.5"/>
<text text-anchor="start" x="207" y="-89.5" font-family="Helvetica,sans-Serif" font-size="10.00">PizzazzLibrary.Pizza.Implementation.</text>
<text text-anchor="middle" x="289.5" y="-78.5" font-family="Helvetica,sans-Serif" font-size="10.00">PizzaMargheritaFactory</text>
<polyline fill="none" stroke="black" points="199,-71.5 380,-71.5 "/>
<text text-anchor="start" x="207" y="-59.5" font-family="Helvetica,sans-Serif" font-size="10.00">+ Instance</text>
<text text-anchor="start" x="207" y="-48.5" font-family="Helvetica,sans-Serif" font-size="10.00">&#45; instance</text>
<polyline fill="none" stroke="black" points="199,-41.5 380,-41.5 "/>
<text text-anchor="start" x="207" y="-29.5" font-family="Helvetica,sans-Serif" font-size="10.00">+ PreparePizza()</text>
<text text-anchor="start" x="207" y="-18.5" font-family="Helvetica,sans-Serif" font-size="10.00">&#45; PizzaMargheritaFactory()</text>
<text text-anchor="start" x="207" y="-7.5" font-family="Helvetica,sans-Serif" font-size="10.00">&#45; PizzaMargheritaFactory()</text>
</a>
</g>
</g>
<!-- Node1&#45;&gt;Node3 -->
<g id="edge2" class="edge"><title>Node1&#45;&gt;Node3</title>
<path fill="none" stroke="midnightblue" d="M223.981,-130.295C231.705,-121.065 239.978,-111.179 247.955,-101.646"/>
<polygon fill="none" stroke="midnightblue" points="221.089,-128.297 217.356,-138.213 226.457,-132.79 221.089,-128.297"/>
</g>
</g>
</svg>
